<svg width="178" height="23" viewBox="0 0 178 23" fill="none" xmlns="http://www.w3.org/2000/svg">
<g clip-path="url(#clip0_1_2)">
<mask id="mask0_1_2" style="mask-type:luminance" maskUnits="userSpaceOnUse" x="0" y="0" width="178" height="23">
<path d="M177.08 0.799988H0V22.2H177.08V0.799988Z" fill="white"/>
</mask>
<g mask="url(#mask0_1_2)">
<path d="M140.89 0.799988L140.88 9.24999H125.05L125.07 0.799988H119.19L119.16 10.84H119.18V22.2H125.06V14.02H140.88V22.2H146.76L146.77 0.799988H140.89Z" fill="white"/>
<path d="M108.01 17.36C107.95 17.36 107.9 17.37 107.83 17.37H96.5599C95.5199 17.35 94.6599 17.07 93.9799 16.49C93.3099 15.91 92.9699 15.13 92.9699 14.17V11.11V8.92999C92.9699 8.92999 93.0199 5.58999 96.66 5.56999H115.16L112.21 0.799988H95.7399C88.5199 0.799988 87.0699 5.61999 87.0699 8.89999V15.07C87.0699 16.95 87.7799 18.59 89.2299 20.04C90.7199 21.48 92.6499 22.19 95.0599 22.19H113.08L116.03 17.35H108.02L108.01 17.36Z" fill="white"/>
<path d="M102.98 9.49999H110.28V9.48999H113.24L116.19 13.82H105.93L102.98 9.49999Z" fill="#0066FF"/>
<path d="M5.89 0.799988V22.2H0V0.799988H5.89Z" fill="#0066FF"/>
<path d="M81.5 0.799988V22.2H75.61V0.799988H81.5Z" fill="white"/>
<path d="M38.5901 22.2H32.6401L17.2501 8.24999V22.2H11.3101V0.799988H17.2501L32.6401 14.8V0.799988H38.5901V22.2Z" fill="white"/>
<path d="M149.08 0.799988L152.03 5.55999H160.72L160.71 22.2H166.61L166.62 5.55999H177.08L174.13 0.799988H149.08Z" fill="white"/>
<path d="M64.55 9.49999H51.21C50.24 9.43999 49.49 8.66999 49.49 7.56999C49.49 6.22999 50.62 5.68999 51.26 5.68999H69.23L66.2 0.799988H50.07C46.89 0.799988 43.86 3.74999 43.86 7.38999C43.86 12.57 48.36 14.17 50.18 14.17H63.39C64.8 14.17 65.16 15.36 65.16 15.83C65.16 16.85 64.41 17.57 63.55 17.57H43.86L46.9 22.2H64.35C68.97 22.2 70.57 18.05 70.57 16.16C70.57 12.52 68.02 9.50999 64.54 9.50999L64.55 9.49999Z" fill="white"/>
</g>
</g>
<defs>
<clipPath id="clip0_1_2">
<rect width="178" height="23" fill="white"/>
</clipPath>
</defs>
</svg>
