<svg width="20" height="20" viewBox="0 0 20 20" fill="none" xmlns="http://www.w3.org/2000/svg">
<path d="M1.66675 7.91668C1.66677 6.98935 1.94808 6.08383 2.47353 5.31973C2.99898 4.55563 3.74385 3.96889 4.60976 3.63701C5.47567 3.30513 6.42188 3.24372 7.32343 3.46088C8.22497 3.67805 9.03944 4.16358 9.65925 4.85335C9.7029 4.90002 9.75568 4.93724 9.81431 4.96268C9.87294 4.98812 9.93617 5.00125 10.0001 5.00125C10.064 5.00125 10.1272 4.98812 10.1859 4.96268C10.2445 4.93724 10.2973 4.90002 10.3409 4.85335C10.9588 4.1591 11.7734 3.66949 12.6764 3.44968C13.5795 3.22988 14.528 3.2903 15.3958 3.62292C16.2636 3.95553 17.0096 4.54456 17.5343 5.3116C18.0591 6.07864 18.3378 6.98731 18.3334 7.91668C18.3334 9.82501 17.0834 11.25 15.8334 12.5L11.2567 16.9275C11.1015 17.1059 10.91 17.2491 10.6951 17.3478C10.4802 17.4464 10.2468 17.4982 10.0103 17.4997C9.77386 17.5012 9.53979 17.4524 9.32365 17.3565C9.10752 17.2605 8.91427 17.1197 8.75675 16.9433L4.16675 12.5C2.91675 11.25 1.66675 9.83335 1.66675 7.91668Z" fill="#FF969A" stroke="#FF969A" stroke-width="1.4" stroke-linecap="round" stroke-linejoin="round"/>
</svg>
