<svg width="109" height="44" viewBox="0 0 109 44" fill="none" xmlns="http://www.w3.org/2000/svg">
<g clip-path="url(#clip0_137_9386)">
<path d="M21.9928 7.4739C21.8025 7.4739 21.6483 7.31969 21.6483 7.1293C21.6483 6.9389 21.8025 6.78469 21.9928 6.78469C19.9397 6.78469 17.9476 7.18702 16.0722 7.98047C14.261 8.74693 12.6345 9.84392 11.2376 11.241C9.84093 12.6384 8.74431 14.2655 7.9781 16.0772C7.18492 17.9533 6.78272 19.946 6.78272 21.9999C6.78272 24.0537 7.18492 26.0464 7.9781 27.9225C8.74431 29.7342 9.84093 31.3613 11.2376 32.7587C12.6345 34.1558 14.261 35.2528 16.0722 36.0192C17.9247 36.8029 19.8909 37.2053 21.9176 37.2147C20.3413 37.1998 18.8396 36.7188 17.5696 35.8369C11.719 33.9611 7.4717 28.4672 7.4717 21.9999C7.4717 13.9901 13.9857 7.4739 21.9928 7.4739ZM23.9524 14.5647C23.9524 15.6474 23.0751 16.525 21.9928 16.525C20.9105 16.525 20.0332 15.6474 20.0332 14.5647C20.0332 13.4821 20.9105 12.6045 21.9928 12.6045C23.0751 12.6045 23.9524 13.4821 23.9524 14.5647ZM36.0075 16.0772C35.2413 14.2655 34.1447 12.6384 32.7478 11.241C31.3512 9.84392 29.7246 8.74693 27.9135 7.98047C26.038 7.18702 24.046 6.78469 21.9928 6.78469C21.8025 6.78469 21.6483 6.9389 21.6483 7.1293C21.6483 7.31969 21.8025 7.4739 21.9928 7.4739H21.9957C22.0663 7.4739 22.1369 7.47505 22.207 7.47706C22.2581 7.4785 22.3089 7.4808 22.3597 7.48338C22.6706 7.49917 22.9761 7.53536 23.2752 7.59021C23.3234 7.59911 23.3716 7.6083 23.4196 7.61835C23.4451 7.62352 23.4707 7.62898 23.4962 7.63443C23.6208 7.66143 23.7443 7.69158 23.8663 7.72547C23.9352 7.74413 24.0035 7.76395 24.0715 7.78491C24.1091 7.7964 24.1465 7.80817 24.1835 7.82052C24.2111 7.82942 24.2386 7.83832 24.2659 7.8478C24.4579 7.91299 24.6463 7.98622 24.8303 8.06691C24.8825 8.08988 24.9342 8.11315 24.9856 8.13727C24.9862 8.13756 24.9867 8.13784 24.9873 8.13813C25.0387 8.16225 25.0898 8.18695 25.1403 8.21193C25.1667 8.22514 25.1928 8.23835 25.2187 8.25156C25.2698 8.27769 25.3203 8.30469 25.3705 8.33197C25.4208 8.35925 25.4705 8.38711 25.5198 8.41554C25.5689 8.44397 25.6174 8.47268 25.6657 8.50198C25.7948 8.58037 25.9214 8.66308 26.0449 8.7498C26.0845 8.77708 26.1238 8.80523 26.1629 8.83366C26.2582 8.90344 26.3518 8.97552 26.4436 9.04961C26.4844 9.08263 26.5246 9.11595 26.5645 9.14954C26.5648 9.14983 26.5654 9.15041 26.5656 9.15069C26.603 9.18199 26.6397 9.21387 26.6762 9.24632C27.0652 9.5892 27.4162 9.9743 27.7226 10.3941C27.7559 10.4398 27.7886 10.4858 27.8207 10.5323C27.8437 10.565 27.8661 10.598 27.8882 10.6313C27.9278 10.6905 27.9666 10.7502 28.0045 10.8108C28.1273 11.007 28.2407 11.2097 28.3444 11.4179C28.3696 11.4684 28.3943 11.5196 28.4181 11.5707C28.4181 11.571 28.4181 11.5713 28.4181 11.5715C28.4646 11.6712 28.5089 11.7717 28.5508 11.8736C28.5548 11.8834 28.5588 11.8929 28.5625 11.9026C28.5904 11.9707 28.6171 12.0393 28.6426 12.1086C28.6481 12.1229 28.6533 12.1376 28.6584 12.1519C28.6756 12.1987 28.692 12.2458 28.7081 12.2932C28.7951 12.5496 28.8677 12.8127 28.9248 13.0812C28.94 13.1518 28.9541 13.2231 28.967 13.2949C29.042 13.7069 29.081 14.1311 29.081 14.5644C29.081 18.4743 25.9011 21.6553 21.9925 21.6553C19.915 21.6553 17.962 22.4645 16.493 23.934C15.0241 25.4034 14.2151 27.357 14.2151 29.4353C14.2151 31.5135 15.0241 33.4669 16.493 34.9363C16.5855 35.0288 16.6796 35.1184 16.7758 35.2057C16.7942 35.2223 16.8126 35.2387 16.8309 35.2551C16.849 35.2712 16.8668 35.287 16.8849 35.3025C16.9056 35.3208 16.9259 35.3386 16.9469 35.3562C17.1151 35.5003 17.2885 35.6364 17.4668 35.7642C17.4855 35.7777 17.5038 35.7909 17.5228 35.8042C17.5383 35.8151 17.5538 35.826 17.5693 35.8369C18.8393 36.7188 20.341 37.1998 21.9173 37.2147C21.9423 37.215 21.9676 37.215 21.9925 37.215C24.0457 37.215 26.0377 36.8127 27.9132 36.0192C29.7243 35.2528 31.3509 34.1558 32.7475 32.7587C34.1444 31.3613 35.2411 29.7342 36.0073 27.9225C36.8004 26.0464 37.2026 24.0537 37.2026 21.9999C37.2026 19.946 36.8004 17.9533 36.0073 16.0772H36.0075ZM21.9928 31.0509C21.102 31.0509 20.3777 30.3261 20.3777 29.4353C20.3777 28.5445 21.102 27.8197 21.9928 27.8197C22.8836 27.8197 23.6079 28.5442 23.6079 29.4353C23.6079 30.3264 22.8833 31.0509 21.9928 31.0509ZM1.15663 19.9001C1.14342 19.9001 1.12993 19.8992 1.11644 19.8978C0.92754 19.8759 0.79204 19.7048 0.813858 19.5158C1.09261 17.1111 1.77355 14.7913 2.83745 12.6212C3.8735 10.5076 5.24572 8.5887 6.91564 6.91823C8.58556 5.24776 10.5038 3.87508 12.6167 2.83868C14.7861 1.77443 17.1051 1.09326 19.5091 0.814416C19.6979 0.792304 19.869 0.927848 19.8909 1.11709C19.9127 1.30605 19.7775 1.47721 19.5883 1.49903C10.0445 2.60636 2.60549 10.0481 1.49853 19.5951C1.47815 19.7706 1.32916 19.9001 1.15691 19.9001H1.15663ZM24.4361 43.1882C24.2636 43.1882 24.1146 43.0589 24.0942 42.8832C24.0724 42.6942 24.2076 42.5231 24.3968 42.5013C33.9409 41.3936 41.3799 33.9519 42.4868 24.4049C42.5086 24.216 42.6797 24.0804 42.8686 24.1022C43.0575 24.1241 43.193 24.2952 43.1712 24.4842C42.8925 26.8889 42.2115 29.2087 41.1476 31.3789C40.1116 33.4924 38.7393 35.4113 37.0694 37.0818C35.3995 38.7522 33.4813 40.1249 31.3684 41.1613C29.1987 42.2256 26.88 42.9067 24.476 43.1856C24.4625 43.187 24.449 43.1879 24.4358 43.1879L24.4361 43.1882ZM42.8287 19.9001C42.6562 19.9001 42.5072 19.7708 42.4871 19.5951C41.3802 10.0478 33.9412 2.60636 24.3971 1.49874C24.2082 1.47692 24.0727 1.30577 24.0945 1.11681C24.1163 0.927848 24.2874 0.792304 24.4763 0.814129C26.8803 1.09297 29.199 1.77414 31.3687 2.83839C33.4816 3.87479 35.3998 5.24747 37.0697 6.91794C38.7396 8.58841 40.1119 10.5073 41.1479 12.6209C42.2118 14.7913 42.8927 17.1108 43.1715 19.5155C43.1933 19.7045 43.0581 19.8757 42.8689 19.8975C42.8554 19.8989 42.8419 19.8998 42.8287 19.8998V19.9001ZM19.5492 43.1882C19.536 43.1882 19.5225 43.1873 19.5091 43.1859C17.1051 42.907 14.7861 42.2259 12.6167 41.1616C10.5038 40.1252 8.58556 38.7525 6.91564 37.0821C5.24572 35.4116 3.8735 33.4927 2.83745 31.3791C1.77355 29.2087 1.09289 26.8892 0.813858 24.4845C0.79204 24.2955 0.927253 24.1243 1.11644 24.1025C1.30562 24.0804 1.47643 24.216 1.49824 24.4052C2.60521 33.9525 10.0442 41.3939 19.5883 42.5015C19.7772 42.5234 19.9127 42.6945 19.8909 42.8835C19.8705 43.0589 19.7215 43.1885 19.549 43.1885L19.5492 43.1882ZM23.0079 1.01544C23.0079 1.57628 22.5535 2.03087 21.9928 2.03087C21.4322 2.03087 20.9777 1.57628 20.9777 1.01544C20.9777 0.454591 21.4322 0 21.9928 0C22.5535 0 23.0079 0.454591 23.0079 1.01544ZM23.0079 42.9846C23.0079 43.5454 22.5535 44 21.9928 44C21.4322 44 20.9777 43.5454 20.9777 42.9846C20.9777 42.4237 21.4322 41.9691 21.9928 41.9691C22.5535 41.9691 23.0079 42.4237 23.0079 42.9846ZM43.9856 22.0001C43.9856 22.561 43.5309 23.0156 42.9703 23.0156C42.4096 23.0156 41.9552 22.561 41.9552 22.0001C41.9552 21.4393 42.4099 20.9847 42.9703 20.9847C43.5306 20.9847 43.9856 21.4393 43.9856 22.0001ZM2.0302 22.0001C2.0302 22.561 1.57576 23.0156 1.0151 23.0156C0.45444 23.0156 0 22.5607 0 22.0001C0 21.4396 0.45444 20.9847 1.0151 20.9847C1.57576 20.9847 2.0302 21.4393 2.0302 22.0001ZM42.9703 23.0299C42.4027 23.0299 41.9408 22.5679 41.9408 22.0001C41.9408 21.4324 42.4027 20.9704 42.9703 20.9704C43.5378 20.9704 44 21.4324 44 22.0001C44 22.5679 43.5381 23.0299 42.9703 23.0299ZM42.9703 20.9991C42.4185 20.9991 41.9695 21.4482 41.9695 22.0001C41.9695 22.5521 42.4185 23.0012 42.9703 23.0012C43.522 23.0012 43.9713 22.5521 43.9713 22.0001C43.9713 21.4482 43.5223 20.9991 42.9703 20.9991Z" fill="#E8898C"/>
</g>
<path d="M70.6749 15.4166C70.6749 16.4329 70.4716 17.3476 70.0651 18.1945C69.6247 19.0753 69.0488 19.7867 68.3374 20.3965C67.5921 21.0402 66.7451 21.5144 65.7627 21.8532C64.7464 22.2258 63.6285 22.3952 62.4766 22.3952H61.6636C61.3248 22.3952 60.9861 22.3952 60.6473 22.3614C60.2408 22.3614 59.8681 22.3614 59.5293 22.3275C59.1228 22.3275 58.784 22.2936 58.4453 22.2597V25.9523C58.4453 26.5621 58.3775 27.138 58.242 27.7139C58.1065 28.3237 57.9032 28.8657 57.6322 29.3739H59.0889C59.5293 29.3739 59.9697 29.34 60.444 29.2723C60.8505 29.2384 61.3248 29.1706 61.7991 29.0351C62.2734 28.9335 62.7815 28.7641 63.3236 28.5609C63.3913 28.9674 63.3913 29.34 63.3913 29.6788C63.3574 30.0176 63.2558 30.3563 63.1203 30.6951C63.0526 30.8306 62.9509 31 62.8493 31.1694C62.7138 31.3388 62.5783 31.5082 62.4428 31.7114C62.2395 31.8469 62.0701 31.9824 61.8669 32.1179C61.6636 32.2196 61.4265 32.2873 61.1893 32.2873C60.6812 32.2873 60.0714 32.2873 59.36 32.3212C58.6147 32.3212 57.8694 32.3551 57.0902 32.3551C56.2771 32.3551 55.5318 32.3212 54.7866 32.2873C54.0074 32.2196 53.3637 32.1518 52.8217 32.0502C52.5168 31.9824 52.3135 31.7792 52.2458 31.4743C52.1103 31.1355 52.0764 30.8306 52.1441 30.4918C52.1441 30.1531 52.2458 29.8482 52.4152 29.5772C52.5507 29.3061 52.7539 29.1706 53.0249 29.1706C53.2621 29.2045 53.5331 29.2384 53.838 29.2384C54.109 29.2723 54.4478 29.3061 54.7866 29.3061C54.8543 28.6286 54.8882 27.6801 54.8882 26.4944V12.3676H54.3462C54.0751 12.3676 53.8041 12.266 53.5331 12.0289C53.2282 11.8256 52.9572 11.5207 52.6862 11.1819C52.4152 10.877 52.1441 10.5383 51.9409 10.1317C51.7037 9.79297 51.5344 9.4542 51.4327 9.18319C51.9409 9.18319 52.449 9.14931 52.9233 9.11543H54.2784H55.7012H57.2935H64.7125C65.6611 9.11543 66.5419 9.28482 67.2872 9.62359C68.0325 9.99624 68.6423 10.4705 69.1843 11.0464C69.6586 11.6562 70.0312 12.2999 70.3022 13.0452C70.5394 13.8243 70.6749 14.6035 70.6749 15.4166ZM58.4453 12.0627V19.8883C59.2583 20.0238 60.0714 20.0577 60.8844 20.0577C61.6297 20.0916 62.4766 20.0577 63.3913 19.9561C64.4754 19.8545 65.3562 19.4141 66.0337 18.6688C66.6774 17.9235 67.0162 16.9749 67.0162 15.8231C67.0162 15.3488 66.9145 14.9084 66.779 14.4341C66.6096 13.9937 66.3725 13.5872 66.1015 13.2146C65.7627 12.8758 65.3901 12.6048 64.9497 12.3676C64.4754 12.1644 63.9672 12.0627 63.3574 12.0627H58.7163H58.4453ZM74.6224 22.4291C73.9448 22.0903 73.3689 21.6161 72.8269 21.0402C72.2848 20.4981 71.9461 19.9561 71.8106 19.4141C72.2171 18.7365 72.7591 18.1606 73.4367 17.6524C74.0464 17.1782 74.7579 16.7716 75.5032 16.4329C76.2146 16.128 76.9599 15.8908 77.739 15.7215C78.4843 15.5859 79.1619 15.4843 79.8394 15.4843C81.8382 15.4843 83.261 15.9925 84.1418 16.9749C84.9548 17.9912 85.3953 19.5496 85.3953 21.7177V28.2898C85.3953 28.8319 85.463 29.2384 85.6324 29.5094C85.7679 29.8482 85.9712 29.9837 86.3099 29.9837C86.7503 29.9837 87.1907 29.9159 87.6311 29.7127C88.0377 29.5772 88.3764 29.4078 88.6474 29.2045C87.9022 30.2208 87.123 31 86.2761 31.5082C85.3953 32.0163 84.5483 32.2873 83.7692 32.2873C83.261 32.2873 82.8206 32.0841 82.4479 31.7114C82.0414 31.3049 81.8382 30.8645 81.8382 30.2886C81.0251 30.8984 80.2459 31.3726 79.4668 31.7453C78.6537 32.0841 77.6374 32.2873 76.4517 32.2873C74.8934 32.2535 73.6399 31.8808 72.6914 31.1355C71.7428 30.3902 71.2685 29.34 71.2685 28.0527C71.2685 27.0364 71.5395 26.1556 72.1493 25.4442C72.6914 24.7666 73.4705 24.1907 74.453 23.7164C75.4015 23.276 76.5533 22.9034 77.8407 22.5985C79.0941 22.3275 80.4153 22.0903 81.8382 21.8871C81.7704 20.6336 81.3978 19.6851 80.7541 19.0753C80.0766 18.4994 79.2635 18.1945 78.2472 18.1945C77.6035 18.1945 76.9937 18.2961 76.4517 18.4994C75.8419 18.7026 75.3676 19.0075 74.995 19.3463C74.9611 19.8545 74.9272 20.3965 74.8934 20.9724C74.8256 21.5822 74.724 22.0565 74.6224 22.4291ZM77.5019 29.8821C78.1794 29.8821 78.8909 29.7127 79.6023 29.34C80.2798 29.0013 81.0251 28.4931 81.8382 27.8494V23.7164C80.6863 23.9197 79.7039 24.123 78.857 24.2585C77.9762 24.4617 77.2309 24.665 76.655 24.9021C76.0452 25.1731 75.5709 25.478 75.2999 25.8507C74.9611 26.2572 74.8256 26.7654 74.8256 27.409C74.8256 28.0866 75.0289 28.6625 75.4693 29.1368C75.8758 29.6449 76.5533 29.8821 77.5019 29.8821ZM91.2769 18.1606L90.7349 17.212C90.4638 16.8733 90.0234 16.5684 89.4475 16.2974C89.8541 16.0602 90.2267 15.857 90.5655 15.6876C90.8704 15.5521 91.2769 15.4843 91.7512 15.4843C92.361 15.4843 92.8691 15.5521 93.2418 15.6537C93.5805 15.7892 93.8854 15.9586 94.1226 16.1619C94.3258 16.399 94.4952 16.67 94.6307 16.941C94.7323 17.2459 94.8679 17.5847 95.0034 17.9235L99.3396 28.5947H99.3735L103.337 18.2622C103.439 17.9912 103.506 17.6524 103.574 17.3137V16.3312C103.506 16.0602 103.473 15.7553 103.405 15.4843C103.303 15.2472 103.202 15.0439 103.1 14.8745C103.506 14.8745 103.981 14.9084 104.455 14.9762C104.895 15.0778 105.302 15.2133 105.709 15.3827C106.081 15.5859 106.386 15.8231 106.657 16.0941C106.894 16.4329 107.03 16.8055 107.03 17.2459C107.03 17.6186 106.894 17.9912 106.691 18.33C106.42 18.7026 106.251 19.0753 106.115 19.4818L100.017 35.133C99.3735 36.3526 98.696 37.2673 97.9507 37.877C97.1715 38.4529 96.2568 38.7578 95.1727 38.7578C94.4275 38.7578 93.7838 38.6223 93.2418 38.4191C92.6658 38.1819 92.1577 37.877 91.7512 37.5044C91.2769 37.0979 90.9042 36.6575 90.5993 36.1493C90.2606 35.6073 89.9557 35.0652 89.7524 34.4893C91.243 35.4379 92.6997 35.946 94.1226 35.946C94.834 35.946 95.4438 35.7089 95.9519 35.3024C96.4262 34.862 96.9344 34.1506 97.4425 33.1343L97.578 32.7616L91.2769 18.1606Z" fill="#030712"/>
<defs>
<clipPath id="clip0_137_9386">
<rect width="44" height="44" fill="white"/>
</clipPath>
</defs>
</svg>
