<svg width="24" height="24" viewBox="0 0 24 24" fill="none" xmlns="http://www.w3.org/2000/svg">
<g clip-path="url(#clip0_109_11132)">
<path d="M12 7V21" stroke="#364153" stroke-width="1.4" stroke-linecap="round" stroke-linejoin="round"/>
<path d="M20 11V19C20 19.5304 19.7893 20.0391 19.4142 20.4142C19.0391 20.7893 18.5304 21 18 21H6C5.46957 21 4.96086 20.7893 4.58579 20.4142C4.21071 20.0391 4 19.5304 4 19V11" stroke="#364153" stroke-width="1.4" stroke-linecap="round" stroke-linejoin="round"/>
<path d="M7.5 7.00044C6.83696 7.00044 6.20107 6.73705 5.73223 6.2682C5.26339 5.79936 5 5.16348 5 4.50044C5 3.8374 5.26339 3.20151 5.73223 2.73267C6.20107 2.26383 6.83696 2.00044 7.5 2.00044C8.46469 1.98363 9.41003 2.4517 10.2127 3.3436C11.0154 4.2355 11.6383 5.50984 12 7.00044C12.3617 5.50984 12.9846 4.2355 13.7873 3.3436C14.59 2.4517 15.5353 1.98363 16.5 2.00044C17.163 2.00044 17.7989 2.26383 18.2678 2.73267C18.7366 3.20151 19 3.8374 19 4.50044C19 5.16348 18.7366 5.79936 18.2678 6.2682C17.7989 6.73705 17.163 7.00044 16.5 7.00044" stroke="#364153" stroke-width="1.4" stroke-linecap="round" stroke-linejoin="round"/>
<path d="M20 7H4C3.44772 7 3 7.44772 3 8V10C3 10.5523 3.44772 11 4 11H20C20.5523 11 21 10.5523 21 10V8C21 7.44772 20.5523 7 20 7Z" stroke="#364153" stroke-width="1.4" stroke-linecap="round" stroke-linejoin="round"/>
</g>
<defs>
<clipPath id="clip0_109_11132">
<rect width="24" height="24" fill="white"/>
</clipPath>
</defs>
</svg>
