<svg width="12" height="12" viewBox="0 0 12 12" fill="none" xmlns="http://www.w3.org/2000/svg">
<path d="M11 5.09295C11 2.83297 9.22069 1 7.02371 1H4.97629C2.78073 1 1 2.83152 1 5.09295C1 7.35439 2.73981 9.14234 4.90151 9.18301L5.99929 11L7.09708 9.18301C9.25878 9.14234 10.9986 7.3268 10.9986 5.09295H11ZM6.00071 4.43936C6.35205 4.43936 6.63708 4.73275 6.63708 5.09441C6.63708 5.45606 6.35205 5.74946 6.00071 5.74946C5.64936 5.74946 5.36433 5.45606 5.36433 5.09441C5.36433 4.73275 5.64936 4.43936 6.00071 4.43936ZM3.7755 5.748C3.42416 5.748 3.13913 5.45461 3.13913 5.09295C3.13913 4.7313 3.42416 4.43791 3.7755 4.43791C4.12685 4.43791 4.41188 4.7313 4.41188 5.09295C4.41188 5.45461 4.12685 5.748 3.7755 5.748ZM8.22591 5.748C7.87456 5.748 7.58953 5.45461 7.58953 5.09295C7.58953 4.7313 7.87456 4.43791 8.22591 4.43791C8.57725 4.43791 8.86228 4.7313 8.86228 5.09295C8.86228 5.45461 8.57725 5.748 8.22591 5.748Z" fill="#767E9A"/>
</svg>
