<svg width="12" height="12" viewBox="0 0 12 12" fill="none" xmlns="http://www.w3.org/2000/svg">
<path d="M9.54772 9.63137L9.16217 7.45565C9.16217 7.45565 10.6725 6.00423 10.742 5.93966C11.5276 5.19571 11.3798 4.46579 10.4522 4.20751L7.95335 3.85658L6.86629 1.72297C6.36479 0.925676 5.63428 0.925676 5.13278 1.72297L4.04571 3.85658L1.54691 4.20751C0.622179 4.46579 0.47144 5.19851 1.25703 5.93966C1.3266 6.00423 2.8369 7.45565 2.8369 7.45565L2.45135 9.63137C2.29771 10.7234 2.99633 11.1867 4.04281 10.6533C4.13848 10.6055 5.99663 9.6819 5.99663 9.6819C5.99663 9.6819 7.85479 10.6055 7.95045 10.6533C8.99694 11.1867 9.69556 10.7234 9.54192 9.63137H9.54772Z" fill="#767E9A"/>
</svg>
