<svg width="24" height="24" viewBox="0 0 24 24" fill="none" xmlns="http://www.w3.org/2000/svg">
<g clip-path="url(#clip0_1_423)">
<path d="M8.61983 13.7999C8.40945 13.5806 8.24569 13.3209 8.13843 13.0365C8.03117 12.7521 7.98263 12.449 7.99575 12.1453C8.00886 11.8417 8.08336 11.5439 8.21474 11.2698C8.34612 10.9957 8.53167 10.7511 8.76018 10.5507C8.98868 10.3504 9.25542 10.1983 9.54429 10.1039C9.83316 10.0094 10.1382 9.97445 10.4409 10.0011C10.7437 10.0277 11.0379 10.1155 11.3058 10.2589C11.5738 10.4024 11.8098 10.5987 11.9998 10.8359C12.1907 10.6012 12.427 10.4073 12.6946 10.266C12.9621 10.1247 13.2554 10.0388 13.5569 10.0134C13.8584 9.98808 14.162 10.0238 14.4493 10.1185C14.7367 10.2131 15.0021 10.3648 15.2295 10.5643C15.4569 10.7639 15.6418 11.0073 15.773 11.2799C15.9041 11.5526 15.979 11.8489 15.993 12.1512C16.0071 12.4534 15.96 12.7554 15.8546 13.039C15.7493 13.3226 15.5878 13.5821 15.3798 13.8019L12.7538 16.6579C12.6602 16.7658 12.5444 16.8523 12.4144 16.9115C12.2844 16.9708 12.1432 17.0015 12.0003 17.0015C11.8575 17.0015 11.7163 16.9708 11.5863 16.9115C11.4563 16.8523 11.3405 16.7658 11.2468 16.6579L8.61983 13.7999Z" stroke="#4A5565" stroke-width="1.4" stroke-linecap="round" stroke-linejoin="round"/>
<path d="M3 9.99999C2.99993 9.70906 3.06333 9.42161 3.18579 9.15771C3.30824 8.8938 3.4868 8.65979 3.709 8.47199L10.709 2.47199C11.07 2.1669 11.5274 1.99951 12 1.99951C12.4726 1.99951 12.93 2.1669 13.291 2.47199L20.291 8.47199C20.5132 8.65979 20.6918 8.8938 20.8142 9.15771C20.9367 9.42161 21.0001 9.70906 21 9.99999V19C21 19.5304 20.7893 20.0391 20.4142 20.4142C20.0391 20.7893 19.5304 21 19 21H5C4.46957 21 3.96086 20.7893 3.58579 20.4142C3.21071 20.0391 3 19.5304 3 19V9.99999Z" stroke="#4A5565" stroke-width="1.4" stroke-linecap="round" stroke-linejoin="round"/>
</g>
<defs>
<clipPath id="clip0_1_423">
<rect width="24" height="24" fill="white"/>
</clipPath>
</defs>
</svg>
