<svg width="16" height="16" viewBox="0 0 16 16" fill="none" xmlns="http://www.w3.org/2000/svg">
<g clip-path="url(#clip0_194_1928)">
<path d="M8.66675 1.33337C10.258 1.33337 11.7842 1.96551 12.9094 3.09073C14.0346 4.21595 14.6667 5.74208 14.6667 7.33337" stroke="#99A1AF" stroke-width="1.2" stroke-linecap="round" stroke-linejoin="round"/>
<path d="M8.66675 4C9.5508 4 10.3986 4.35119 11.0238 4.97631C11.6489 5.60143 12.0001 6.44928 12.0001 7.33333" stroke="#99A1AF" stroke-width="1.2" stroke-linecap="round" stroke-linejoin="round"/>
<path d="M9.22125 11.0454C9.35894 11.1086 9.51405 11.1231 9.66105 11.0863C9.80804 11.0496 9.93814 10.9639 10.0299 10.8434L10.2666 10.5334C10.3908 10.3678 10.5518 10.2334 10.737 10.1408C10.9221 10.0482 11.1263 10 11.3333 10H13.3333C13.6869 10 14.026 10.1405 14.2761 10.3906C14.5261 10.6406 14.6666 10.9798 14.6666 11.3334V13.3334C14.6666 13.687 14.5261 14.0261 14.2761 14.2762C14.026 14.5262 13.6869 14.6667 13.3333 14.6667C10.1507 14.6667 7.09841 13.4024 4.84797 11.152C2.59753 8.90155 1.33325 5.8493 1.33325 2.66671C1.33325 2.31309 1.47373 1.97395 1.72378 1.7239C1.97382 1.47385 2.31296 1.33337 2.66659 1.33337H4.66658C5.02021 1.33337 5.35935 1.47385 5.60939 1.7239C5.85944 1.97395 5.99992 2.31309 5.99992 2.66671V4.66671C5.99992 4.8737 5.95173 5.07785 5.85915 5.26299C5.76658 5.44813 5.63218 5.60918 5.46658 5.73337L5.15458 5.96737C5.0322 6.06083 4.94593 6.19376 4.91045 6.34361C4.87496 6.49345 4.89244 6.65096 4.95992 6.78937C5.87104 8.63995 7.36953 10.1366 9.22125 11.0454Z" fill="#99A1AF"/>
</g>
<defs>
<clipPath id="clip0_194_1928">
<rect width="16" height="16" fill="white"/>
</clipPath>
</defs>
</svg>
