<svg width="121" height="36" viewBox="0 0 121 36" fill="none" xmlns="http://www.w3.org/2000/svg">
<g clip-path="url(#clip0_1_509)">
<g clip-path="url(#clip1_1_509)">
<path d="M17.9941 6.11501C17.8384 6.11501 17.7123 5.98884 17.7123 5.83306C17.7123 5.67729 17.8384 5.55111 17.9941 5.55111C16.3143 5.55111 14.6844 5.88029 13.15 6.52948C11.6681 7.15658 10.3373 8.05412 9.19436 9.19719C8.05167 10.3405 7.15443 11.6718 6.52754 13.1541C5.87857 14.6891 5.5495 16.3195 5.5495 17.9999C5.5495 19.6803 5.87857 21.3107 6.52754 22.8457C7.15443 24.328 8.05167 25.6593 9.19436 26.8026C10.3373 27.9456 11.6681 28.8432 13.15 29.4703C14.6656 30.1115 16.2743 30.4407 17.9326 30.4484C16.6429 30.4362 15.4142 30.0426 14.3751 29.3211C9.58826 27.7863 6.11321 23.2914 6.11321 17.9999C6.11321 11.4464 11.4429 6.11501 17.9941 6.11501ZM19.5974 11.9166C19.5974 12.8024 18.8796 13.5204 17.9941 13.5204C17.1086 13.5204 16.3908 12.8024 16.3908 11.9166C16.3908 11.0308 17.1086 10.3128 17.9941 10.3128C18.8796 10.3128 19.5974 11.0308 19.5974 11.9166ZM29.4607 13.1541C28.8338 11.6718 27.9366 10.3405 26.7937 9.19719C25.651 8.05412 24.3201 7.15658 22.8383 6.52948C21.3038 5.88029 19.674 5.55111 17.9941 5.55111C17.8384 5.55111 17.7123 5.67729 17.7123 5.83306C17.7123 5.98884 17.8384 6.11501 17.9941 6.11501H17.9965C18.0543 6.11501 18.112 6.11595 18.1693 6.1176C18.2112 6.11877 18.2527 6.12065 18.2943 6.12277C18.5487 6.13569 18.7986 6.16529 19.0433 6.21017C19.0828 6.21745 19.1223 6.22497 19.1615 6.2332C19.1824 6.23743 19.2033 6.24189 19.2242 6.24635C19.3261 6.26844 19.4271 6.29311 19.527 6.32084C19.5833 6.33611 19.6392 6.35232 19.6949 6.36947C19.7257 6.37887 19.7562 6.3885 19.7865 6.39861C19.809 6.40589 19.8316 6.41317 19.8539 6.42093C20.011 6.47426 20.1651 6.53418 20.3157 6.6002C20.3584 6.619 20.4007 6.63803 20.4427 6.65776C20.4432 6.658 20.4437 6.65824 20.4442 6.65847C20.4862 6.67821 20.528 6.69841 20.5693 6.71885C20.591 6.72966 20.6123 6.74047 20.6335 6.75128C20.6753 6.77266 20.7166 6.79475 20.7577 6.81707C20.7988 6.83939 20.8395 6.86218 20.8799 6.88544C20.92 6.9087 20.9597 6.9322 20.9992 6.95616C21.1049 7.0203 21.2085 7.08797 21.3095 7.15893C21.3419 7.18125 21.374 7.20428 21.406 7.22754C21.484 7.28463 21.5605 7.34361 21.6357 7.40423C21.6691 7.43125 21.7019 7.4585 21.7346 7.48599C21.7348 7.48623 21.7353 7.4867 21.7355 7.48693C21.7661 7.51254 21.7961 7.53862 21.826 7.56517C22.1442 7.84571 22.4315 8.16079 22.6821 8.5043C22.7093 8.54166 22.7361 8.57925 22.7624 8.61731C22.7812 8.6441 22.7995 8.67112 22.8176 8.69837C22.85 8.74677 22.8817 8.79565 22.9127 8.84522C23.0133 9.0057 23.106 9.17158 23.1908 9.34192C23.2115 9.38328 23.2317 9.4251 23.2512 9.46692C23.2512 9.46716 23.2512 9.46739 23.2512 9.46763C23.2893 9.54916 23.3254 9.63139 23.3597 9.7148C23.363 9.72279 23.3663 9.73054 23.3693 9.73853C23.3921 9.79422 23.414 9.85037 23.4349 9.907C23.4393 9.91874 23.4436 9.93073 23.4478 9.94248C23.4619 9.98077 23.4753 10.0193 23.4884 10.0581C23.5596 10.2679 23.619 10.4831 23.6658 10.7028C23.6782 10.7606 23.6897 10.8189 23.7003 10.8776C23.7616 11.2148 23.7935 11.5618 23.7935 11.9164C23.7935 15.1153 21.1918 17.7179 17.9939 17.7179C16.2941 17.7179 14.6962 18.38 13.4943 19.5823C12.2924 20.7846 11.6305 22.383 11.6305 24.0834C11.6305 25.7838 12.2924 27.382 13.4943 28.5843C13.5699 28.6599 13.647 28.7332 13.7257 28.8047C13.7407 28.8183 13.7557 28.8317 13.7708 28.8451C13.7856 28.8582 13.8001 28.8711 13.8149 28.8838C13.8318 28.8989 13.8485 28.9134 13.8656 28.9278C14.0033 29.0457 14.1452 29.1571 14.291 29.2616C14.3063 29.2727 14.3213 29.2835 14.3368 29.2943C14.3495 29.3032 14.3622 29.3122 14.3749 29.3211C15.414 30.0426 16.6426 30.4362 17.9324 30.4484C17.9528 30.4487 17.9735 30.4487 17.9939 30.4487C19.6738 30.4487 21.3036 30.1195 22.8381 29.4703C24.3199 28.8432 25.6507 27.9456 26.7934 26.8026C27.9363 25.6593 28.8336 24.328 29.4605 22.8457C30.1095 21.3107 30.4385 19.6803 30.4385 17.9999C30.4385 16.3195 30.1095 14.6891 29.4605 13.1541H29.4607ZM17.9941 25.4053C17.2653 25.4053 16.6727 24.8123 16.6727 24.0834C16.6727 23.3546 17.2653 22.7615 17.9941 22.7615C18.723 22.7615 19.3156 23.3543 19.3156 24.0834C19.3156 24.8125 18.7227 25.4053 17.9941 25.4053ZM0.94633 16.2819C0.935526 16.2819 0.924486 16.2812 0.913447 16.28C0.758896 16.2621 0.648033 16.1221 0.665884 15.9675C0.893952 14 1.45109 12.102 2.32155 10.3264C3.16923 8.59711 4.29196 7.02712 5.65825 5.66037C7.02454 4.29362 8.59401 3.17052 10.3227 2.32256C12.0977 1.4518 13.9951 0.894484 15.962 0.66634C16.1165 0.648249 16.2565 0.759149 16.2743 0.913986C16.2922 1.06859 16.1816 1.20862 16.0268 1.22648C8.2182 2.13248 2.13177 8.22117 1.22607 16.0323C1.2094 16.1759 1.08749 16.2819 0.946565 16.2819H0.94633ZM19.9932 35.3358C19.852 35.3358 19.7301 35.23 19.7134 35.0863C19.6956 34.9317 19.8062 34.7916 19.961 34.7738C27.7698 33.8675 33.8563 27.7788 34.762 19.9677C34.7798 19.8131 34.9198 19.7022 35.0743 19.72C35.2289 19.7379 35.3398 19.8779 35.3219 20.0325C35.0938 22 34.5367 23.898 33.6662 25.6736C32.8186 27.4029 31.6958 28.9729 30.3295 30.3396C28.9632 31.7064 27.3938 32.8295 25.6651 33.6774C23.8898 34.5482 21.9927 35.1055 20.0258 35.3337C20.0148 35.3348 20.0038 35.3355 19.993 35.3355L19.9932 35.3358ZM35.0417 16.2819C34.9005 16.2819 34.7786 16.1761 34.7622 16.0323C33.8565 8.22094 27.7701 2.13248 19.9612 1.22624C19.8067 1.20839 19.6958 1.06835 19.7137 0.913751C19.7315 0.759149 19.8715 0.648249 20.0261 0.666105C21.993 0.894249 23.8901 1.45157 25.6653 2.32232C27.394 3.17029 28.9635 4.29338 30.3298 5.66013C31.6961 7.02688 32.8188 8.59687 33.6665 10.3262C34.5369 12.102 35.0941 13.9997 35.3221 15.9673C35.34 16.1219 35.2294 16.2619 35.0746 16.2798C35.0635 16.2809 35.0525 16.2816 35.0417 16.2816V16.2819ZM15.9948 35.3358C15.984 35.3358 15.973 35.3351 15.962 35.3339C13.9951 35.1058 12.0977 34.5484 10.3227 33.6777C8.59401 32.8297 7.02454 31.7066 5.65825 30.3399C4.29196 28.9731 3.16923 27.4031 2.32155 25.6738C1.45109 23.898 0.894187 22.0003 0.665884 20.0327C0.648033 19.8781 0.758661 19.7381 0.913447 19.7202C1.06823 19.7022 1.20799 19.8131 1.22584 19.9679C2.13153 27.7793 8.21797 33.8678 16.0268 34.774C16.1813 34.7919 16.2922 34.9319 16.2743 35.0865C16.2577 35.23 16.1358 35.336 15.9946 35.336L15.9948 35.3358ZM18.8247 0.830811C18.8247 1.28968 18.4528 1.66162 17.9941 1.66162C17.5354 1.66162 17.1636 1.28968 17.1636 0.830811C17.1636 0.371938 17.5354 0 17.9941 0C18.4528 0 18.8247 0.371938 18.8247 0.830811ZM18.8247 35.1692C18.8247 35.6281 18.4528 36 17.9941 36C17.5354 36 17.1636 35.6281 17.1636 35.1692C17.1636 34.7103 17.5354 34.3384 17.9941 34.3384C18.4528 34.3384 18.8247 34.7103 18.8247 35.1692ZM35.9883 18.0001C35.9883 18.459 35.6162 18.8309 35.1575 18.8309C34.6988 18.8309 34.327 18.459 34.327 18.0001C34.327 17.5412 34.699 17.1693 35.1575 17.1693C35.616 17.1693 35.9883 17.5412 35.9883 18.0001ZM1.66107 18.0001C1.66107 18.459 1.28925 18.8309 0.830534 18.8309C0.371814 18.8309 0 18.4588 0 18.0001C0 17.5415 0.371814 17.1693 0.830534 17.1693C1.28925 17.1693 1.66107 17.5412 1.66107 18.0001ZM35.1575 18.8427C34.6931 18.8427 34.3152 18.4646 34.3152 18.0001C34.3152 17.5356 34.6931 17.1576 35.1575 17.1576C35.6218 17.1576 36 17.5356 36 18.0001C36 18.4646 35.6221 18.8427 35.1575 18.8427ZM35.1575 17.1811C34.706 17.1811 34.3387 17.5485 34.3387 18.0001C34.3387 18.4517 34.706 18.8192 35.1575 18.8192C35.6089 18.8192 35.9765 18.4517 35.9765 18.0001C35.9765 17.5485 35.6092 17.1811 35.1575 17.1811Z" fill="#E8898C"/>
</g>
<path d="M94.2036 17.745C95.8836 18.105 97.6836 18.285 99.5736 18.225C101.434 18.225 103.204 18.105 104.944 17.895C106.684 17.715 108.184 17.475 109.444 17.235C110.704 16.995 111.784 16.785 112.714 16.545C113.614 16.365 114.424 16.185 115.084 16.035C115.744 15.915 116.344 15.825 116.914 15.825C117.304 15.825 117.694 15.885 118.084 16.005C118.444 16.125 118.804 16.275 119.104 16.455C119.374 16.635 119.614 16.845 119.794 17.055C119.944 17.295 120.034 17.535 120.034 17.715C120.034 18.135 119.854 18.465 119.494 18.735C119.134 19.035 118.474 19.155 117.514 19.155C117.214 19.155 116.884 19.155 116.464 19.095C116.014 19.095 115.564 19.065 115.114 19.065C114.424 19.065 113.764 19.095 113.104 19.125C112.414 19.185 111.724 19.215 111.064 19.275C111.034 19.545 111.004 19.815 110.974 20.115C110.914 20.445 110.884 20.745 110.854 21.045C110.794 21.345 110.764 21.645 110.704 21.885C110.614 22.185 110.524 22.395 110.464 22.575C110.284 22.965 110.014 23.265 109.654 23.475C109.264 23.715 108.874 23.895 108.514 24.045C107.854 24.315 107.224 24.555 106.684 24.795L105.154 25.485C104.704 25.725 104.374 25.905 104.134 26.025C103.864 26.205 103.744 26.295 103.744 26.355C103.744 26.655 103.864 26.955 104.134 27.195C104.374 27.435 104.674 27.645 105.094 27.825C105.454 28.005 105.874 28.125 106.354 28.245C106.804 28.335 107.224 28.395 107.644 28.395C108.544 28.395 109.354 28.245 110.074 27.945C110.734 27.645 111.334 27.285 111.874 26.925C112.354 26.565 112.804 26.235 113.164 25.875C113.524 25.545 113.824 25.335 114.094 25.275C114.274 25.215 114.514 25.245 114.814 25.335C115.084 25.455 115.354 25.635 115.594 25.815C115.834 26.025 116.014 26.235 116.194 26.475C116.314 26.715 116.374 26.955 116.344 27.165C116.224 27.825 115.864 28.425 115.264 28.935C114.634 29.415 113.914 29.805 113.104 30.165C112.264 30.465 111.424 30.705 110.554 30.885C109.654 31.035 108.844 31.125 108.184 31.125C107.464 31.125 106.684 31.065 105.844 30.945C104.944 30.825 104.134 30.615 103.414 30.375C102.634 30.105 102.004 29.775 101.524 29.355C100.984 28.905 100.744 28.365 100.744 27.735C100.744 27.555 100.774 27.405 100.894 27.285C100.954 27.135 101.134 26.985 101.434 26.745C102.124 26.235 103.024 25.755 104.104 25.275C105.154 24.855 106.324 24.285 107.584 23.595C107.644 23.565 107.734 23.415 107.824 23.115C107.884 22.875 107.914 22.545 107.974 22.125C107.974 21.765 108.004 21.345 108.004 20.895C108.004 20.475 107.974 20.055 107.974 19.665L105.064 20.115C104.104 20.295 103.204 20.475 102.364 20.655C101.344 20.895 100.534 21.045 99.9336 21.105C99.3036 21.225 98.7036 21.255 98.1636 21.255C97.5036 21.255 96.9936 21.135 96.5736 20.865C96.1236 20.625 95.7636 20.325 95.4936 19.995C95.1936 19.665 94.9236 19.305 94.7436 18.885C94.5036 18.495 94.3236 18.105 94.2036 17.745ZM100.144 6.79497C100.324 6.73497 100.624 6.70496 100.984 6.67497C101.344 6.67497 101.704 6.67497 102.124 6.70496C102.514 6.76497 102.904 6.85497 103.324 6.94497C103.714 7.06497 104.044 7.18497 104.344 7.36497C104.824 6.94497 105.394 6.58497 105.994 6.28496C106.594 5.98497 107.194 5.74497 107.824 5.53497C108.424 5.35497 108.994 5.20497 109.594 5.08497C110.134 5.02497 110.674 4.96497 111.154 4.96497C111.424 4.96497 111.724 5.02497 112.054 5.14497C112.354 5.26497 112.654 5.44497 112.954 5.65497C113.194 5.89497 113.434 6.16497 113.614 6.46497C113.764 6.79497 113.824 7.12497 113.824 7.48497C113.794 7.75497 113.764 8.02497 113.704 8.26497C113.644 8.53497 113.554 8.83497 113.494 9.13497C113.404 9.49497 113.314 9.88496 113.224 10.305C113.104 10.785 112.954 11.325 112.834 11.955H112.864C113.434 11.895 113.854 11.955 114.094 12.135C114.304 12.345 114.334 12.675 114.154 13.125C114.064 13.365 113.944 13.545 113.764 13.695C113.554 13.875 113.314 13.995 113.074 14.115C112.804 14.235 112.534 14.355 112.264 14.415C111.964 14.505 111.694 14.565 111.454 14.565C110.674 14.715 109.804 14.775 108.844 14.715C107.854 14.715 106.894 14.625 105.934 14.475C105.874 14.835 105.784 15.105 105.664 15.285C105.514 15.495 105.334 15.585 105.124 15.525C104.584 15.495 104.164 15.315 103.924 14.955C103.624 14.625 103.444 14.265 103.324 13.905C103.174 13.305 103.054 12.645 102.964 11.955C102.844 11.295 102.664 10.665 102.484 10.035C102.244 9.43497 101.974 8.83497 101.614 8.26497C101.254 7.72497 100.744 7.21497 100.144 6.79497ZM105.004 8.14497C105.244 8.74497 105.484 9.49497 105.664 10.365C105.814 11.265 105.904 12.105 105.964 12.885C106.504 12.855 107.104 12.795 107.794 12.705C108.454 12.645 109.144 12.555 109.834 12.435C109.894 12.135 109.984 11.835 110.044 11.595L110.224 10.905C110.254 10.695 110.314 10.485 110.374 10.245C110.404 10.065 110.434 9.82497 110.494 9.52497C110.614 8.77497 110.554 8.20497 110.314 7.84497C110.074 7.51497 109.594 7.33497 108.874 7.33497C108.334 7.33497 107.734 7.39496 107.044 7.51497C106.324 7.66496 105.664 7.87497 105.004 8.14497Z" fill="#030712"/>
<path d="M67.1919 19.485C68.8719 19.845 70.6719 20.025 72.5619 19.965C74.4219 19.965 76.1919 19.845 77.9319 19.635C79.6719 19.455 81.1719 19.215 82.4319 18.975C83.6919 18.735 84.7719 18.525 85.7019 18.285C86.6019 18.105 87.4119 17.925 88.0719 17.775C88.7319 17.655 89.3319 17.565 89.9019 17.565C90.2919 17.565 90.6819 17.625 91.0719 17.745C91.4319 17.865 91.7919 18.015 92.0919 18.195C92.3619 18.375 92.6019 18.585 92.7819 18.795C92.9319 19.035 93.0219 19.275 93.0219 19.455C93.0219 19.875 92.8419 20.205 92.4819 20.475C92.1219 20.775 91.4619 20.895 90.5019 20.895C90.2019 20.895 89.8719 20.895 89.4519 20.835C89.0019 20.835 88.5519 20.805 88.1019 20.805C87.3519 20.805 86.6019 20.835 85.8819 20.865L83.6619 21.045V27.315C83.6619 27.735 83.6019 28.215 83.4819 28.725C83.3319 29.205 83.1219 29.655 82.8819 30.105C82.5819 30.525 82.2519 30.915 81.8619 31.275C81.4419 31.575 80.9619 31.815 80.4219 31.935C80.4819 31.275 80.5419 30.525 80.5719 29.685C80.5719 28.785 80.6019 27.885 80.6019 26.925C80.5719 25.965 80.5419 25.005 80.5419 24.045C80.4819 23.115 80.4519 22.245 80.4219 21.465L77.8119 21.915C76.9419 22.095 76.1319 22.245 75.3519 22.395C74.3319 22.635 73.5219 22.785 72.9219 22.845C72.2919 22.965 71.6919 22.995 71.1519 22.995C70.4919 22.995 69.9819 22.875 69.5619 22.605C69.1119 22.365 68.7519 22.065 68.4819 21.735C68.1819 21.405 67.9119 21.045 67.7319 20.625C67.4919 20.235 67.3119 19.845 67.1919 19.485ZM86.4219 7.15505C86.1219 7.72504 85.6419 8.41504 84.9819 9.22505C84.2919 10.065 83.5419 10.935 82.7019 11.835C83.3319 11.805 84.0519 11.805 84.8319 11.835C85.6119 11.895 86.3319 12.015 87.0519 12.195C87.7119 12.375 88.3119 12.645 88.7919 12.945C89.2419 13.305 89.4819 13.725 89.4819 14.235C89.4819 14.715 89.3919 15.045 89.2119 15.285C88.9719 15.555 88.7019 15.735 88.4019 15.825C88.0419 15.945 87.6819 15.975 87.3219 15.915C86.9019 15.915 86.5419 15.825 86.2119 15.705C85.9719 15.645 85.7319 15.615 85.4319 15.555C85.1019 15.525 84.7719 15.495 84.4119 15.465C84.0519 15.465 83.6619 15.495 83.3019 15.495C82.8819 15.525 82.5219 15.555 82.1919 15.615C82.6419 15.435 83.1519 15.255 83.7219 15.075C84.2619 14.955 84.7719 14.805 85.3119 14.685C84.8919 14.325 84.4119 13.965 83.8119 13.575L82.0419 12.555C81.2919 13.335 80.5719 14.025 79.8519 14.655C79.1319 15.315 78.5019 15.855 77.9619 16.215C77.5119 16.515 77.0019 16.785 76.4319 16.965C75.8319 17.175 75.1719 17.265 74.3919 17.265C73.7019 17.265 73.1019 17.205 72.5619 17.055C72.0219 16.935 71.4819 16.605 70.9719 16.065C71.3319 16.155 71.6619 16.185 72.0219 16.155C72.3519 16.155 72.6819 16.095 72.9819 16.035C73.2519 15.975 73.5219 15.915 73.7619 15.795C73.9719 15.735 74.1519 15.645 74.2719 15.585C74.9019 15.255 75.5919 14.775 76.3719 14.175C77.1219 13.575 77.8719 12.945 78.5919 12.225C79.2819 11.565 79.9119 10.875 80.5119 10.155C81.0819 9.49505 81.5019 8.89504 81.8019 8.38505C81.3219 8.44504 80.8419 8.59504 80.3019 8.83504C79.7619 9.07505 79.2219 9.31504 78.7119 9.52504C78.1719 9.76505 77.6619 9.91505 77.1819 10.035C76.6719 10.155 76.2219 10.125 75.8619 9.88504C75.3819 9.67505 75.0519 9.34505 74.8119 8.92504C74.5419 8.50504 74.3019 7.96505 74.0919 7.30504C74.7519 7.60504 75.5619 7.72504 76.4919 7.66504C77.3919 7.60504 78.3519 7.45504 79.3419 7.18504C80.3019 6.94504 81.2319 6.64504 82.1919 6.28504L84.7419 5.29504C85.3719 5.47505 85.7919 5.71504 86.0019 6.01504C86.1819 6.37504 86.3019 6.73505 86.4219 7.15505Z" fill="#030712"/>
<path d="M60.22 17.6549C60.61 17.4749 61 17.2649 61.39 17.0249C61.75 16.7849 62.11 16.5149 62.41 16.2149C62.71 15.9449 62.95 15.6449 63.16 15.3149C63.34 15.0149 63.43 14.7149 63.49 14.3549C63.82 14.3249 64.18 14.3549 64.54 14.4449C64.87 14.5649 65.2 14.7149 65.5 14.8949C65.77 15.1349 66.01 15.3749 66.19 15.6749C66.37 16.0049 66.46 16.3649 66.46 16.7249C66.46 17.3249 66.25 17.8049 65.83 18.1349C65.41 18.4949 64.87 18.7949 64.27 18.9749C63.64 19.2149 62.98 19.3649 62.26 19.4849C61.51 19.6349 60.82 19.7849 60.22 19.9349V23.6549C60.22 24.7349 60.1 25.6949 59.92 26.5349C59.71 27.3749 59.44 28.1549 59.14 28.8449C58.81 29.5049 58.45 30.0749 58.06 30.5549C57.64 31.0049 57.25 31.3649 56.89 31.6649C56.89 30.8849 56.92 30.1949 56.98 29.5949C56.98 28.9349 57.01 28.3349 57.04 27.7949C57.04 27.2249 57.04 26.6849 57.07 26.1149V24.3749V11.7449C57.07 10.5749 57.04 9.64494 57.01 8.98494C56.95 8.32494 56.86 7.81494 56.74 7.39494C56.56 6.79494 56.29 6.22494 55.93 5.65494C55.57 5.11494 55.06 4.60494 54.43 4.06494C55.36 4.06494 56.2 4.09494 56.92 4.15494C57.64 4.24494 58.24 4.42494 58.75 4.66494C59.23 4.93494 59.59 5.32494 59.86 5.83494C60.1 6.37494 60.22 7.06494 60.22 7.96494V17.6549ZM49.96 17.7149L51.61 18.1349C52.06 18.3149 52.48 18.4649 52.84 18.6149C53.17 18.7949 53.47 18.9749 53.74 19.1549C53.98 19.3649 54.19 19.5749 54.4 19.8149C54.55 19.9949 54.67 20.1449 54.73 20.3249C54.79 20.5349 54.82 20.7449 54.82 20.9249C54.82 21.3749 54.7 21.7649 54.52 22.1249C54.28 22.4849 53.95 22.6649 53.53 22.6649C53.17 22.6649 52.81 22.5749 52.51 22.3349C52.18 22.1249 51.85 21.8549 51.55 21.4949C51.19 21.1949 50.86 20.8049 50.53 20.3849C50.17 19.9949 49.81 19.6049 49.42 19.2149C49.21 19.0649 49.03 18.8849 48.85 18.7049C48.67 18.5549 48.46 18.4049 48.25 18.2249C47.83 18.8549 47.35 19.4249 46.87 19.9649C46.33 20.5349 45.82 21.0149 45.28 21.4049C44.71 21.8249 44.14 22.1549 43.6 22.3949C43 22.6349 42.46 22.7549 41.95 22.7549C41.53 22.7549 41.2 22.7249 40.9 22.6349C40.57 22.5749 40.27 22.4249 40 22.1849C40.51 22.0049 41.05 21.7049 41.65 21.2849C42.19 20.8649 42.76 20.3849 43.3 19.8149C43.84 19.2749 44.35 18.6749 44.83 18.0149C45.31 17.3849 45.73 16.7249 46.12 16.0349C46.48 15.3749 46.75 14.7149 46.99 14.0549C47.17 13.4249 47.29 12.8249 47.29 12.2549C47.29 12.0749 47.26 11.8949 47.2 11.6549C47.11 11.4449 46.99 11.2049 46.87 10.9649C46.69 10.7549 46.51 10.5449 46.3 10.3349C46.06 10.1549 45.76 9.97494 45.46 9.85494C46 9.70494 46.6 9.64494 47.32 9.64494C48.01 9.70494 48.7 9.85494 49.42 10.0949C49.87 10.2749 50.2 10.5749 50.41 10.9349C50.59 11.3549 50.68 11.7749 50.68 12.2249C50.68 12.5249 50.62 12.9149 50.5 13.3649C50.35 13.8449 50.2 14.3249 50.02 14.8049C49.81 15.3149 49.6 15.7949 49.36 16.2749C49.12 16.7849 48.88 17.2349 48.67 17.5949C48.88 17.5949 49.09 17.6249 49.33 17.6249C49.51 17.6549 49.72 17.6849 49.96 17.7149Z" fill="#030712"/>
</g>
<defs>
<clipPath id="clip0_1_509">
<rect width="120.034" height="36" fill="white"/>
</clipPath>
<clipPath id="clip1_1_509">
<rect width="36" height="36" fill="white"/>
</clipPath>
</defs>
</svg>
