<svg width="20" height="20" viewBox="0 0 20 20" fill="none" xmlns="http://www.w3.org/2000/svg">
<path d="M0.99169 14.3417C1.13873 14.7126 1.17147 15.119 1.08569 15.5087L0.0206911 18.7987C-0.0136245 18.9655 -0.00475213 19.1384 0.0464667 19.3008C0.0976856 19.4633 0.189553 19.61 0.313358 19.7269C0.437162 19.8439 0.588799 19.9274 0.75389 19.9693C0.91898 20.0113 1.09205 20.0104 1.25669 19.9667L4.66969 18.9687C5.0374 18.8957 5.41821 18.9276 5.76868 19.0607C7.90407 20.0579 10.323 20.2689 12.5988 19.6564C14.8746 19.0439 16.8609 17.6473 18.2074 15.713C19.5538 13.7788 20.1738 11.4311 19.958 9.08423C19.7421 6.73738 18.7044 4.54216 17.0277 2.88589C15.3511 1.22962 13.1434 0.218732 10.7941 0.0315905C8.44474 -0.155551 6.10482 0.493075 4.18713 1.86303C2.26944 3.23299 0.897221 5.23623 0.312584 7.51932C-0.272053 9.80241 -0.0315396 12.2186 0.99169 14.3417Z" fill="white"/>
</svg>
