<svg width="46" height="46" viewBox="0 0 46 46" fill="none" xmlns="http://www.w3.org/2000/svg">
<g clip-path="url(#clip0_0_4)">
<path d="M22.9924 7.81361C22.7935 7.81361 22.6323 7.65239 22.6323 7.45334C22.6323 7.25429 22.7935 7.09307 22.9924 7.09307C20.846 7.09307 18.7634 7.51369 16.8027 8.3432C14.9092 9.1445 13.2087 10.2914 11.7483 11.7519C10.2882 13.2128 9.14176 14.9139 8.34073 16.808C7.51149 18.7694 7.09101 20.8526 7.09101 22.9998C7.09101 25.147 7.51149 27.2302 8.34073 29.1916C9.14176 31.0857 10.2882 32.7868 11.7483 34.2477C13.2087 35.7082 14.9092 36.8551 16.8027 37.6564C18.7394 38.4757 20.7949 38.8963 22.9138 38.9062C21.2658 38.8906 19.6959 38.3877 18.3681 37.4658C12.2516 35.5047 7.81131 29.7611 7.81131 22.9998C7.81131 14.626 14.6214 7.81361 22.9924 7.81361ZM25.0411 15.2267C25.0411 16.3586 24.1239 17.276 22.9924 17.276C21.861 17.276 20.9438 16.3586 20.9438 15.2267C20.9438 14.0949 21.861 13.1774 22.9924 13.1774C24.1239 13.1774 25.0411 14.0949 25.0411 15.2267ZM37.6442 16.808C36.8431 14.9139 35.6967 13.2128 34.2363 11.7519C32.7762 10.2914 31.0757 9.1445 29.1822 8.3432C27.2215 7.51369 25.1389 7.09307 22.9924 7.09307C22.7935 7.09307 22.6323 7.25429 22.6323 7.45334C22.6323 7.65239 22.7935 7.81361 22.9924 7.81361H22.9954C23.0693 7.81361 23.1431 7.81481 23.2163 7.81691C23.2698 7.81841 23.3229 7.82081 23.376 7.82352C23.701 7.84003 24.0204 7.87786 24.3331 7.9352C24.3835 7.94451 24.4339 7.95411 24.4841 7.96462C24.5108 7.97003 24.5375 7.97573 24.5642 7.98143C24.6944 8.00965 24.8235 8.04118 24.9511 8.0766C25.0231 8.09612 25.0945 8.11683 25.1656 8.13875C25.205 8.15076 25.244 8.16307 25.2827 8.17598C25.3115 8.18528 25.3403 8.19459 25.3688 8.2045C25.5696 8.27265 25.7665 8.34921 25.9589 8.43357C26.0135 8.45759 26.0675 8.48191 26.1212 8.50712C26.1218 8.50742 26.1224 8.50773 26.123 8.50803C26.1768 8.53324 26.2302 8.55906 26.283 8.58518C26.3106 8.59899 26.3379 8.6128 26.3649 8.62661C26.4184 8.65393 26.4712 8.68216 26.5237 8.71068C26.5762 8.7392 26.6281 8.76832 26.6798 8.79804C26.7311 8.82776 26.7818 8.85779 26.8322 8.88841C26.9673 8.97037 27.0996 9.05683 27.2287 9.1475C27.2701 9.17602 27.3112 9.20544 27.352 9.23517C27.4517 9.30812 27.5495 9.38348 27.6456 9.46093C27.6882 9.49546 27.7302 9.53029 27.7719 9.56541C27.7722 9.56571 27.7728 9.56631 27.7731 9.56661C27.8121 9.59934 27.8505 9.63266 27.8887 9.66659C28.2953 10.0251 28.6624 10.4277 28.9826 10.8666C29.0174 10.9143 29.0516 10.9624 29.0852 11.011C29.1093 11.0452 29.1327 11.0797 29.1558 11.1146C29.1972 11.1764 29.2377 11.2389 29.2773 11.3022C29.4058 11.5073 29.5243 11.7192 29.6327 11.9369C29.6591 11.9897 29.6849 12.0432 29.7098 12.0966C29.7098 12.0969 29.7098 12.0972 29.7098 12.0975C29.7584 12.2017 29.8046 12.3067 29.8485 12.4133C29.8527 12.4235 29.8569 12.4334 29.8608 12.4437C29.8899 12.5148 29.9178 12.5866 29.9445 12.6589C29.9502 12.6739 29.9556 12.6892 29.961 12.7042C29.979 12.7532 29.9961 12.8024 30.0129 12.852C30.1039 13.1201 30.1798 13.3951 30.2395 13.6758C30.2554 13.7496 30.2701 13.8241 30.2836 13.8991C30.362 14.33 30.4028 14.7734 30.4028 15.2264C30.4028 19.314 27.0783 22.6395 22.9921 22.6395C20.8202 22.6395 18.7784 23.4856 17.2427 25.0218C15.707 26.558 14.8612 28.6005 14.8612 30.7732C14.8612 32.9459 15.707 34.988 17.2427 36.5243C17.3393 36.6209 17.4378 36.7146 17.5383 36.8059C17.5575 36.8233 17.5767 36.8404 17.5959 36.8575C17.6148 36.8743 17.6334 36.8908 17.6524 36.907C17.674 36.9263 17.6953 36.9449 17.7172 36.9632C17.8931 37.1139 18.0743 37.2562 18.2607 37.3898C18.2802 37.4039 18.2994 37.4177 18.3192 37.4315C18.3354 37.4429 18.3516 37.4543 18.3678 37.4658C19.6956 38.3877 21.2655 38.8906 22.9135 38.9062C22.9396 38.9065 22.966 38.9065 22.9921 38.9065C25.1386 38.9065 27.2212 38.4859 29.1819 37.6564C31.0754 36.8551 32.7759 35.7082 34.236 34.2477C35.6964 32.7868 36.8428 31.0857 37.6439 29.1916C38.4731 27.2302 38.8936 25.147 38.8936 22.9998C38.8936 20.8526 38.4731 18.7694 37.6439 16.808H37.6442ZM22.9924 32.4622C22.0612 32.4622 21.304 31.7045 21.304 30.7732C21.304 29.8419 22.0612 29.0841 22.9924 29.0841C23.9237 29.0841 24.6809 29.8416 24.6809 30.7732C24.6809 31.7048 23.9234 32.4622 22.9924 32.4622ZM1.2092 20.8046C1.19539 20.8046 1.18129 20.8037 1.16718 20.8022C0.969698 20.7793 0.82804 20.6004 0.85085 20.4029C1.14227 17.8888 1.85416 15.4636 2.96642 13.1948C4.04956 10.9852 5.48415 8.97908 7.22997 7.23268C8.97579 5.48628 10.9812 4.05121 13.1901 2.96771C15.4582 1.85508 17.8825 1.14295 20.3958 0.851433C20.5933 0.828316 20.7721 0.970021 20.7949 1.16787C20.8178 1.36542 20.6764 1.54435 20.4786 1.56717C10.501 2.72483 2.72392 10.5048 1.56664 20.4857C1.54533 20.6692 1.38957 20.8046 1.2095 20.8046H1.2092ZM25.5468 45.1512C25.3664 45.1512 25.2107 45.0161 25.1893 44.8323C25.1665 44.6348 25.3079 44.4559 25.5057 44.433C35.4836 43.2751 43.2607 35.4951 44.4179 25.5142C44.4408 25.3166 44.6196 25.1749 44.8171 25.1977C45.0146 25.2206 45.1562 25.3995 45.1334 25.597C44.842 28.1111 44.1301 30.5363 43.0179 32.8051C41.9347 35.0147 40.5001 37.0208 38.7543 38.7672C37.0085 40.5136 35.0031 41.9487 32.7942 43.0322C30.5258 44.1448 28.1017 44.8569 25.5885 45.1485C25.5744 45.15 25.5603 45.1509 25.5465 45.1509L25.5468 45.1512ZM44.7754 20.8046C44.595 20.8046 44.4393 20.6695 44.4182 20.4857C43.261 10.5045 35.4839 2.72483 25.506 1.56686C25.3085 1.54405 25.1668 1.36511 25.1896 1.16757C25.2125 0.970021 25.3913 0.828316 25.5888 0.851133C28.102 1.14265 30.5261 1.85478 32.7945 2.96741C35.0034 4.05091 37.0088 5.48598 38.7546 7.23238C40.5004 8.97878 41.935 10.9849 43.0182 13.1945C44.1304 15.4636 44.8423 17.8885 45.1337 20.4026C45.1565 20.6001 45.0152 20.779 44.8174 20.8019C44.8033 20.8034 44.7892 20.8043 44.7754 20.8043V20.8046ZM20.4378 45.1512C20.424 45.1512 20.4099 45.1503 20.3958 45.1488C17.8825 44.8572 15.4582 44.1451 13.1901 43.0325C10.9812 41.949 8.97579 40.5139 7.22997 38.7675C5.48415 37.0211 4.04956 35.015 2.96642 32.8054C1.85416 30.5363 1.14257 28.1114 0.85085 25.5973C0.82804 25.3998 0.969398 25.2209 1.16718 25.198C1.36496 25.1749 1.54353 25.3166 1.56634 25.5145C2.72362 35.4957 10.5007 43.2754 20.4786 44.4333C20.6761 44.4562 20.8178 44.6351 20.7949 44.8326C20.7736 45.0161 20.6179 45.1515 20.4375 45.1515L20.4378 45.1512ZM24.0537 1.06159C24.0537 1.64793 23.5786 2.12318 22.9924 2.12318C22.4063 2.12318 21.9312 1.64793 21.9312 1.06159C21.9312 0.475253 22.4063 0 22.9924 0C23.5786 0 24.0537 0.475253 24.0537 1.06159ZM24.0537 44.9383C24.0537 45.5246 23.5786 45.9999 22.9924 45.9999C22.4063 45.9999 21.9312 45.5246 21.9312 44.9383C21.9312 44.352 22.4063 43.8767 22.9924 43.8767C23.5786 43.8767 24.0537 44.352 24.0537 44.9383ZM45.9849 23.0001C45.9849 23.5864 45.5095 24.0617 44.9234 24.0617C44.3372 24.0617 43.8621 23.5864 43.8621 23.0001C43.8621 22.4138 44.3375 21.9385 44.9234 21.9385C45.5092 21.9385 45.9849 22.4138 45.9849 23.0001ZM2.12247 23.0001C2.12247 23.5864 1.64738 24.0617 1.06124 24.0617C0.475095 24.0617 0 23.5861 0 23.0001C0 22.4141 0.475095 21.9385 1.06124 21.9385C1.64738 21.9385 2.12247 22.4138 2.12247 23.0001ZM44.9234 24.0767C44.33 24.0767 43.8471 23.5936 43.8471 23.0001C43.8471 22.4066 44.33 21.9235 44.9234 21.9235C45.5167 21.9235 45.9999 22.4066 45.9999 23.0001C45.9999 23.5936 45.517 24.0767 44.9234 24.0767ZM44.9234 21.9535C44.3465 21.9535 43.8771 22.4231 43.8771 23.0001C43.8771 23.5771 44.3465 24.0467 44.9234 24.0467C45.5002 24.0467 45.9699 23.5771 45.9699 23.0001C45.9699 22.4231 45.5005 21.9535 44.9234 21.9535Z" fill="#8259F5"/>
</g>
<defs>
<clipPath id="clip0_0_4">
<rect width="45.5878" height="45.5878" fill="white" transform="scale(1.00904)"/>
</clipPath>
</defs>
</svg>
