<svg width="30" height="30" viewBox="0 0 30 30" fill="none" xmlns="http://www.w3.org/2000/svg">
<path d="M15.9165 23.25H23.2498" stroke="#030712" stroke-width="1.4" stroke-linecap="round" stroke-linejoin="round"/>
<path d="M17.75 8.58337L21.4167 12.25" stroke="#030712" stroke-width="1.4" stroke-linecap="round" stroke-linejoin="round"/>
<path d="M23.4096 10.2444C23.8943 9.75983 24.1666 9.10262 24.1667 8.41731C24.1667 7.73199 23.8946 7.07472 23.4101 6.59007C22.9255 6.10542 22.2683 5.83309 21.583 5.83301C20.8977 5.83292 20.2404 6.10508 19.7558 6.58961L7.52194 18.8262C7.3091 19.0384 7.15171 19.2997 7.0636 19.587L5.85269 23.5764C5.829 23.6556 5.82721 23.7398 5.84751 23.8201C5.86781 23.9003 5.90945 23.9735 5.968 24.0319C6.02655 24.0904 6.09984 24.1319 6.18008 24.1521C6.26032 24.1723 6.34453 24.1703 6.42377 24.1465L10.414 22.9365C10.7011 22.8492 10.9623 22.6928 11.1749 22.4809L23.4096 10.2444Z" stroke="#030712" stroke-width="1.4" stroke-linecap="round" stroke-linejoin="round"/>
</svg>
