<svg width="90" height="38" viewBox="0 0 90 38" fill="none" xmlns="http://www.w3.org/2000/svg">
<g clip-path="url(#clip0_113_6950)">
<g clip-path="url(#clip1_113_6950)">
<path d="M41.0214 13.2929C40.9917 13.1618 40.8967 13.0084 40.9529 12.8828C41.0565 13.1787 41.4447 13.2997 41.7319 13.3815C42.3982 13.5715 43.1193 13.5655 43.8061 13.6121C43.7965 13.7651 43.8262 13.9304 43.7956 14.0811C43.7088 14.5071 43.322 14.4866 43.7019 15.0629C43.7472 15.1314 43.8417 15.1638 43.8458 15.1716C43.8613 15.2003 43.8102 15.288 43.8175 15.3565C43.8367 15.5328 43.928 15.5611 43.944 15.71C43.9805 15.7072 44.0714 15.7196 44.0796 15.7113C44.1011 15.6903 44.17 15.2163 44.2056 15.1296C44.281 14.9469 44.6513 14.8273 44.6746 14.6857C44.6892 14.5976 44.3659 14.5071 44.3298 14.3893C44.1559 14.2642 44.0965 13.6715 44.2353 13.5628C44.3463 13.4756 44.7107 13.5377 44.8783 13.5212C45.3075 13.4783 45.814 13.3993 46.2241 13.2701C46.4291 13.2052 46.6136 12.9897 46.8177 13.1111C46.9036 13.1623 47.0173 13.8249 47.0543 13.9349C47.1492 14.214 47.2803 14.4797 47.4109 14.7441C48.4434 16.837 49.9832 18.7568 50.76 20.9629C52.0551 24.6399 50.6244 28.4324 46.994 29.9581C45.0797 30.7627 41.9625 31.0047 39.9601 30.5239C39.5811 30.433 38.6134 30.0786 38.5545 29.6476C38.4819 29.1142 38.9386 28.8027 39.4071 28.6589C39.9898 28.4799 40.599 28.5292 41.1958 28.5712C41.383 28.5845 42.4183 28.5224 42.5279 28.6648L42.3201 28.394C40.7666 27.3428 39.735 25.3016 40.2679 23.4188C40.6492 22.0712 41.7561 21.0953 42.1493 19.7797C42.6772 18.0124 41.4319 15.099 41.0223 13.2943L41.0214 13.2929Z" fill="#99A1AF"/>
<path d="M22.3949 16.7812C23.4502 16.5739 24.506 16.3666 25.5614 16.1593C25.8892 16.0949 26.2596 16.0387 26.5313 16.2328C26.8523 16.462 26.8743 16.9616 26.671 17.3C26.4678 17.6384 26.1034 17.8439 25.7399 17.9978C25.0801 18.2777 24.369 18.4353 23.653 18.4663C23.2936 18.4818 22.937 18.4613 22.5803 18.417C22.0807 18.3549 22.1095 18.4115 22.0342 18.9262C21.6209 21.7579 21.125 24.633 19.9048 27.2884C19.7874 27.5437 19.4107 28.3337 19.1344 28.3885C18.775 28.4602 18.5458 28.1561 18.5613 27.82C18.5663 27.7104 18.6385 27.6401 18.6535 27.5437C18.7586 26.8729 18.8243 26.1842 19.0189 25.5372C19.0216 25.0353 19.2298 24.5572 19.2746 24.0571C19.2604 24.0302 18.8732 23.8316 18.801 23.7978C18.4124 23.6146 17.9695 23.469 17.5987 23.3132C17.4101 23.2342 16.5031 22.91 16.4648 22.7566C16.4388 22.6534 16.694 22.6027 16.763 22.6045C17.1237 22.6155 18.2795 23.0667 18.6992 23.2151C18.823 23.2589 19.3636 23.5297 19.4317 23.4639C19.4029 23.1151 19.5824 22.8191 19.523 22.4607C19.4746 22.4556 19.412 22.4725 19.3682 22.4575C18.7051 22.2328 18.0106 22.1725 17.3448 22.0145C17.2315 21.9876 16.9324 22.036 16.9749 21.8054C17.0173 21.5748 17.6699 21.6241 17.8562 21.6396C18.0836 21.6588 18.4316 21.7136 18.6576 21.7506C18.954 21.7994 19.2486 21.8867 19.5404 21.9552C19.7422 21.6588 19.707 21.2921 19.7057 20.9542C19.2641 20.993 18.743 20.903 18.312 20.9528C18.0284 20.9857 17.6471 21.109 17.3571 21.1391C17.2603 21.1492 16.8858 21.1542 16.8137 21.13C16.463 21.0144 17.0662 20.7505 17.1626 20.7162C17.6274 20.5519 18.1065 20.5473 18.5864 20.4971C18.991 20.455 19.3769 20.3578 19.7965 20.4066C19.7258 20.1235 19.8696 19.8495 19.8879 19.6084C20.1902 15.6716 20.5578 11.5681 20.361 7.62027C20.2582 5.56304 20.0888 3.60033 19.3687 1.64767C19.2394 1.62712 19.1303 1.73764 19.0485 1.83993C17.9868 3.17656 17.421 4.83513 16.9676 6.48092C16.937 6.5928 16.9018 6.71199 16.8114 6.78459C16.6525 6.91291 16.3958 6.8193 16.2871 6.64668C16.1785 6.47407 16.1789 6.25579 16.1944 6.05212C16.2629 5.14931 16.5547 4.27847 16.8845 3.43502C17.305 2.35914 17.8037 1.2892 18.5882 0.441189C19.8573 -0.579436 20.6478 0.317436 21.1606 1.54127C21.7026 2.86375 22.0278 4.26933 22.2529 5.67949C22.6379 8.1678 22.721 10.6954 22.6433 13.2061C22.5945 14.3514 22.6319 15.7273 22.3794 16.7812L22.3935 16.7785L22.3949 16.7812Z" fill="#99A1AF"/>
<path d="M88.7447 26.3185C88.0734 27.1305 87.009 27.9675 86.081 28.4685C83.6192 29.7978 79.8911 30.0257 77.1507 29.7106C74.366 29.3905 69.7588 28.115 69.8204 24.5796C69.83 24.0449 69.9794 23.3864 70.6278 23.3439C71.4 23.2932 71.3904 23.7841 71.4758 24.3435C71.8124 26.5514 73.8006 27.3675 75.8136 27.7625C78.559 28.3013 82.1931 28.1516 84.7083 26.788C85.9413 26.1199 87.2163 25.0847 87.283 23.5699C87.2989 23.2069 87.2391 22.826 87.024 22.5329C86.7249 22.1251 86.2719 22.1214 85.8171 22.1844C85.6605 22.2064 85.4636 22.3196 85.2664 22.3192C84.7677 22.3182 84.6293 21.6342 84.7024 21.2529C84.7225 21.1492 84.9554 20.8948 85.0449 20.82C85.9518 20.0596 87.3848 20.0537 88.3995 20.5665C90.7791 21.7689 90.1672 24.597 88.7443 26.3185H88.7447Z" fill="#99A1AF"/>
<path d="M40.9451 11.5074C40.5843 10.7717 40.1405 9.83696 40.3414 9.03234C40.366 8.84282 40.5743 8.44462 40.5651 8.3026C40.556 8.16058 40.3304 7.79845 40.2701 7.63634C40.1103 7.20754 39.8436 6.44903 39.792 6.01613C39.7756 5.87593 39.7642 5.42019 39.7907 5.29826C39.803 5.24118 40.0057 5.07633 40.1199 5.0914C40.2505 5.10875 40.9095 5.36265 41.0615 5.43161C41.5438 5.64989 41.9913 6.06088 42.4607 6.31569C42.5776 6.37917 42.9608 6.1449 43.0927 6.11522C43.5467 6.01339 44.0942 5.9732 44.5572 6.04352C44.8011 6.08051 45.1728 6.28921 45.4176 6.21431C45.7514 6.01065 46.024 5.65445 46.3386 5.44759C46.5948 5.27954 47.5584 4.75165 47.7981 5.17725C48.2132 5.91475 47.5917 7.15046 47.3387 7.86147C47.2451 8.12405 47.1414 8.19848 47.1921 8.4775C47.2255 8.66199 47.3757 8.91132 47.3949 9.16157C47.4479 9.84427 47.2583 11.038 46.6816 11.5147C46.6652 11.5284 46.6492 11.5435 46.6359 11.5604C46.5651 11.6503 46.5875 11.7239 46.5903 11.8339C46.314 11.801 46.4606 11.9202 46.3364 12.0129C46.1368 12.1618 45.2363 12.3646 44.9554 12.4125C43.7745 12.6134 42.4726 12.5933 41.373 12.0709C41.3127 12.0422 41.252 12.0116 41.2031 11.9659C41.1392 11.9065 41.0999 11.8262 41.0615 11.7476C41.0241 11.6704 40.9848 11.5905 40.9446 11.5083L40.9451 11.5074Z" fill="#99A1AF"/>
<path d="M38.9393 20.8825C37.5666 21.5428 36.2879 21.8415 34.7938 22.0981C34.6568 22.1219 34.5294 22.2369 34.3581 22.1872L34.834 22.6461C34.9372 22.7863 35.0646 23.1366 35.0856 23.3069C35.2824 24.896 34.3791 28.2694 33.6142 29.7224C33.4571 30.0206 33.2014 30.4339 32.9201 30.6252C32.4826 30.923 31.9926 30.5746 31.8474 30.1307C31.6803 29.6197 32.0182 28.9662 32.142 28.4584C32.395 27.4223 32.5918 26.3729 32.7324 25.3162C32.8507 24.4252 32.774 23.4763 33.021 22.6082C33.0352 22.5589 33.0388 22.5118 33.0329 22.4612C32.6447 22.5904 32.2319 22.5954 31.8282 22.6479C30.2391 22.8553 27.9458 23.0945 26.4196 22.5246C26.1178 22.4118 25.6757 22.0616 25.6812 21.7072C25.6849 21.4848 25.9835 21.1314 26.2128 21.0953C26.9772 20.9747 28.1659 21.1291 28.9956 21.0939C30.935 21.0126 32.8694 20.7642 34.7632 20.3354C35.7094 20.1208 36.646 19.861 37.5661 19.5527C38.3593 19.2869 39.09 18.8641 39.8805 18.607C40.6915 18.343 41.0632 18.9755 40.6563 19.6559C40.3376 20.1888 39.4818 20.6213 38.9388 20.8825H38.9393Z" fill="#99A1AF"/>
<path d="M11.9958 18.306C12.7369 18.6407 13.4589 19.0271 14.1443 19.4673C14.7941 19.8847 16.1883 20.8569 16.4856 21.5519C16.6326 21.8958 16.6011 22.1899 16.392 22.5008C16.0577 22.9986 15.0586 22.6369 14.617 22.4154C13.3141 21.7624 12.352 20.5103 11.6377 19.2805C11.6154 19.2421 11.651 19.2047 11.5601 19.2225C11.2131 19.802 10.8998 20.408 10.5249 20.9706C9.86364 21.962 9.10148 22.8867 8.25301 23.7233C7.56072 24.4065 6.59626 25.4581 5.61354 25.6865C5.32904 25.7527 4.4751 25.7805 4.42258 25.3919C4.38011 25.0777 5.35873 24.2055 5.58112 23.9667C5.5939 23.8868 5.98206 23.5616 5.9227 23.51C5.85465 23.4511 5.80579 23.5388 5.77291 23.5671C5.39252 23.8923 4.21526 24.7499 3.75267 24.8298C3.59284 24.8576 3.35264 24.8595 3.41977 24.6362C3.46223 24.496 3.60106 24.5439 3.67184 24.4978C4.17416 24.1713 4.64771 23.7987 5.15962 23.4872C5.68204 23.1689 6.25971 22.9301 6.70312 22.4972C7.81005 21.4167 8.72108 19.8609 9.47365 18.5211C10.3271 17.0027 11.0057 15.3916 11.5482 13.7376C11.8985 13.3179 12.1844 13.1636 12.7027 13.428C13.647 13.9093 13.3287 15.0564 13.0726 15.8538C12.7995 16.7031 12.3931 17.5114 11.9962 18.306H11.9958ZM9.22797 21.7501C9.88921 21.1199 9.20879 20.4221 8.59322 20.8651C8.06076 21.2482 8.43659 22.162 9.0243 21.9337C9.0928 21.9072 9.17409 21.8017 9.22797 21.7501Z" fill="#99A1AF"/>
<path d="M35.2809 14.625C35.1357 14.8825 35.5028 14.7738 35.6563 14.8003C36.2449 14.9035 37.6856 15.6561 38.1245 16.0739C38.5633 16.4918 38.9017 17.074 38.2615 17.49C37.5002 17.985 36.2906 17.1096 35.7056 16.621C35.5572 16.4968 34.6466 15.5986 34.5644 15.6186C34.0388 16.1598 33.5068 16.7877 32.9433 17.2841C32.2953 17.8549 30.4467 19.2386 29.6206 19.2545C29.3499 19.2596 28.7525 19.0596 28.8439 18.7088C28.8498 18.686 29.0101 18.4335 29.0306 18.4143C29.6791 17.812 30.5714 17.2649 31.2541 16.6452C32.5136 15.5017 33.6123 14.0697 34.358 12.5403C34.389 12.3695 34.0657 12.5531 34.0123 12.5604C33.0351 12.6919 32.0017 12.9413 31.0025 12.9184C30.5011 12.907 29.9033 12.6582 29.8019 12.1175C29.6051 11.0694 31.8889 10.8955 32.5003 10.8265C33.589 10.7037 35.5791 10.3228 36.2919 11.4279C36.9513 12.4504 36.06 13.7413 35.4065 14.5487C35.3727 14.5907 35.2909 14.6062 35.28 14.625H35.2809Z" fill="#99A1AF"/>
<path d="M58.9184 24.7842C59.0568 24.7961 59.207 24.8586 59.2865 24.9792C59.439 25.2103 59.3075 25.5423 59.08 25.7007C58.412 26.167 57.463 26.0423 56.7337 26.3779C55.5638 26.9163 56.0072 28.1904 57.1799 28.3886C58.6284 28.6334 60.3719 28.0772 61.7063 27.5543C61.9794 27.4474 62.7493 27.0004 62.9516 26.9743C63.474 26.9067 63.3799 27.3666 63.1625 27.6589C62.8319 28.1041 62.2118 28.4681 61.7451 28.7521C60.023 29.8019 56.9228 30.7395 55.1501 29.301C54.3916 28.6859 54.2189 27.7753 54.6674 26.9058C54.7103 26.8223 54.9332 26.5629 54.9377 26.5364C54.9532 26.4451 54.7099 26.2218 54.8564 25.8633C55.1364 25.1778 56.0647 25.0226 56.7109 24.8888C56.994 24.8303 57.1959 24.9208 57.4776 24.6974C57.7818 24.4563 58.2549 23.4713 58.1033 23.1115C58.0307 22.9393 57.7037 22.9247 57.5292 22.9343C57.3548 22.9439 57.2379 23.0325 57.1082 23.0517C56.7666 23.1023 56.3264 23.2005 56.0118 23.233C55.5181 23.2841 54.9775 23.2439 54.6697 22.8028C54.3112 22.29 54.7587 22.0064 55.1989 21.8278C56.0816 21.4698 57.769 21.1629 58.6965 21.3789C58.9266 21.4324 59.4262 21.7671 59.576 21.9593C60.1769 22.7311 59.6938 23.6832 59.1864 24.3536C59.0641 24.5148 58.8882 24.5696 58.9184 24.7851V24.7842Z" fill="#99A1AF"/>
<path d="M58.6857 15.0259C58.6857 15.0259 59.4286 14.8876 59.4286 14.8871C59.8574 14.6707 60.3931 14.4099 60.8863 14.4259C61.1137 14.4332 61.3502 14.5259 61.4772 14.715C61.5959 14.8917 61.6005 15.1305 61.5192 15.3273C61.179 16.1521 59.7944 16.3279 59.0396 16.4977C57.8153 16.7731 54.8219 17.3247 53.6547 17.0192C53.2624 16.9165 52.9021 16.5525 53.0501 16.1224C53.2071 15.6657 53.9657 15.7881 54.326 15.7561C54.547 15.7365 54.7771 15.6013 55.0329 15.6643C54.9461 15.4607 54.8146 15.2803 54.7379 15.0702C54.4986 14.419 54.2228 12.7395 54.668 12.175C54.7374 12.0869 55.0045 11.9125 55.1119 11.8896C56.2037 11.6581 56.0307 13.5076 56.0357 14.1387C56.0393 14.5967 56.095 14.941 56.0005 15.4232C56.0005 15.4241 56.0005 15.4246 56.0005 15.4255C56.1261 15.3155 56.6252 15.3419 56.7873 15.3205C57.2435 15.2611 57.3504 15.236 57.4856 14.7624C57.7002 14.0103 57.8098 13.2071 57.9527 12.4467C57.9929 12.2335 57.9262 12.1577 58.0746 11.9298C58.424 11.3932 59.0364 11.6051 59.3688 12.0394C59.7255 12.5052 59.5556 13.3952 59.3177 13.9017L58.6857 15.0259Z" fill="#99A1AF"/>
<path d="M63.2335 18.8417C63.0413 19.0677 62.7317 19.0746 62.4641 19.1444C60.2849 19.713 57.9865 20.0299 55.7457 20.276C54.6256 20.3993 53.2323 20.6112 52.1245 20.3728C51.8655 20.3171 51.6509 20.303 51.4262 20.113C51.3582 20.0555 51.1084 19.7235 51.1084 19.6554C51.1089 19.5285 51.3623 19.2691 51.4788 19.2047C51.8066 19.0234 52.0304 19.1211 52.361 19.0828C54.6411 18.8179 56.9636 18.4074 59.2077 18.0338C60.1173 17.8822 62.1759 17.3644 63.0006 17.8055C63.3819 18.0096 63.5258 18.4978 63.2335 18.8412V18.8417Z" fill="#99A1AF"/>
<path d="M6.42446 5.26528C6.45323 5.55571 6.39752 5.86487 6.39569 6.14708C6.38884 7.49193 6.61169 8.82034 6.89116 10.1122C6.95235 10.3963 7.29302 11.0639 6.92541 11.2164C6.65462 11.3288 6.50575 11.1283 6.36738 10.9095C5.51115 9.55601 5.10199 6.72612 5.23807 5.15203C5.26821 4.80405 5.39242 4.30265 5.64678 4.05514C6.05503 3.65739 6.61489 3.88207 7.05739 4.10902C8.20496 4.6972 9.47857 6.02926 10.1677 7.11245C10.3668 7.42526 10.9285 8.23856 10.3823 8.471C10.038 8.61804 9.67905 8.11801 9.48314 7.88739C8.72692 6.99646 8.00997 6.0836 6.96697 5.4758C6.88477 5.42785 6.47698 5.21459 6.42446 5.26528Z" fill="#99A1AF"/>
<path d="M59.9098 9.29077C60.2783 9.29077 61.0953 9.51499 61.1524 9.93831C61.1866 10.1936 61.1857 10.3886 60.9884 10.5548C60.7619 10.7461 60.04 10.8288 59.7221 10.8859C58.2613 11.1489 56.7913 11.306 55.2848 11.4234C54.798 11.4613 54.3441 11.5699 53.8235 11.5147C53.228 11.4517 52.5714 10.8429 53.1148 10.3041C53.6628 9.76113 54.94 9.88716 55.652 9.78898C57.0562 9.5949 58.4883 9.29032 59.9089 9.29077H59.9098Z" fill="#99A1AF"/>
<path d="M46.59 11.8334C46.7421 11.8517 46.9805 12.3832 46.9996 12.5444C47.0275 12.7778 46.8485 12.9404 46.8179 13.1102C46.611 12.9869 46.2452 13.2614 46.0315 13.3208C45.631 13.4322 45.2 13.5171 44.7826 13.5231C44.5401 13.5263 44.1757 13.4354 44.1565 13.7879C44.1369 14.1437 44.3108 14.3213 44.4862 14.5884C44.6068 14.772 44.6698 14.7355 44.3967 14.9291C44.0939 15.1433 44.2752 15.5031 44.0789 15.7104C44.0181 15.7744 43.5149 14.7446 43.5501 14.5651C43.5839 14.3916 43.7574 14.2647 43.7948 14.0806C43.8254 13.9299 43.7957 13.7646 43.8053 13.6116C43.8026 13.6537 41.1631 13.4842 40.9521 12.8824C40.896 13.0084 40.991 13.1618 41.0206 13.2924C40.9211 13.3303 40.8567 13.0746 40.8489 13.0308C40.8147 12.8385 40.7887 12.3248 40.8617 12.1531C40.8951 12.075 41.0923 11.9613 41.112 11.9243C42.1879 12.5833 43.7341 12.6193 44.9543 12.4116C45.2351 12.3636 46.1352 12.1609 46.3352 12.012C46.4594 11.9193 46.3128 11.8001 46.5891 11.833L46.59 11.8334Z" fill="#99A1AF"/>
<path d="M2.54038 14.3998C2.63673 14.5414 2.76733 14.6679 2.9573 14.7679C3.34957 14.9743 3.85554 14.9619 4.17886 15.2652C3.63133 15.2419 3.07238 15.4515 2.69655 15.8501C2.28967 16.2817 2.12436 16.8808 1.97275 17.4544C1.86818 16.9237 1.72981 16.3817 1.40559 15.9488C1.08136 15.5159 0.528351 15.214 0 15.3314C0.134713 15.1515 0.376284 15.0999 0.588173 15.024C0.975873 14.8852 1.30741 14.614 1.54121 14.2779C1.73392 14.0007 1.79968 13.2801 2.00289 13.1362C2.26684 13.5303 2.28145 14.0208 2.53992 14.4003L2.54038 14.3998Z" fill="#99A1AF"/>
<path d="M17.7368 6.22617C17.6505 6.13941 17.6678 5.99556 17.7012 5.79281C17.771 5.36355 18.1258 4.41005 18.3359 4.00957C18.3765 3.93239 18.6807 3.47026 18.7231 3.43829C18.9725 3.24832 19.3008 4.29178 19.3803 4.47718C19.567 4.91146 19.8278 5.42155 19.8146 5.9056C19.805 6.25814 19.6776 6.29741 19.3565 6.29285C18.9104 6.286 18.3615 6.38874 17.9277 6.31065C17.8372 6.29422 17.7765 6.26636 17.7372 6.22709L17.7368 6.22617Z" fill="#99A1AF"/>
<path d="M8.08689 7.25321C8.33257 7.56373 8.57643 7.93408 8.69105 8.31402C8.77599 8.59486 8.84585 8.8104 8.69059 9.08166C8.65086 9.15061 8.02616 9.78765 7.95538 9.82875C7.84898 9.89039 7.78093 9.91642 7.71335 9.79313C7.6686 9.71184 7.56768 9.43374 7.53525 9.33236C7.264 8.47978 7.19413 7.50619 7.42885 6.63398C7.49963 6.62028 7.53434 6.64129 7.59051 6.67736C7.66768 6.72668 8.00332 7.14772 8.08689 7.25321Z" fill="#99A1AF"/>
<path d="M86.8193 19.4865C86.7179 19.4851 86.6307 19.4792 86.5932 19.4787C86.379 19.4737 85.8069 19.534 85.6904 19.3189C85.5525 19.065 85.5721 18.775 85.6822 18.5156C85.8292 18.169 86.3343 17.9549 86.6932 18.0215C87.3115 18.1494 87.3924 18.8042 87.3303 19.3394C87.3147 19.471 87.0348 19.4892 86.8197 19.4865H86.8193Z" fill="#99A1AF"/>
<path d="M6.50951 21.3602C6.42137 21.5017 6.11039 21.3442 6.02637 21.3305C4.97012 21.1615 3.9358 21.0264 2.88275 20.8688C2.69369 20.8405 2.49961 20.9204 2.33933 20.7734C2.11785 20.5697 2.66858 20.4669 2.84211 20.4633C3.24214 20.4537 3.88876 20.5528 4.29473 20.6081C4.82125 20.6798 5.86928 20.8254 6.32959 21.0282C6.45151 21.0816 6.59536 21.2227 6.50997 21.3602H6.50951Z" fill="#99A1AF"/>
<path d="M6.28762 22.0502C6.27118 22.5297 5.8401 22.4173 5.53688 22.463C5.0921 22.5306 4.48429 22.6365 4.03951 22.7457C3.71756 22.8247 3.0545 23.1484 2.77411 23.0297C2.58917 22.9516 2.61428 22.816 2.78644 22.7247C3.44403 22.3767 4.39433 22.2548 5.11447 22.1324C5.17384 22.1223 5.24782 22.0502 5.2606 22.0502H6.28762Z" fill="#99A1AF"/>
<path d="M85.4475 17.6042C85.3648 17.57 85.2639 17.4535 85.2201 17.3818C85.0698 17.1352 85.1369 16.7535 85.3644 16.5772C85.7817 16.2534 86.3434 16.5804 86.3398 17.096C86.3375 17.3896 86.2293 17.5622 85.9261 17.6111C85.8014 17.6312 85.674 17.6257 85.5475 17.6202C85.5183 17.6188 85.489 17.6175 85.4612 17.6088C85.4566 17.6074 85.452 17.6056 85.4475 17.6038V17.6042Z" fill="#99A1AF"/>
<path d="M86.6478 16.7329C86.7939 16.3918 87.3118 16.2758 87.5954 16.5818C87.8534 16.8608 87.7424 17.3937 87.3711 17.533C86.9684 17.6841 86.6272 17.3489 86.6094 16.953C86.6058 16.8722 86.6204 16.7982 86.6483 16.7329H86.6478Z" fill="#99A1AF"/>
<path d="M88.3749 17.6955C88.5776 17.7694 88.7731 17.9873 88.7964 18.1941C88.8229 18.4334 88.5571 18.8362 88.3018 18.8723C88.1301 18.8965 87.8662 18.6937 87.7433 18.5923C87.7182 18.5713 87.6931 18.5489 87.6789 18.5197C87.6639 18.4878 87.6634 18.4512 87.663 18.4156C87.6625 18.3284 87.662 18.2416 87.6611 18.1544C87.6611 18.1197 87.6611 18.0845 87.6703 18.0516C87.6808 18.0165 87.7013 17.9854 87.7242 17.9567C87.8141 17.843 87.9388 17.7589 88.0762 17.7137C88.1397 17.6927 88.2338 17.663 88.3018 17.6758C88.326 17.6804 88.3507 17.6872 88.3749 17.6959V17.6955Z" fill="#99A1AF"/>
<path d="M85.2943 18.6147C85.0879 18.9869 84.5225 18.9869 84.3111 18.6184C84.0572 18.2056 84.4312 17.6877 84.9006 17.7736C85.2733 17.8275 85.4902 18.2832 85.2988 18.607L85.2943 18.6147Z" fill="#99A1AF"/>
<path d="M79.4507 12.0909C79.4 11.553 79.1927 10.8105 78.5863 10.6703C78.0296 10.5415 77.8935 10.9045 77.6574 11.3274C77.6287 11.3785 77.5999 11.4306 77.5848 11.4872C77.5679 11.5516 77.5693 11.6197 77.5711 11.6863C77.5971 12.6631 77.6273 13.639 77.6273 14.6158V14.6614C77.6277 14.8007 77.6455 14.9889 77.6273 15.1176C77.4903 15.1049 77.5213 15.2021 77.4903 15.2546C77.4624 15.3021 77.4633 15.3496 77.4117 15.393C76.9323 15.7985 75.5162 16.5726 74.9202 16.8141C74.8631 16.8374 74.817 16.8644 74.7517 16.8507C74.8796 16.6114 74.854 16.389 74.8919 16.1474C75.044 15.182 75.1673 14.2906 74.9819 13.3139C74.9211 12.9937 74.9517 12.8645 74.7252 12.5668C74.4097 12.1521 73.6347 11.9188 73.3338 12.4471C73.3164 12.4777 73.2069 12.7846 73.2018 12.817C73.1137 13.3833 73.2228 14.2555 73.2014 14.8688C73.1685 15.799 73.1356 16.9698 73.0141 17.8745C72.952 18.3371 72.4913 18.7645 72.1511 19.0645C71.0432 20.0395 69.0778 21.0971 67.5612 20.9117C66.5369 20.7866 66.6073 19.3938 67.2196 18.8348C67.5608 18.5234 68.5129 18.3101 68.9883 18.1845C69.2043 18.1275 69.3709 18.1585 69.618 18.0389C70.0701 17.8197 70.1564 17.2968 69.7102 17.031C69.6322 16.9845 69.4641 17.0141 69.5025 16.9201C69.5769 16.8415 69.6591 16.7726 69.723 16.6844C69.9386 16.3867 70.2902 15.9337 70.3943 15.5761C70.6998 14.529 69.9956 13.3266 68.8873 13.2006C68.2882 13.1326 66.815 13.2399 66.2415 13.3874C65.6611 13.5367 64.8934 13.9408 65.3473 14.6404C65.6067 15.04 66.1127 15.1154 66.5525 15.0665C67.0744 15.0085 67.9626 14.6368 68.464 14.7642C68.7325 14.8322 68.7613 15.135 68.7627 15.3688C68.7654 15.8241 68.4174 16.9392 67.9498 17.1018C67.6434 17.2082 67.1333 17.232 66.7977 17.3187C66.1858 17.4776 65.4624 17.7525 65.5743 18.5184C65.5921 18.6407 65.6866 18.6965 65.662 18.8239C65.636 18.9581 65.2994 19.3696 65.225 19.5783C64.8035 20.7569 65.4775 22.1433 66.6981 22.4579C68.733 22.9826 70.9596 21.1989 72.3136 19.8874C72.4223 19.7824 72.8191 19.2842 72.8575 19.2686C73.0141 19.2056 72.8511 19.4974 72.8447 19.5299C72.7717 19.9157 72.5442 21.0697 72.6068 21.3884C72.615 21.4309 72.8009 21.7318 72.8356 21.7529C73.2616 22.0077 73.4726 21.6213 73.6567 21.2994C74.09 20.5423 74.2343 19.607 74.4745 18.7873L74.6138 17.7635C75.4221 17.9439 76.2226 17.5808 76.8651 17.1173C76.9332 17.068 77.3939 16.6173 77.4432 16.6694C77.2629 18.0663 76.9889 19.4746 76.7007 20.83C76.6035 21.2884 76.4473 21.7643 76.3591 22.2218C76.2906 22.5771 76.2144 22.8575 76.3623 23.2C76.5715 23.6841 76.9455 23.3562 77.1409 23.0484C77.8497 21.9291 78.3844 20.0408 78.6885 18.7567C79.1543 16.7904 79.6411 14.1308 79.4498 12.0918L79.4507 12.0909Z" fill="#99A1AF"/>
<path d="M46.6357 11.5598C46.649 11.5429 46.665 11.5279 46.6814 11.5142C46.6686 11.5315 46.6513 11.5452 46.6357 11.5598Z" fill="#99A1AF"/>
<path d="M9.22767 21.7502C9.17378 21.8018 9.09249 21.9073 9.024 21.9337C8.43628 22.1621 8.06045 21.2478 8.59291 20.8652C9.20849 20.4222 9.8889 21.12 9.22767 21.7502Z" fill="#99A1AF"/>
<path d="M25.3442 36.0795C25.3442 36.2247 25.3173 36.3508 25.2639 36.4581C25.2104 36.5654 25.1355 36.6535 25.0392 36.7234C24.9428 36.7933 24.8282 36.8453 24.6953 36.8791C24.5624 36.9129 24.4172 36.9298 24.2601 36.9298C24.1204 36.9298 23.9857 36.9216 23.8551 36.9056C23.7245 36.8896 23.5962 36.8622 23.4688 36.8243V36.3297C23.5313 36.3517 23.5962 36.3718 23.6642 36.3909C23.7318 36.4101 23.8003 36.4266 23.8688 36.4407C23.9373 36.4549 24.0053 36.4663 24.0734 36.4745C24.1409 36.4827 24.2072 36.4868 24.2706 36.4868C24.3656 36.4868 24.4465 36.4786 24.5127 36.4626C24.5789 36.4462 24.6332 36.4238 24.6752 36.3955C24.7172 36.3672 24.7478 36.3329 24.7666 36.2937C24.7857 36.2544 24.7949 36.211 24.7949 36.1635C24.7949 36.0982 24.7762 36.0439 24.7387 35.9996C24.7013 35.9553 24.6524 35.9165 24.5912 35.8827C24.53 35.8489 24.4606 35.8183 24.3825 35.7913C24.3044 35.7644 24.225 35.7352 24.1446 35.7037C24.0638 35.6726 23.9848 35.6375 23.9067 35.5977C23.8286 35.5585 23.7592 35.5096 23.698 35.4511C23.6368 35.3927 23.5879 35.3233 23.5505 35.2424C23.513 35.1616 23.4943 35.0644 23.4943 34.9506C23.4943 34.8461 23.5135 34.747 23.5514 34.6538C23.5893 34.5602 23.6491 34.4785 23.7304 34.4086C23.8117 34.3387 23.9163 34.283 24.0437 34.2419C24.1711 34.2004 24.325 34.1798 24.5054 34.1798C24.5583 34.1798 24.6136 34.1821 24.6711 34.1871C24.7287 34.1917 24.7857 34.1981 24.8419 34.2054C24.8981 34.2127 24.9524 34.2218 25.0045 34.2319C25.0565 34.2419 25.1045 34.2524 25.1479 34.2634V34.7209C25.1045 34.7045 25.057 34.6899 25.0054 34.6762C24.9538 34.6625 24.9008 34.6506 24.8456 34.6406C24.7903 34.6305 24.7355 34.6228 24.6798 34.6173C24.6241 34.6118 24.5711 34.6091 24.5213 34.6091C24.4332 34.6091 24.3588 34.6164 24.2976 34.6305C24.2364 34.6447 24.1862 34.6643 24.1469 34.6894C24.1076 34.7146 24.0788 34.7451 24.0615 34.7821C24.0437 34.8187 24.035 34.8593 24.035 34.9041C24.035 34.9598 24.0537 35.0077 24.0912 35.0475C24.1286 35.0876 24.1779 35.1233 24.2396 35.1552C24.3012 35.1872 24.3711 35.2169 24.4492 35.2447C24.5273 35.2726 24.6072 35.3023 24.6894 35.3342C24.7716 35.3662 24.8515 35.4023 24.9296 35.4429C25.0077 35.4836 25.0775 35.5333 25.1392 35.5913C25.2008 35.6498 25.2506 35.7187 25.2876 35.7977C25.3246 35.8767 25.3438 35.9708 25.3438 36.0795H25.3442Z" fill="#99A1AF"/>
<path d="M30.0859 36.691L29.9393 36.1663H29.0118L28.8611 36.691H28.3647L29.152 34.0319H29.8516L30.6389 36.691H30.0854H30.0859ZM29.4817 34.5205L29.1319 35.7576H29.8279L29.4822 34.5205H29.4817Z" fill="#99A1AF"/>
<path d="M35.1926 35.8955C35.1926 36.0202 35.173 36.1343 35.1337 36.2371C35.0944 36.3403 35.0369 36.4284 34.9606 36.5015C34.8848 36.5746 34.7903 36.6312 34.678 36.6714C34.5652 36.7115 34.4346 36.7312 34.2852 36.7312C34.1752 36.7312 34.0697 36.7184 33.9679 36.6924C33.866 36.6668 33.7774 36.6339 33.7012 36.5946V36.1106C33.735 36.1389 33.7747 36.1654 33.8204 36.19C33.8656 36.2142 33.9144 36.2357 33.966 36.254C34.0176 36.2722 34.0706 36.2864 34.1249 36.2969C34.1793 36.307 34.2327 36.312 34.2857 36.312C34.3304 36.312 34.377 36.3038 34.425 36.2878C34.4729 36.2718 34.5163 36.2444 34.5542 36.2065C34.5921 36.1686 34.6232 36.1188 34.6478 36.0572C34.6725 35.9955 34.6844 35.9193 34.6844 35.8284V34.4452H33.7222V34.0323H35.1931V35.896L35.1926 35.8955Z" fill="#99A1AF"/>
<path d="M40.4777 35.7124C40.4777 35.8818 40.4549 36.0306 40.4097 36.159C40.3645 36.2873 40.2992 36.3941 40.2142 36.4795C40.1293 36.5649 40.0261 36.6293 39.9042 36.6727C39.7822 36.7161 39.6452 36.738 39.4932 36.738C39.3224 36.738 39.1758 36.7161 39.0539 36.6727C38.9319 36.6293 38.8329 36.5668 38.757 36.4855C38.6812 36.4042 38.626 36.3051 38.5922 36.1886C38.5584 36.0722 38.5415 35.9411 38.5415 35.7959V34.0323H39.042V35.7658C39.042 35.8553 39.0498 35.9347 39.0653 36.0037C39.0808 36.0727 39.1082 36.1316 39.1466 36.1795C39.1854 36.2275 39.2338 36.264 39.2922 36.2882C39.3507 36.3124 39.4238 36.3247 39.5119 36.3247C39.5946 36.3247 39.6644 36.3142 39.7215 36.2932C39.7786 36.2722 39.8261 36.2384 39.864 36.1914C39.9019 36.1444 39.9307 36.0845 39.9494 36.0115C39.9686 35.9384 39.9777 35.8494 39.9777 35.7448V34.0319H40.4782V35.7124H40.4777Z" fill="#99A1AF"/>
<path d="M45.7423 34.8785C45.7423 35.0169 45.7195 35.1448 45.6734 35.2621C45.6273 35.3795 45.5588 35.4809 45.4679 35.5663C45.377 35.6517 45.2638 35.7183 45.1281 35.7658C44.9925 35.8133 44.835 35.8371 44.6564 35.8371H44.4021V36.6915H43.8975V34.0323H44.6765C44.8487 34.0323 45.0012 34.0511 45.1332 34.0881C45.2656 34.1255 45.3766 34.1798 45.467 34.252C45.5569 34.3237 45.6254 34.4123 45.6725 34.5173C45.7195 34.6223 45.7428 34.7429 45.7428 34.8785H45.7423ZM45.2177 34.9132C45.2177 34.8429 45.2062 34.7785 45.1839 34.721C45.1615 34.6634 45.1277 34.6141 45.082 34.5735C45.0364 34.5328 44.9793 34.5018 44.9103 34.4799C44.8414 34.4584 44.7592 34.4474 44.6642 34.4474H44.4016V35.422H44.6802C44.7669 35.422 44.8437 35.4101 44.9099 35.3863C44.9761 35.3626 45.0322 35.3283 45.0779 35.2836C45.1231 35.2388 45.1578 35.1854 45.1816 35.1228C45.2053 35.0603 45.2172 34.9904 45.2172 34.9132H45.2177Z" fill="#99A1AF"/>
<path d="M48.9849 36.691V34.0319H49.4936V36.2617H50.6165V36.691H48.9849Z" fill="#99A1AF"/>
<path d="M55.4443 36.691L55.2977 36.1663H54.3702L54.2195 36.691H53.7231L54.5104 34.0319H55.21L55.9973 36.691H55.4438H55.4443ZM54.8401 34.5205L54.4903 35.7576H55.1863L54.8406 34.5205H54.8401Z" fill="#99A1AF"/>
<path d="M60.4305 36.68L59.7184 35.0931L59.5719 34.7514V35.854V36.68H59.1162V34.021H59.7306L60.4569 35.618L60.5851 35.9293V34.7554V34.021H61.0408V36.68H60.4305Z" fill="#99A1AF"/>
<path d="M69.7444 35.321H63.8713C63.7328 35.321 63.6206 35.4333 63.6206 35.5718V35.5722C63.6206 35.7107 63.7328 35.8229 63.8713 35.8229H69.7444C69.8828 35.8229 69.9951 35.7107 69.9951 35.5722V35.5718C69.9951 35.4333 69.8828 35.321 69.7444 35.321Z" fill="#99A1AF"/>
<path d="M72.035 36.2083C72.3864 36.2083 72.6712 35.9235 72.6712 35.5722C72.6712 35.2208 72.3864 34.936 72.035 34.936C71.6837 34.936 71.3989 35.2208 71.3989 35.5722C71.3989 35.9235 71.6837 36.2083 72.035 36.2083Z" fill="#99A1AF"/>
<path d="M15.1814 35.8229H21.0545C21.1929 35.8229 21.3052 35.7106 21.3052 35.5722V35.5717C21.3052 35.4333 21.1929 35.321 21.0545 35.321H15.1814C15.043 35.321 14.9307 35.4333 14.9307 35.5717V35.5722C14.9307 35.7106 15.043 35.8229 15.1814 35.8229Z" fill="#99A1AF"/>
<path d="M12.89 36.2083C13.2413 36.2083 13.5261 35.9235 13.5261 35.5722C13.5261 35.2208 13.2413 34.936 12.89 34.936C12.5387 34.936 12.2539 35.2208 12.2539 35.5722C12.2539 35.9235 12.5387 36.2083 12.89 36.2083Z" fill="#99A1AF"/>
</g>
</g>
<defs>
<clipPath id="clip0_113_6950">
<rect width="90" height="37.9257" fill="white"/>
</clipPath>
<clipPath id="clip1_113_6950">
<rect width="90" height="37.9257" fill="white"/>
</clipPath>
</defs>
</svg>
