<svg width="30" height="30" viewBox="0 0 30 30" fill="none" xmlns="http://www.w3.org/2000/svg">
<path d="M7.97707 20.9009C7.45002 20.9009 6.96418 20.63 6.69329 20.1854C6.36057 19.6319 6.46657 18.9223 6.94062 18.4894L8.28035 17.2704V12.3473C8.28035 8.58429 11.4221 5.28357 14.9996 5.28357C18.5771 5.28357 21.7188 8.58429 21.7188 12.3473V17.2704L23.0585 18.4894C23.5355 18.9223 23.6386 19.6348 23.3059 20.1854C23.0379 20.6271 22.5492 20.9009 22.0221 20.9009H7.97118H7.97707Z" stroke="#030712" stroke-width="1.4" stroke-linecap="round" stroke-linejoin="round"/>
<path d="M18.7184 20.9771C18.7184 23.0441 17.0548 24.7165 15.0025 24.7165C12.9502 24.7165 11.2866 23.0411 11.2866 20.9771H18.7214H18.7184Z" stroke="#030712" stroke-width="1.4" stroke-linecap="round" stroke-linejoin="round"/>
</svg>
