<svg width="24" height="24" viewBox="0 0 24 24" fill="none" xmlns="http://www.w3.org/2000/svg">
<g clip-path="url(#clip0_6_1211)">
<path d="M18 5H22" stroke="#9B7AF7" stroke-width="1.4" stroke-linecap="round" stroke-linejoin="round"/>
<path d="M20 3V7" stroke="#9B7AF7" stroke-width="1.4" stroke-linecap="round" stroke-linejoin="round"/>
<path d="M20.985 12.486C20.8912 14.2222 20.2966 15.894 19.273 17.2994C18.2494 18.7049 16.8406 19.7837 15.217 20.4056C13.5933 21.0274 11.8243 21.1657 10.1237 20.8036C8.42318 20.4415 6.86392 19.5946 5.63442 18.3652C4.40493 17.1358 3.55785 15.5767 3.19558 13.8761C2.83331 12.1756 2.97136 10.4066 3.59304 8.78285C4.21472 7.15912 5.29342 5.75022 6.69874 4.72647C8.10406 3.70272 9.77583 3.10794 11.512 3.01403C11.917 2.99203 12.129 3.47403 11.914 3.81703C11.1949 4.96759 10.8869 6.3279 11.0405 7.67598C11.194 9.02407 11.7999 10.2803 12.7593 11.2397C13.7187 12.1991 14.9749 12.805 16.323 12.9585C17.6711 13.1121 19.0314 12.8041 20.182 12.085C20.526 11.87 21.007 12.081 20.985 12.486Z" stroke="#364153" stroke-width="1.4" stroke-linecap="round" stroke-linejoin="round"/>
</g>
<defs>
<clipPath id="clip0_6_1211">
<rect width="24" height="24" fill="white"/>
</clipPath>
</defs>
</svg>
