<svg width="109" height="46" viewBox="0 0 109 46" fill="none" xmlns="http://www.w3.org/2000/svg">
<g clip-path="url(#clip0_137_9386)">
<path d="M22.9834 7.81054C22.7845 7.81054 22.6234 7.64938 22.6234 7.45042C22.6234 7.25145 22.7845 7.09029 22.9834 7.09029C20.8378 7.09029 18.756 7.51074 16.7961 8.33993C14.9034 9.14091 13.2035 10.2873 11.7437 11.7473C10.2842 13.2076 9.13817 14.908 8.33745 16.8014C7.50854 18.762 7.08823 20.8444 7.08823 22.9908C7.08823 25.1371 7.50854 27.2196 8.33745 29.1801C9.13817 31.0735 10.2842 32.7739 11.7437 34.2342C13.2035 35.6942 14.9034 36.8406 16.7961 37.6416C18.732 38.4606 20.7868 38.8811 22.9048 38.891C21.2575 38.8753 19.6882 38.3727 18.3609 37.451C12.2468 35.4908 7.80824 29.7494 7.80824 22.9908C7.80824 14.6202 14.6157 7.81054 22.9834 7.81054ZM25.0313 15.2207C25.0313 16.3521 24.1144 17.2693 22.9834 17.2693C21.8524 17.2693 20.9356 16.3521 20.9356 15.2207C20.9356 14.0893 21.8524 13.1722 22.9834 13.1722C24.1144 13.1722 25.0313 14.0893 25.0313 15.2207ZM37.6294 16.8014C36.8287 14.908 35.6827 13.2076 34.2228 11.7473C32.7633 10.2873 31.0635 9.14091 29.1707 8.33993C27.2108 7.51074 25.1291 7.09029 22.9834 7.09029C22.7845 7.09029 22.6234 7.25145 22.6234 7.45042C22.6234 7.64938 22.7845 7.81054 22.9834 7.81054H22.9864C23.0602 7.81054 23.134 7.81174 23.2072 7.81384C23.2606 7.81534 23.3137 7.81774 23.3668 7.82045C23.6917 7.83695 24.0109 7.87476 24.3235 7.93208C24.3739 7.94139 24.4243 7.95099 24.4744 7.96149C24.5011 7.9669 24.5278 7.9726 24.5545 7.9783C24.6847 8.00651 24.8138 8.03802 24.9413 8.07343C25.0133 8.09294 25.0847 8.11365 25.1558 8.13556C25.1951 8.14756 25.2341 8.15986 25.2728 8.17277C25.3016 8.18207 25.3304 8.19138 25.3589 8.20128C25.5596 8.2694 25.7564 8.34593 25.9487 8.43026C26.0033 8.45427 26.0573 8.47858 26.111 8.50378C26.1116 8.50408 26.1122 8.50439 26.1128 8.50469C26.1665 8.52989 26.2199 8.5557 26.2727 8.58181C26.3003 8.59562 26.3276 8.60942 26.3546 8.62323C26.408 8.65054 26.4608 8.67875 26.5133 8.70726C26.5658 8.73577 26.6177 8.76488 26.6693 8.79459C26.7206 8.8243 26.7713 8.85431 26.8217 8.88492C26.9567 8.96685 27.089 9.05328 27.218 9.14391C27.2594 9.17242 27.3005 9.20183 27.3413 9.23154C27.4409 9.30447 27.5387 9.37979 27.6347 9.45722C27.6773 9.49173 27.7193 9.52654 27.761 9.56166C27.7613 9.56196 27.7619 9.56256 27.7622 9.56286C27.8012 9.59557 27.8396 9.62888 27.8777 9.66279C28.2842 10.0211 28.6511 10.4236 28.9712 10.8623C29.006 10.91 29.0402 10.958 29.0738 11.0067C29.0978 11.0409 29.1212 11.0754 29.1443 11.1102C29.1857 11.172 29.2262 11.2344 29.2658 11.2978C29.3942 11.5027 29.5127 11.7146 29.621 11.9322C29.6474 11.985 29.6732 12.0384 29.6981 12.0918C29.6981 12.0921 29.6981 12.0924 29.6981 12.0927C29.7467 12.1969 29.7929 12.3019 29.8367 12.4085C29.8409 12.4187 29.8451 12.4286 29.849 12.4388C29.8781 12.5099 29.906 12.5816 29.9327 12.6539C29.9384 12.6689 29.9438 12.6843 29.9492 12.6993C29.9672 12.7482 29.9843 12.7974 30.0011 12.8469C30.092 13.1149 30.1679 13.3898 30.2277 13.6704C30.2436 13.7442 30.2583 13.8187 30.2718 13.8937C30.3501 14.3243 30.3909 14.7676 30.3909 15.2204C30.3909 19.3064 27.0677 22.6306 22.9831 22.6306C20.812 22.6306 18.771 23.4763 17.2359 25.012C15.7008 26.5476 14.8554 28.5892 14.8554 30.7611C14.8554 32.933 15.7008 34.9743 17.2359 36.5099C17.3325 36.6065 17.4309 36.7002 17.5314 36.7914C17.5506 36.8088 17.5698 36.8259 17.589 36.843C17.6079 36.8598 17.6265 36.8763 17.6454 36.8925C17.667 36.9118 17.6883 36.9304 17.7102 36.9487C17.886 37.0993 18.0672 37.2416 18.2535 37.3751C18.273 37.3892 18.2922 37.403 18.312 37.4168C18.3282 37.4282 18.3444 37.4396 18.3606 37.451C19.6879 38.3727 21.2572 38.8753 22.9045 38.891C22.9306 38.8913 22.957 38.8913 22.9831 38.8913C25.1288 38.8913 27.2105 38.4708 29.1704 37.6416C31.0632 36.8406 32.763 35.6942 34.2225 34.2342C35.6824 32.7739 36.8284 31.0735 37.6291 29.1801C38.458 27.2196 38.8783 25.1371 38.8783 22.9908C38.8783 20.8444 38.458 18.762 37.6291 16.8014H37.6294ZM22.9834 32.4495C22.0525 32.4495 21.2956 31.692 21.2956 30.7611C21.2956 29.8302 22.0525 29.0727 22.9834 29.0727C23.9143 29.0727 24.6712 29.8299 24.6712 30.7611C24.6712 31.6923 23.914 32.4495 22.9834 32.4495ZM1.20872 20.7964C1.19492 20.7964 1.18082 20.7955 1.16672 20.794C0.969318 20.7712 0.827715 20.5923 0.850516 20.3949C1.14182 17.8818 1.85343 15.4575 2.96525 13.1896C4.04797 10.9809 5.482 8.97555 7.22713 7.22984C8.97226 5.48413 10.9769 4.04962 13.1849 2.96654C15.4521 1.85435 17.8755 1.1425 20.3878 0.851099C20.5852 0.827991 20.764 0.96964 20.7868 1.16741C20.8096 1.36488 20.6683 1.54374 20.4706 1.56655C10.4969 2.72376 2.72285 10.5007 1.56603 20.4777C1.54473 20.6611 1.38903 20.7964 1.20902 20.7964H1.20872ZM25.5368 45.1334C25.3565 45.1334 25.2008 44.9984 25.1795 44.8147C25.1567 44.6173 25.298 44.4384 25.4957 44.4156C35.4696 43.2581 43.2437 35.4812 44.4005 25.5042C44.4233 25.3067 44.6021 25.165 44.7995 25.1878C44.9969 25.2106 45.1385 25.3895 45.1157 25.587C44.8244 28.1001 44.1128 30.5243 43.001 32.7922C41.9183 35.001 40.4842 37.0063 38.7391 38.752C36.994 40.4977 34.9893 41.9322 32.7813 43.0153C30.5139 44.1275 28.0907 44.8393 25.5785 45.1307C25.5644 45.1322 25.5503 45.1331 25.5365 45.1331L25.5368 45.1334ZM44.7578 20.7964C44.5775 20.7964 44.4218 20.6614 44.4008 20.4777C43.244 10.5004 35.4699 2.72376 25.496 1.56625C25.2986 1.54344 25.157 1.36458 25.1798 1.16711C25.2026 0.96964 25.3814 0.827991 25.5788 0.850799C28.091 1.1422 30.5142 1.85405 32.7816 2.96624C34.9896 4.04932 36.9943 5.48382 38.7394 7.22954C40.4845 8.97525 41.9186 10.9806 43.0013 13.1893C44.1131 15.4575 44.8247 17.8815 45.116 20.3946C45.1388 20.592 44.9975 20.7709 44.7998 20.7937C44.7857 20.7952 44.7716 20.7961 44.7578 20.7961V20.7964ZM20.4298 45.1334C20.416 45.1334 20.4019 45.1325 20.3878 45.131C17.8755 44.8396 15.4521 44.1278 13.1849 43.0156C10.9769 41.9325 8.97226 40.498 7.22713 38.7523C5.482 37.0066 4.04797 35.0013 2.96525 32.7925C1.85343 30.5243 1.14212 28.1004 0.850516 25.5873C0.827715 25.3898 0.969018 25.2109 1.16672 25.1881C1.36442 25.165 1.54293 25.3067 1.56573 25.5045C2.72255 35.4818 10.4966 43.2584 20.4706 44.4159C20.668 44.4387 20.8096 44.6176 20.7868 44.815C20.7655 44.9984 20.6098 45.1337 20.4295 45.1337L20.4298 45.1334ZM24.0442 1.06117C24.0442 1.64728 23.5693 2.12234 22.9834 2.12234C22.3975 2.12234 21.9226 1.64728 21.9226 1.06117C21.9226 0.475067 22.3975 0 22.9834 0C23.5693 0 24.0442 0.475067 24.0442 1.06117ZM24.0442 44.9207C24.0442 45.5068 23.5693 45.9818 22.9834 45.9818C22.3975 45.9818 21.9226 45.5068 21.9226 44.9207C21.9226 44.3346 22.3975 43.8595 22.9834 43.8595C23.5693 43.8595 24.0442 44.3346 24.0442 44.9207ZM45.9668 22.9911C45.9668 23.5772 45.4916 24.0522 44.9057 24.0522C44.3198 24.0522 43.8449 23.5772 43.8449 22.9911C43.8449 22.405 44.3201 21.9299 44.9057 21.9299C45.4913 21.9299 45.9668 22.405 45.9668 22.9911ZM2.12164 22.9911C2.12164 23.5772 1.64673 24.0522 1.06082 24.0522C0.474909 24.0522 0 23.5769 0 22.9911C0 22.4053 0.474909 21.9299 1.06082 21.9299C1.64673 21.9299 2.12164 22.405 2.12164 22.9911ZM44.9057 24.0672C44.3126 24.0672 43.8299 23.5844 43.8299 22.9911C43.8299 22.3978 44.3126 21.9149 44.9057 21.9149C45.4988 21.9149 45.9818 22.3978 45.9818 22.9911C45.9818 23.5844 45.4991 24.0672 44.9057 24.0672ZM44.9057 21.9449C44.3291 21.9449 43.8599 22.4143 43.8599 22.9911C43.8599 23.5679 44.3291 24.0372 44.9057 24.0372C45.4823 24.0372 45.9518 23.5679 45.9518 22.9911C45.9518 22.4143 45.4826 21.9449 44.9057 21.9449Z" fill="#8259F5"/>
</g>
<path d="M70.6749 16.4075C70.6749 17.4238 70.4716 18.3385 70.0651 19.1854C69.6247 20.0662 69.0488 20.7777 68.3374 21.3875C67.5921 22.0311 66.7451 22.5054 65.7627 22.8442C64.7464 23.2168 63.6285 23.3862 62.4766 23.3862H61.6636C61.3248 23.3862 60.9861 23.3862 60.6473 23.3523C60.2408 23.3523 59.8681 23.3523 59.5293 23.3184C59.1228 23.3184 58.784 23.2846 58.4453 23.2507V26.9433C58.4453 27.5531 58.3775 28.129 58.242 28.7049C58.1065 29.3147 57.9032 29.8567 57.6322 30.3649H59.0889C59.5293 30.3649 59.9697 30.331 60.444 30.2632C60.8505 30.2294 61.3248 30.1616 61.7991 30.0261C62.2734 29.9245 62.7815 29.7551 63.3236 29.5518C63.3913 29.9583 63.3913 30.331 63.3913 30.6698C63.3574 31.0085 63.2558 31.3473 63.1203 31.6861C63.0526 31.8216 62.9509 31.991 62.8493 32.1604C62.7138 32.3297 62.5783 32.4991 62.4428 32.7024C62.2395 32.8379 62.0701 32.9734 61.8669 33.1089C61.6636 33.2105 61.4265 33.2783 61.1893 33.2783C60.6812 33.2783 60.0714 33.2783 59.36 33.3122C58.6147 33.3122 57.8694 33.346 57.0902 33.346C56.2771 33.346 55.5318 33.3122 54.7866 33.2783C54.0074 33.2105 53.3637 33.1428 52.8217 33.0412C52.5168 32.9734 52.3135 32.7701 52.2458 32.4652C52.1103 32.1265 52.0764 31.8216 52.1441 31.4828C52.1441 31.144 52.2458 30.8391 52.4152 30.5681C52.5507 30.2971 52.7539 30.1616 53.0249 30.1616C53.2621 30.1955 53.5331 30.2294 53.838 30.2294C54.109 30.2632 54.4478 30.2971 54.7866 30.2971C54.8543 29.6196 54.8882 28.671 54.8882 27.4853V13.3586H54.3462C54.0751 13.3586 53.8041 13.257 53.5331 13.0198C53.2282 12.8166 52.9572 12.5117 52.6862 12.1729C52.4152 11.868 52.1441 11.5292 51.9409 11.1227C51.7037 10.7839 51.5344 10.4452 51.4327 10.1742C51.9409 10.1742 52.449 10.1403 52.9233 10.1064H54.2784H55.7012H57.2935H64.7125C65.6611 10.1064 66.5419 10.2758 67.2872 10.6146C68.0325 10.9872 68.6423 11.4615 69.1843 12.0374C69.6586 12.6472 70.0312 13.2908 70.3022 14.0361C70.5394 14.8153 70.6749 15.5945 70.6749 16.4075ZM58.4453 13.0537V20.8793C59.2583 21.0148 60.0714 21.0487 60.8844 21.0487C61.6297 21.0826 62.4766 21.0487 63.3913 20.9471C64.4754 20.8454 65.3562 20.405 66.0337 19.6597C66.6774 18.9144 67.0162 17.9659 67.0162 16.8141C67.0162 16.3398 66.9145 15.8994 66.779 15.4251C66.6096 14.9847 66.3725 14.5782 66.1015 14.2055C65.7627 13.8668 65.3901 13.5957 64.9497 13.3586C64.4754 13.1553 63.9672 13.0537 63.3574 13.0537H58.7163H58.4453ZM74.6224 23.4201C73.9448 23.0813 73.3689 22.607 72.8269 22.0311C72.2848 21.4891 71.9461 20.9471 71.8106 20.405C72.2171 19.7275 72.7591 19.1516 73.4367 18.6434C74.0464 18.1691 74.7579 17.7626 75.5032 17.4238C76.2146 17.1189 76.9599 16.8818 77.739 16.7124C78.4843 16.5769 79.1619 16.4753 79.8394 16.4753C81.8382 16.4753 83.261 16.9834 84.1418 17.9659C84.9548 18.9822 85.3953 20.5405 85.3953 22.7087V29.2808C85.3953 29.8228 85.463 30.2294 85.6324 30.5004C85.7679 30.8391 85.9712 30.9747 86.3099 30.9747C86.7503 30.9747 87.1907 30.9069 87.6311 30.7036C88.0377 30.5681 88.3764 30.3987 88.6474 30.1955C87.9022 31.2118 87.123 31.991 86.2761 32.4991C85.3953 33.0073 84.5483 33.2783 83.7692 33.2783C83.261 33.2783 82.8206 33.075 82.4479 32.7024C82.0414 32.2959 81.8382 31.8555 81.8382 31.2795C81.0251 31.8893 80.2459 32.3636 79.4668 32.7363C78.6537 33.075 77.6374 33.2783 76.4517 33.2783C74.8934 33.2444 73.6399 32.8718 72.6914 32.1265C71.7428 31.3812 71.2685 30.331 71.2685 29.0437C71.2685 28.0274 71.5395 27.1466 72.1493 26.4351C72.6914 25.7576 73.4705 25.1817 74.453 24.7074C75.4015 24.267 76.5533 23.8944 77.8407 23.5895C79.0941 23.3184 80.4153 23.0813 81.8382 22.878C81.7704 21.6246 81.3978 20.676 80.7541 20.0662C80.0766 19.4903 79.2635 19.1854 78.2472 19.1854C77.6035 19.1854 76.9937 19.2871 76.4517 19.4903C75.8419 19.6936 75.3676 19.9985 74.995 20.3373C74.9611 20.8454 74.9272 21.3875 74.8934 21.9634C74.8256 22.5731 74.724 23.0474 74.6224 23.4201ZM77.5019 30.873C78.1794 30.873 78.8909 30.7036 79.6023 30.331C80.2798 29.9922 81.0251 29.4841 81.8382 28.8404V24.7074C80.6863 24.9107 79.7039 25.1139 78.857 25.2494C77.9762 25.4527 77.2309 25.656 76.655 25.8931C76.0452 26.1641 75.5709 26.469 75.2999 26.8417C74.9611 27.2482 74.8256 27.7563 74.8256 28.4C74.8256 29.0775 75.0289 29.6535 75.4693 30.1277C75.8758 30.6359 76.5533 30.873 77.5019 30.873ZM91.2769 19.1516L90.7349 18.203C90.4638 17.8642 90.0234 17.5593 89.4475 17.2883C89.8541 17.0512 90.2267 16.8479 90.5655 16.6785C90.8704 16.543 91.2769 16.4753 91.7512 16.4753C92.361 16.4753 92.8691 16.543 93.2418 16.6447C93.5805 16.7802 93.8854 16.9496 94.1226 17.1528C94.3258 17.39 94.4952 17.661 94.6307 17.932C94.7323 18.2369 94.8679 18.5757 95.0034 18.9144L99.3396 29.5857H99.3735L103.337 19.2532C103.439 18.9822 103.506 18.6434 103.574 18.3046V17.3222C103.506 17.0512 103.473 16.7463 103.405 16.4753C103.303 16.2381 103.202 16.0349 103.1 15.8655C103.506 15.8655 103.981 15.8994 104.455 15.9671C104.895 16.0688 105.302 16.2043 105.709 16.3737C106.081 16.5769 106.386 16.8141 106.657 17.0851C106.894 17.4238 107.03 17.7965 107.03 18.2369C107.03 18.6095 106.894 18.9822 106.691 19.321C106.42 19.6936 106.251 20.0662 106.115 20.4728L100.017 36.124C99.3735 37.3435 98.696 38.2582 97.9507 38.868C97.1715 39.4439 96.2568 39.7488 95.1727 39.7488C94.4275 39.7488 93.7838 39.6133 93.2418 39.41C92.6658 39.1729 92.1577 38.868 91.7512 38.4954C91.2769 38.0888 90.9042 37.6484 90.5993 37.1403C90.2606 36.5982 89.9557 36.0562 89.7524 35.4803C91.243 36.4289 92.6997 36.937 94.1226 36.937C94.834 36.937 95.4438 36.6999 95.9519 36.2934C96.4262 35.8529 96.9344 35.1415 97.4425 34.1252L97.578 33.7526L91.2769 19.1516Z" fill="#030712"/>
<defs>
<clipPath id="clip0_137_9386">
<rect width="45.9818" height="45.9818" fill="white"/>
</clipPath>
</defs>
</svg>
