<svg width="24" height="24" viewBox="0 0 24 24" fill="none" xmlns="http://www.w3.org/2000/svg">
<g clip-path="url(#clip0_109_10006)">
<path d="M2.99194 16.3417C3.13897 16.7126 3.17171 17.119 3.08594 17.5087L2.02094 20.7987C1.98662 20.9655 1.99549 21.1384 2.04671 21.3008C2.09793 21.4633 2.1898 21.61 2.3136 21.727C2.43741 21.844 2.58904 21.9274 2.75413 21.9693C2.91923 22.0113 3.0923 22.0104 3.25694 21.9667L6.66994 20.9687C7.03765 20.8958 7.41846 20.9276 7.76894 21.0607C9.90432 22.0579 12.3233 22.2689 14.5991 21.6564C16.8749 21.0439 18.8612 19.6473 20.2076 17.7131C21.5541 15.7788 22.1741 13.4311 21.9582 11.0842C21.7424 8.73738 20.7046 6.54216 19.028 4.88589C17.3514 3.22962 15.1436 2.21873 12.7943 2.03159C10.445 1.84445 8.10507 2.49308 6.18738 3.86303C4.26968 5.23299 2.89747 7.23624 2.31283 9.51933C1.72819 11.8024 1.9687 14.2186 2.99194 16.3417Z" stroke="#364153" stroke-width="1.4" stroke-linecap="round" stroke-linejoin="round"/>
<path d="M9.09009 8.99959C9.32519 8.33126 9.78924 7.7677 10.4 7.40873C11.0108 7.04975 11.729 6.91853 12.4273 7.0383C13.1255 7.15808 13.7589 7.52112 14.2152 8.06312C14.6714 8.60512 14.9211 9.29112 14.9201 9.99959C14.9201 11.9996 11.9201 12.9996 11.9201 12.9996" stroke="#364153" stroke-width="1.4" stroke-linecap="round" stroke-linejoin="round"/>
<path d="M12 17H12.01" stroke="#364153" stroke-width="1.4" stroke-linecap="round" stroke-linejoin="round"/>
</g>
<defs>
<clipPath id="clip0_109_10006">
<rect width="24" height="24" fill="white"/>
</clipPath>
</defs>
</svg>
