<svg width="16" height="16" viewBox="0 0 16 16" fill="none" xmlns="http://www.w3.org/2000/svg">
<path d="M12.7303 12.8418L12.2162 9.94087C12.2162 9.94087 14.23 8.00564 14.3227 7.91955C15.3702 6.92761 15.173 5.95438 13.9362 5.61001L10.6045 5.14211L9.15505 2.2973C8.48638 1.23423 7.51237 1.23423 6.84371 2.2973L5.39428 5.14211L2.06255 5.61001C0.829573 5.95438 0.628586 6.93135 1.67603 7.91955C1.7688 8.00564 3.78253 9.94087 3.78253 9.94087L3.26847 12.8418C3.06361 14.2979 3.99511 14.9155 5.39042 14.2043C5.51797 14.1407 7.99551 12.9092 7.99551 12.9092C7.99551 12.9092 10.4731 14.1407 10.6006 14.2043C11.9959 14.9155 12.9274 14.2979 12.7226 12.8418H12.7303Z" fill="#99A1AF"/>
</svg>
