<svg width="15" height="19" viewBox="0 0 15 19" fill="none" xmlns="http://www.w3.org/2000/svg">
<g clip-path="url(#clip0_133_4049)">
<path d="M12.5319 10.0897C12.5065 8.54067 13.1706 7.33504 14.5222 6.47228C13.7601 5.3557 12.6362 4.72809 11.1497 4.58785C10.6211 4.53772 9.94532 4.66357 9.12298 4.96857C8.2382 5.29917 7.74025 5.46341 7.63018 5.46341C7.39681 5.46341 6.9486 5.32477 6.28396 5.04482C5.6209 4.76541 5.05574 4.62624 4.58901 4.62624C3.80265 4.63904 3.07133 4.85819 2.39611 5.28318C1.72035 5.70869 1.18006 6.28938 0.775242 7.0247C0.257708 7.93812 0 9.02964 0 10.2987C0 11.4409 0.189974 12.5825 0.57098 13.7258C0.927115 14.8173 1.38221 15.7755 1.93466 16.5994C2.42574 17.3485 2.85702 17.894 3.22479 18.2374C3.75344 18.7701 4.29373 19.0245 4.84725 18.9983C5.20338 18.9856 5.66958 18.8522 6.24744 18.5979C6.78773 18.3579 7.32855 18.2374 7.86937 18.2374C8.37261 18.2374 8.89438 18.3574 9.43572 18.5979C10.0374 18.8522 10.529 18.9792 10.91 18.9792C11.4752 18.9541 12.0033 18.7067 12.4954 18.238C12.6669 18.0849 12.8542 17.8759 13.0569 17.6093C13.2595 17.3421 13.4839 17.0249 13.73 16.6575C13.9014 16.3914 14.0702 16.1056 14.2369 15.8006C14.4031 15.4961 14.5534 15.173 14.6883 14.8296C14.7492 14.6899 14.8042 14.5475 14.8539 14.4014C14.9026 14.2558 14.9518 14.107 15.0011 13.9545C14.5465 13.7519 14.1348 13.465 13.7665 13.0971C12.9569 12.2861 12.5452 11.2831 12.5325 10.0902L12.5319 10.0897Z" fill="white"/>
<path d="M10.2102 3.04633C10.8616 2.22143 11.1876 1.33307 11.1876 0.380725V0.190896C11.1876 0.126908 11.1812 0.0639874 11.1691 0C10.7145 0.025595 10.2324 0.1717 9.72231 0.437781C9.21271 0.704928 8.79202 1.0414 8.45969 1.44718C7.79664 2.24703 7.46484 3.10339 7.46484 4.01734V4.19758C7.46484 4.25516 7.47119 4.31542 7.48336 4.37941C8.50361 4.48072 9.41274 4.03654 10.2107 3.04687L10.2102 3.04633Z" fill="white"/>
</g>
<defs>
<clipPath id="clip0_133_4049">
<rect width="15" height="19" fill="white"/>
</clipPath>
</defs>
</svg>
