<svg width="16" height="16" viewBox="0 0 16 16" fill="none" xmlns="http://www.w3.org/2000/svg">
<path d="M14.6668 6.79065C14.6668 3.77733 12.2944 1.33337 9.3651 1.33337H6.63522C3.7078 1.33337 1.3335 3.7754 1.3335 6.79065C1.3335 9.8059 3.65324 12.1898 6.53551 12.244L7.99922 14.6667L9.46294 12.244C12.3452 12.1898 14.6649 9.7691 14.6649 6.79065H14.6668ZM8.0011 5.91919C8.46957 5.91919 8.84961 6.31038 8.84961 6.79258C8.84961 7.27479 8.46957 7.66598 8.0011 7.66598C7.53264 7.66598 7.1526 7.27479 7.1526 6.79258C7.1526 6.31038 7.53264 5.91919 8.0011 5.91919ZM5.03417 7.66404C4.56571 7.66404 4.18567 7.27285 4.18567 6.79065C4.18567 6.30844 4.56571 5.91725 5.03417 5.91725C5.50263 5.91725 5.88267 6.30844 5.88267 6.79065C5.88267 7.27285 5.50263 7.66404 5.03417 7.66404ZM10.968 7.66404C10.4996 7.66404 10.1195 7.27285 10.1195 6.79065C10.1195 6.30844 10.4996 5.91725 10.968 5.91725C11.4365 5.91725 11.8165 6.30844 11.8165 6.79065C11.8165 7.27285 11.4365 7.66404 10.968 7.66404Z" fill="#99A1AF"/>
</svg>
