<svg width="24" height="24" viewBox="0 0 24 24" fill="none" xmlns="http://www.w3.org/2000/svg">
<path d="M3.71835 12.2901C3.6489 12.103 3.6489 11.8972 3.71835 11.7101C4.39476 10.0699 5.54294 8.66759 7.01732 7.6808C8.4917 6.69402 10.2259 6.16724 12 6.16724C13.7741 6.16724 15.5083 6.69402 16.9827 7.6808C18.4571 8.66759 19.6053 10.0699 20.2817 11.7101C20.3511 11.8972 20.3511 12.103 20.2817 12.2901C19.6053 13.9302 18.4571 15.3325 16.9827 16.3193C15.5083 17.3061 13.7741 17.8329 12 17.8329C10.2259 17.8329 8.4917 17.3061 7.01732 16.3193C5.54294 15.3325 4.39476 13.9302 3.71835 12.2901Z" stroke="#1E2939" stroke-width="1.4" stroke-linecap="round" stroke-linejoin="round"/>
<path d="M12 14.5C13.3807 14.5 14.5 13.3807 14.5 12C14.5 10.6193 13.3807 9.5 12 9.5C10.6193 9.5 9.5 10.6193 9.5 12C9.5 13.3807 10.6193 14.5 12 14.5Z" stroke="#1E2939" stroke-width="1.4" stroke-linecap="round" stroke-linejoin="round"/>
</svg>
