<svg width="103" height="41" viewBox="0 0 103 41" fill="none" xmlns="http://www.w3.org/2000/svg">
<path d="M42.5657 22.8302C41.0651 23.5521 39.6674 23.8785 38.0341 24.1591C37.8843 24.185 37.745 24.3108 37.5578 24.2564L38.078 24.7581C38.1908 24.9113 38.3301 25.2942 38.3531 25.4804C38.5682 27.2176 37.5808 30.9051 36.7447 32.4935C36.573 32.8195 36.2934 33.2712 35.9859 33.4804C35.5077 33.8059 34.9721 33.425 34.8133 32.9398C34.6306 32.3812 35 31.6668 35.1353 31.1117C35.4118 29.9791 35.627 28.832 35.7807 27.6768C35.91 26.7029 35.8262 25.6656 36.0962 24.7167C36.1117 24.6628 36.1157 24.6113 36.1092 24.5559C35.6849 24.6972 35.2336 24.7027 34.7924 24.7601C33.0552 24.9867 30.5483 25.2483 28.88 24.6253C28.55 24.502 28.0668 24.1191 28.0728 23.7318C28.0768 23.4887 28.4033 23.1023 28.6539 23.0629C29.4895 22.9311 30.7889 23.0998 31.6959 23.0614C33.8159 22.9725 35.9305 22.701 38.0006 22.2322C39.0349 21.9976 40.0588 21.7136 41.0646 21.3766C41.9317 21.0861 42.7304 20.6238 43.5945 20.3428C44.4811 20.0543 44.8874 20.7456 44.4426 21.4894C44.0942 22.072 43.1587 22.5447 42.5652 22.8302H42.5657Z" fill="#352C2C"/>
<path d="M38.5668 15.99C38.4081 16.2715 38.8094 16.1527 38.9772 16.1816C39.6206 16.2945 41.1955 17.1171 41.6753 17.5739C42.155 18.0306 42.5249 18.6671 41.825 19.1218C40.9929 19.663 39.6705 18.706 39.0311 18.1719C38.8688 18.0361 37.8735 17.0542 37.7836 17.0762C37.209 17.6677 36.6275 18.3541 36.0115 18.8967C35.3032 19.5207 33.2824 21.0332 32.3794 21.0507C32.0834 21.0562 31.4305 20.8375 31.5303 20.4542C31.5368 20.4292 31.712 20.1532 31.7345 20.1322C32.4433 19.4738 33.4187 18.8757 34.165 18.1984C35.5418 16.9484 36.7428 15.3829 37.558 13.7112C37.5919 13.5245 37.2385 13.7251 37.1801 13.7331C36.1118 13.8769 34.9822 14.1495 33.89 14.1245C33.3418 14.112 32.6884 13.84 32.5776 13.2489C32.3624 12.1033 34.8589 11.9131 35.5273 11.8377C36.7173 11.7034 38.8928 11.2871 39.672 12.4951C40.3929 13.6128 39.4184 15.024 38.7041 15.9066C38.6672 15.9525 38.5778 15.9695 38.5658 15.99H38.5668Z" fill="#352C2C"/>
<path d="M44.8417 14.5338C44.8092 14.3906 44.7054 14.2228 44.7668 14.0856C44.8801 14.409 45.3044 14.5413 45.6184 14.6307C46.3467 14.8383 47.1349 14.8319 47.8857 14.8828C47.8752 15.05 47.9077 15.2307 47.8742 15.3954C47.7794 15.8612 47.3566 15.8387 47.7719 16.4687C47.8213 16.5436 47.9247 16.579 47.9291 16.5875C47.9461 16.6189 47.8902 16.7148 47.8982 16.7897C47.9192 16.9824 48.019 17.0133 48.0365 17.176C48.0764 17.173 48.1757 17.1865 48.1847 17.1775C48.2082 17.1546 48.2836 16.6364 48.3225 16.5416C48.4049 16.3419 48.8097 16.2111 48.8352 16.0564C48.8511 15.96 48.4977 15.8612 48.4583 15.7324C48.2681 15.5956 48.2032 14.9477 48.355 14.8289C48.4763 14.7335 48.8746 14.8014 49.0578 14.7834C49.527 14.7365 50.0806 14.6502 50.5289 14.5089C50.753 14.438 50.9547 14.2024 51.1779 14.3352C51.2717 14.3911 51.396 15.1154 51.4364 15.2357C51.5403 15.5407 51.6835 15.8312 51.8263 16.1203C52.955 18.408 54.6382 20.5066 55.4873 22.9182C56.903 26.9376 55.3391 31.0834 51.3705 32.7511C49.2779 33.6307 45.8705 33.8953 43.6816 33.3696C43.2672 33.2703 42.2095 32.8829 42.1451 32.4117C42.0657 31.8286 42.5649 31.4882 43.0771 31.331C43.714 31.1353 44.3799 31.1892 45.0324 31.2351C45.237 31.2496 46.3687 31.1817 46.4885 31.3375L46.2614 31.0414C44.5631 29.8923 43.4355 27.6609 44.018 25.6028C44.4348 24.1297 45.6449 23.0629 46.0747 21.6248C46.6517 19.6929 45.2904 16.5081 44.8427 14.5353L44.8417 14.5338Z" fill="#352C2C"/>
<path d="M44.7587 12.582C44.3643 11.7778 43.8791 10.756 44.0987 9.87645C44.1257 9.66929 44.3533 9.23399 44.3433 9.07875C44.3334 8.9235 44.0868 8.52765 44.0209 8.35044C43.8461 7.8817 43.5546 7.05255 43.4982 6.57932C43.4802 6.42607 43.4678 5.92788 43.4967 5.7946C43.5102 5.7322 43.7318 5.552 43.8566 5.56847C43.9994 5.58744 44.7197 5.86499 44.886 5.94036C45.4131 6.17898 45.9023 6.62824 46.4155 6.90679C46.5432 6.97618 46.9621 6.72009 47.1063 6.68765C47.6025 6.57633 48.201 6.5324 48.7072 6.60927C48.9738 6.64971 49.3801 6.87784 49.6477 6.79597C50.0126 6.57333 50.3106 6.18397 50.6545 5.95784C50.9346 5.77413 51.9879 5.19708 52.2499 5.66232C52.7037 6.4685 52.0243 7.8193 51.7478 8.59653C51.6454 8.88357 51.5321 8.96493 51.5875 9.26994C51.624 9.47161 51.7882 9.74416 51.8092 10.0177C51.8671 10.764 51.6599 12.0689 51.0294 12.59C51.0115 12.605 50.994 12.6215 50.9795 12.6399C50.9021 12.7383 50.9266 12.8187 50.9296 12.939C50.6276 12.903 50.7878 13.0333 50.6521 13.1346C50.4339 13.2974 49.4495 13.519 49.1425 13.5714C47.8516 13.7911 46.4284 13.7691 45.2264 13.198C45.1605 13.1666 45.0941 13.1331 45.0407 13.0832C44.9708 13.0183 44.9279 12.9305 44.886 12.8446C44.845 12.7602 44.8021 12.6729 44.7582 12.583L44.7587 12.582Z" fill="#352C2C"/>
<path d="M50.9291 12.9385C51.0954 12.9585 51.356 13.5395 51.3769 13.7157C51.4074 13.9708 51.2117 14.1485 51.1782 14.3342C50.9521 14.1994 50.5523 14.4994 50.3186 14.5643C49.8809 14.6861 49.4096 14.779 48.9534 14.7855C48.6883 14.789 48.29 14.6896 48.269 15.075C48.2475 15.4639 48.4377 15.6581 48.6294 15.9501C48.7612 16.1507 48.8301 16.1108 48.5316 16.3225C48.2006 16.5566 48.3988 16.9499 48.1841 17.1766C48.1177 17.2465 47.5676 16.1208 47.6061 15.9246C47.643 15.7349 47.8327 15.5962 47.8736 15.395C47.9071 15.2303 47.8746 15.0495 47.8851 14.8823C47.8821 14.9282 44.9968 14.743 44.7662 14.0851C44.7048 14.2229 44.8086 14.3906 44.8411 14.5334C44.7323 14.5748 44.6619 14.2953 44.6534 14.2474C44.6159 14.0372 44.5875 13.4756 44.6674 13.2879C44.7038 13.2026 44.9194 13.0783 44.9409 13.0378C46.117 13.7581 47.8072 13.7976 49.1411 13.5705C49.4481 13.518 50.432 13.2964 50.6506 13.1337C50.7864 13.0323 50.6261 12.902 50.9281 12.938L50.9291 12.9385Z" fill="#F4929B"/>
<path d="M24.4809 18.3471C25.6345 18.1205 26.7886 17.8938 27.9423 17.6672C28.3007 17.5968 28.7055 17.5354 29.0025 17.7476C29.3535 17.9982 29.3774 18.5443 29.1553 18.9142C28.9331 19.2841 28.5348 19.5087 28.1374 19.6769C27.4161 19.9829 26.6389 20.1552 25.8562 20.1891C25.4633 20.2061 25.0734 20.1836 24.6836 20.1352C24.1375 20.0673 24.1689 20.1292 24.0865 20.6918C23.6348 23.7872 23.0927 26.9301 21.7588 29.8329C21.6305 30.1119 21.2187 30.9755 20.9167 31.0354C20.5239 31.1138 20.2733 30.7813 20.2902 30.4139C20.2957 30.2941 20.3746 30.2172 20.3911 30.1119C20.5059 29.3786 20.5778 28.6258 20.7904 27.9185C20.7934 27.3699 21.021 26.8472 21.07 26.3006C21.0545 26.2712 20.6312 26.054 20.5523 26.0171C20.1275 25.8169 19.6433 25.6577 19.2379 25.4875C19.0318 25.4011 18.0404 25.0467 17.9985 24.879C17.97 24.7661 18.2491 24.7107 18.3244 24.7127C18.7188 24.7247 19.9822 25.2179 20.441 25.3801C20.5763 25.4281 21.1673 25.7241 21.2417 25.6522C21.2102 25.2708 21.4064 24.9473 21.3415 24.5555C21.2886 24.55 21.2202 24.5685 21.1723 24.552C20.4475 24.3064 19.6882 24.2405 18.9604 24.0678C18.8366 24.0383 18.5096 24.0912 18.5561 23.8391C18.6025 23.5871 19.3158 23.641 19.5195 23.6579C19.7681 23.6789 20.1485 23.7388 20.3956 23.7792C20.7195 23.8327 21.0415 23.928 21.3605 24.0029C21.5811 23.6789 21.5427 23.2781 21.5412 22.9087C21.0585 22.9511 20.4889 22.8528 20.0177 22.9072C19.7077 22.9431 19.2909 23.0779 18.9739 23.1108C18.8681 23.1218 18.4587 23.1273 18.3798 23.1008C17.9965 22.9746 18.6559 22.686 18.7612 22.6486C19.2694 22.4689 19.793 22.4639 20.3177 22.409C20.76 22.3631 21.1818 22.2567 21.6405 22.3101C21.5632 22.0006 21.7204 21.7011 21.7404 21.4376C22.0708 17.1341 22.4727 12.6484 22.2575 8.33292C22.1452 6.08409 21.96 3.93859 21.1728 1.80407C21.0315 1.7816 20.9122 1.90241 20.8229 2.01422C19.6623 3.47534 19.0438 5.28839 18.5481 7.08745C18.5146 7.20975 18.4762 7.34004 18.3774 7.41941C18.2036 7.55968 17.9231 7.45735 17.8043 7.26866C17.6855 7.07997 17.686 6.84135 17.703 6.61872C17.7778 5.63183 18.0968 4.67988 18.4572 3.75788C18.917 2.5818 19.4621 1.4122 20.3197 0.485215C21.7069 -0.630466 22.571 0.349936 23.1316 1.68776C23.7241 3.1334 24.0796 4.66989 24.3257 6.21138C24.7465 8.93145 24.8373 11.6944 24.7525 14.439C24.699 15.6909 24.74 17.195 24.4639 18.3471L24.4794 18.3441L24.4809 18.3471Z" fill="#352C2C"/>
<path d="M13.1129 20.0138C13.9231 20.3797 14.7123 20.802 15.4616 21.2832C16.172 21.7395 17.696 22.8023 18.0209 23.562C18.1817 23.9379 18.1472 24.2594 17.9186 24.5993C17.5532 25.1434 16.461 24.7481 15.9783 24.506C14.5541 23.7921 13.5023 22.4234 12.7216 21.0791C12.6971 21.0371 12.7361 20.9962 12.6367 21.0157C12.2573 21.6491 11.9149 22.3116 11.5051 22.9265C10.7822 24.0103 9.9491 25.0211 9.02161 25.9356C8.26485 26.6824 7.21057 27.8321 6.13632 28.0816C5.82532 28.154 4.89185 28.1845 4.83444 27.7597C4.78801 27.4162 5.85777 26.4628 6.10087 26.2017C6.11485 26.1144 6.53916 25.7589 6.47427 25.7025C6.39989 25.6381 6.34647 25.734 6.31053 25.7649C5.89471 26.1203 4.60781 27.0578 4.10213 27.1452C3.92742 27.1756 3.66485 27.1776 3.73823 26.9335C3.78465 26.7803 3.9364 26.8327 4.01378 26.7823C4.56288 26.4253 5.08054 26.018 5.64013 25.6776C6.21119 25.3296 6.84267 25.0686 7.32738 24.5953C8.5374 23.4143 9.53328 21.7135 10.3559 20.2489C11.2889 18.5891 12.0307 16.828 12.6237 15.0199C13.0066 14.5612 13.3191 14.3925 13.8857 14.6815C14.918 15.2076 14.5701 16.4616 14.29 17.3332C13.9915 18.2617 13.5472 19.1452 13.1134 20.0138H13.1129ZM10.0874 23.7787C10.8102 23.0898 10.0664 22.327 9.39351 22.8112C8.81146 23.2301 9.22229 24.2289 9.86474 23.9793C9.93962 23.9504 10.0285 23.8351 10.0874 23.7787Z" fill="#352C2C"/>
<path d="M7.0227 5.75854C7.05415 6.07602 6.99325 6.41397 6.99125 6.72247C6.98376 8.19257 7.22736 9.6447 7.53287 11.0569C7.59976 11.3674 7.97215 12.0972 7.5703 12.2639C7.27429 12.3867 7.11155 12.1676 6.9603 11.9285C6.02432 10.4489 5.57705 7.35543 5.72581 5.63474C5.75876 5.25436 5.89454 4.70625 6.17258 4.43569C6.61886 4.0009 7.23086 4.2465 7.71457 4.4946C8.96902 5.13755 10.3613 6.59368 11.1145 7.77775C11.3322 8.11969 11.9462 9.00874 11.3491 9.26282C10.9728 9.42356 10.5804 8.87695 10.3662 8.62486C9.5396 7.65095 8.75587 6.65308 7.61573 5.98866C7.52588 5.93625 7.0801 5.70313 7.0227 5.75854Z" fill="#352C2C"/>
<path d="M2.77697 15.7438C2.8823 15.8985 3.02507 16.0368 3.23273 16.1461C3.66153 16.3718 4.21463 16.3583 4.56805 16.6898C3.96953 16.6643 3.35853 16.8934 2.9477 17.3292C2.50292 17.8009 2.32221 18.4559 2.15648 19.0829C2.04217 18.5028 1.89092 17.9103 1.5365 17.437C1.18207 16.9638 0.577559 16.6338 0 16.7621C0.14726 16.5655 0.41133 16.509 0.642952 16.4262C1.06676 16.2744 1.42917 15.9779 1.68475 15.6105C1.89541 15.3075 1.96729 14.5198 2.18943 14.3625C2.47796 14.7933 2.49393 15.3295 2.77647 15.7443L2.77697 15.7438Z" fill="#F4929B"/>
<path d="M19.3886 6.80901C19.2943 6.71416 19.3133 6.55692 19.3497 6.33528C19.4261 5.86605 19.8139 4.82375 20.0436 4.38596C20.088 4.3016 20.4204 3.79642 20.4669 3.76148C20.7394 3.55382 21.0983 4.69446 21.1852 4.89713C21.3894 5.37185 21.6744 5.92944 21.6599 6.45858C21.6494 6.84395 21.5102 6.88688 21.1592 6.88189C20.6715 6.8744 20.0715 6.98672 19.5973 6.90136C19.4984 6.88339 19.4321 6.85294 19.3891 6.81001L19.3886 6.80901Z" fill="#F4929B"/>
<path d="M8.84014 7.93163C9.1087 8.27108 9.37527 8.67592 9.50056 9.09124C9.59341 9.39824 9.66978 9.63386 9.50006 9.93037C9.45663 10.0058 8.77375 10.7021 8.69637 10.747C8.58006 10.8144 8.50568 10.8429 8.4318 10.7081C8.38288 10.6193 8.27256 10.3152 8.23712 10.2044C7.9406 9.27245 7.86423 8.20818 8.12081 7.25474C8.19818 7.23976 8.23612 7.26272 8.29752 7.30216C8.38188 7.35607 8.74879 7.81632 8.84014 7.93163Z" fill="#F4929B"/>
<path d="M7.11561 23.3524C7.01926 23.5072 6.67932 23.335 6.58747 23.32C5.43285 23.1353 4.30219 22.9875 3.15107 22.8153C2.94441 22.7844 2.73225 22.8717 2.55704 22.711C2.31493 22.4884 2.91695 22.376 3.10664 22.372C3.54393 22.3616 4.25078 22.4699 4.69455 22.5303C5.27011 22.6087 6.41575 22.7679 6.91893 22.9895C7.05221 23.0479 7.20945 23.2022 7.11611 23.3524H7.11561Z" fill="#352C2C"/>
<path d="M6.87337 24.1067C6.8554 24.6308 6.38416 24.508 6.0527 24.558C5.5665 24.6318 4.90208 24.7476 4.41587 24.867C4.06395 24.9533 3.33913 25.3072 3.03263 25.1774C2.83046 25.0921 2.85791 24.9438 3.0461 24.844C3.76493 24.4636 4.80374 24.3303 5.59096 24.1965C5.65585 24.1856 5.73672 24.1067 5.7507 24.1067H6.87337Z" fill="#352C2C"/>
<path d="M10.0869 23.7788C10.028 23.8352 9.93919 23.9505 9.86431 23.9795C9.22186 24.2291 8.81103 23.2297 9.39308 22.8114C10.066 22.3272 10.8098 23.0899 10.0869 23.7788Z" fill="#F4929B"/>
<path d="M84.7308 40.6754C84.4992 40.6754 84.2676 40.6423 84.0691 40.6093C83.8375 40.5762 83.7383 40.4769 83.7383 40.2784C83.7383 40.1792 83.8044 40.0799 83.9368 40.0138L85.0616 39.6168C88.8662 38.4258 92.0421 35.4152 94.5564 30.6513C93.8948 30.949 93.2331 31.0813 92.5715 31.0813C91.4466 31.0813 90.3549 30.6513 89.3293 29.8242C87.8737 28.4347 87.1458 26.6813 87.0797 24.6632L87.0466 23.8031C87.0466 22.182 87.5097 20.6933 88.4361 19.37C88.6677 19.1384 88.8992 19.0391 89.1639 19.0391C89.7263 19.0391 90.1233 19.3038 90.3218 19.8662C90.4872 20.594 90.5865 21.3549 90.5865 22.1489L90.5534 23.2737C90.5534 24.7956 90.8842 26.0527 91.5128 26.9791C91.7113 27.1775 91.9098 27.343 92.1083 27.4753L92.8361 27.5745C93.994 27.4753 95.3504 26.6813 96.8392 25.2256C97.4347 23.3399 97.964 21.4211 98.3279 19.4692C98.4602 18.9399 98.758 18.576 99.2211 18.3113C99.5189 18.179 99.8497 18.0797 100.147 18.0797C100.875 18.0797 101.438 18.4105 101.802 19.0391C101.934 19.3369 102.033 19.6346 102.033 19.9654C102.033 20.5609 101.603 22.1158 100.743 24.5309C100.71 24.8948 100.578 25.3249 100.313 25.7881C98.0632 32.0408 94.9204 36.3746 90.8842 38.7566C88.5684 40.0138 86.5173 40.6754 84.7308 40.6754Z" fill="#352C2C"/>
<path d="M76.6588 29.7581C76.9235 29.7581 77.1882 29.6919 77.4859 29.5596C78.0152 29.328 78.3791 29.1295 78.5776 28.9641C79.7355 27.9716 80.5957 26.8468 81.125 25.5565C81.7205 24.3324 82.316 23.1415 82.8123 21.9505C82.2168 21.752 81.6213 21.6527 81.0258 21.6527C79.1731 21.6527 77.7506 22.4798 76.7912 24.0678C76.0302 25.5234 75.6333 27.0122 75.5671 28.5009C75.5671 28.6332 75.6002 28.8648 75.6333 29.1626C75.8318 29.5596 76.1957 29.7581 76.6588 29.7581ZM76.7581 32.8017C76.0964 32.8017 75.4348 32.6694 74.8062 32.4047C73.1851 31.7761 72.3911 30.3866 72.3911 28.2362C72.3911 27.2438 72.5896 26.2843 73.0197 25.358C73.6814 23.9685 74.6077 22.7445 75.7987 21.752C77.3536 20.2632 79.107 19.5354 80.9927 19.5354C82.0183 19.5354 82.9115 19.7339 83.6724 20.1309C83.9702 19.7339 84.301 19.5354 84.698 19.5354C85.1281 19.5354 85.5251 19.7339 85.889 20.0647C86.0875 20.2963 86.1867 20.561 86.1867 20.8587C86.1867 21.2888 85.8559 22.2813 85.1612 23.8693C84.301 25.6558 83.8048 27.1114 83.7055 28.2693L83.6393 29.0302C83.6393 29.1626 83.6724 29.328 83.7717 29.4934C83.8378 29.6588 84.3672 29.7911 85.3927 29.8573C85.7567 29.8904 86.0544 30.0558 86.2529 30.2874C86.4514 30.519 86.5507 30.7836 86.5507 31.0814C86.5507 31.5115 86.3522 31.8092 85.9552 32.0077C85.3266 32.3385 84.698 32.504 84.0694 32.504C82.8784 32.504 81.8529 31.9415 81.0589 30.8498C80.331 31.6438 79.4047 32.2062 78.2799 32.5701C77.7506 32.7355 77.2543 32.8017 76.7581 32.8017Z" fill="#352C2C"/>
<path d="M58.9594 32.2393C58.794 32.2393 58.5955 32.1731 58.397 32.0408C58.1654 31.9085 58.0662 31.6769 58.0331 31.3461C58.0331 31.0152 58 30.7175 58 30.3867C58 27.1114 58.4962 23.9024 59.5218 20.7926C60.2827 17.5504 61.573 14.573 63.3925 11.8602C63.8226 11.2647 64.3189 11 64.8813 11C65.179 11 65.4437 11.0662 65.7414 11.2316C66.2708 11.5624 66.5354 12.0587 66.6016 12.7203C67.3294 12.6542 67.8918 12.588 68.3219 12.588C69.6783 12.588 70.9024 12.985 72.0603 13.7128C73.6152 14.7384 74.3761 16.0948 74.3761 17.8151C74.3761 18.7083 74.1776 19.5685 73.7475 20.3956C71.928 23.5054 69.0497 25.0603 65.1129 25.0603C64.1865 25.0603 63.161 24.9941 62.0692 24.8287C61.5068 26.7475 61.0436 28.2032 60.6797 29.1957C60.382 29.9566 60.1173 30.7506 59.8857 31.5446C59.7203 32.0077 59.4226 32.2393 58.9594 32.2393ZM65.2121 22.7445C68.1234 22.7445 70.3069 21.6527 71.6964 19.4031C71.9941 18.8738 72.1265 18.3775 72.1265 17.8482C72.1265 16.6572 71.4979 15.764 70.2407 15.1685C69.2482 14.8376 68.2557 14.6722 67.2302 14.6722L65.7414 14.7053C64.385 17.3519 63.3925 19.9655 62.7309 22.546C63.4587 22.6783 64.2858 22.7445 65.2121 22.7445Z" fill="#352C2C"/>
</svg>
