<svg width="16" height="16" viewBox="0 0 16 16" fill="none" xmlns="http://www.w3.org/2000/svg">
<path d="M8 14.25C11.4518 14.25 14.25 11.4518 14.25 8C14.25 4.54822 11.4518 1.75 8 1.75C4.54822 1.75 1.75 4.54822 1.75 8C1.75 11.4518 4.54822 14.25 8 14.25Z" fill="#99A1AF"/>
<path d="M6.18115 6.12499C6.32809 5.70728 6.61812 5.35506 6.99987 5.1307C7.38163 4.90634 7.83046 4.82433 8.26689 4.89918C8.70331 4.97404 9.09916 5.20094 9.38433 5.53969C9.66949 5.87845 9.82556 6.30719 9.8249 6.74999C9.8249 7.99999 7.9499 8.62499 7.9499 8.62499" stroke="white" stroke-width="1.125" stroke-linecap="round" stroke-linejoin="round"/>
<path d="M8 11.125H8.00667" stroke="white" stroke-width="1.125" stroke-linecap="round" stroke-linejoin="round"/>
</svg>
