<svg width="20" height="20" viewBox="0 0 20 20" fill="none" xmlns="http://www.w3.org/2000/svg">
<g clip-path="url(#clip0_194_6035)">
<path d="M3.0951 2.54011C3.02015 2.50352 2.93592 2.49037 2.85338 2.50236C2.77085 2.51435 2.69384 2.55093 2.6324 2.60733C2.57096 2.66373 2.52794 2.73734 2.50895 2.81855C2.48996 2.89976 2.49588 2.98481 2.52594 3.06261L4.8951 9.41844C5.03483 9.79364 5.03483 10.2066 4.8951 10.5818L2.52677 16.9376C2.49686 17.0153 2.49102 17.1002 2.51 17.1813C2.52898 17.2624 2.57191 17.3358 2.6332 17.3922C2.69449 17.4485 2.77132 17.4851 2.85369 17.4973C2.93607 17.5094 3.02018 17.4964 3.0951 17.4601L18.0951 10.3768C18.1665 10.343 18.2268 10.2897 18.269 10.223C18.3112 10.1563 18.3336 10.079 18.3336 10.0001C18.3336 9.92118 18.3112 9.84388 18.269 9.77719C18.2268 9.71051 18.1665 9.65719 18.0951 9.62345L3.0951 2.54011Z" stroke="white" stroke-width="1.4" stroke-linecap="round" stroke-linejoin="round"/>
<path d="M5 10H18.3333" stroke="white" stroke-width="1.4" stroke-linecap="round" stroke-linejoin="round"/>
</g>
<defs>
<clipPath id="clip0_194_6035">
<rect width="20" height="20" fill="white"/>
</clipPath>
</defs>
</svg>
