<svg width="140" height="46" viewBox="0 0 140 46" fill="none" xmlns="http://www.w3.org/2000/svg">
<g clip-path="url(#clip0_6_2574)">
<g clip-path="url(#clip1_6_2574)">
<path d="M22.7865 7.74361C22.5893 7.74361 22.4295 7.58383 22.4295 7.38657C22.4295 7.1893 22.5893 7.02953 22.7865 7.02953C20.6592 7.02953 18.5953 7.44637 16.6522 8.26846C14.7757 9.06257 13.0904 10.1992 11.6431 11.6467C10.1961 13.0945 9.05986 14.7803 8.266 16.6574C7.44419 18.6012 7.02749 20.6658 7.02749 22.7937C7.02749 24.9217 7.44419 26.9863 8.266 28.9301C9.05986 30.8072 10.1961 32.493 11.6431 33.9408C13.0904 35.3883 14.7757 36.5249 16.6522 37.319C18.5715 38.131 20.6086 38.5479 22.7085 38.5577C21.0753 38.5422 19.5194 38.0438 18.2036 37.1301C12.1419 35.1866 7.74133 29.4945 7.74133 22.7937C7.74133 14.4949 14.4904 7.74361 22.7865 7.74361ZM24.8167 15.0903C24.8167 16.212 23.9078 17.1213 22.7865 17.1213C21.6651 17.1213 20.7562 16.212 20.7562 15.0903C20.7562 13.9686 21.6651 13.0593 22.7865 13.0593C23.9078 13.0593 24.8167 13.9686 24.8167 15.0903ZM37.3069 16.6574C36.5131 14.7803 35.3769 13.0945 33.9295 11.6467C32.4825 10.1992 30.7973 9.06257 28.9207 8.26846C26.9776 7.44637 24.9137 7.02953 22.7865 7.02953C22.5893 7.02953 22.4295 7.1893 22.4295 7.38657C22.4295 7.58383 22.5893 7.74361 22.7865 7.74361H22.7894C22.8626 7.74361 22.9358 7.7448 23.0083 7.74688C23.0613 7.74837 23.1139 7.75075 23.1666 7.75343C23.4887 7.76979 23.8052 7.80728 24.1151 7.86411C24.1651 7.87333 24.215 7.88285 24.2647 7.89327C24.2912 7.89862 24.3176 7.90428 24.3441 7.90993C24.4732 7.9379 24.6011 7.96914 24.7275 8.00425C24.7989 8.02359 24.8697 8.04412 24.9402 8.06584C24.9791 8.07774 25.0178 8.08994 25.0562 8.10273C25.0847 8.11195 25.1133 8.12118 25.1415 8.131C25.3405 8.19854 25.5356 8.27441 25.7263 8.35802C25.7804 8.38182 25.834 8.40592 25.8872 8.43091C25.8878 8.43121 25.8884 8.43151 25.889 8.4318C25.9422 8.4568 25.9952 8.48238 26.0475 8.50827C26.0749 8.52196 26.102 8.53564 26.1287 8.54933C26.1817 8.5764 26.234 8.60437 26.2861 8.63264C26.3381 8.6609 26.3896 8.68976 26.4407 8.71922C26.4916 8.74868 26.5419 8.77843 26.5918 8.80878C26.7257 8.89 26.8568 8.97569 26.9847 9.06555C27.0258 9.09381 27.0665 9.12297 27.107 9.15243C27.2057 9.22473 27.3027 9.29941 27.3979 9.37617C27.4401 9.41039 27.4818 9.4449 27.5231 9.47972C27.5234 9.48001 27.524 9.48061 27.5243 9.48091C27.563 9.51334 27.601 9.54636 27.6388 9.57998C28.0418 9.93524 28.4056 10.3342 28.723 10.7692C28.7575 10.8165 28.7914 10.8641 28.8247 10.9123C28.8485 10.9463 28.8717 10.9805 28.8946 11.015C28.9356 11.0763 28.9758 11.1382 29.015 11.2009C29.1423 11.4042 29.2598 11.6142 29.3672 11.8299C29.3934 11.8823 29.4189 11.9353 29.4436 11.9882C29.4436 11.9885 29.4436 11.9888 29.4436 11.9891C29.4918 12.0924 29.5376 12.1965 29.5811 12.3021C29.5852 12.3122 29.5894 12.3221 29.5932 12.3322C29.6221 12.4027 29.6498 12.4738 29.6762 12.5455C29.6819 12.5604 29.6872 12.5756 29.6926 12.5904C29.7104 12.6389 29.7274 12.6877 29.744 12.7368C29.8342 13.0025 29.9094 13.2751 29.9686 13.5532C29.9844 13.6264 29.9989 13.7002 30.0123 13.7746C30.09 14.2016 30.1304 14.641 30.1304 15.09C30.1304 19.1409 26.8357 22.4367 22.7862 22.4367C20.6336 22.4367 18.6102 23.2752 17.0882 24.7976C15.5662 26.3201 14.7281 28.3442 14.7281 30.4975C14.7281 32.6507 15.5662 34.6746 17.0882 36.197C17.184 36.2928 17.2815 36.3857 17.3812 36.4761C17.4002 36.4934 17.4193 36.5103 17.4383 36.5273C17.457 36.544 17.4755 36.5603 17.4942 36.5764C17.5156 36.5954 17.5367 36.6139 17.5585 36.632C17.7327 36.7814 17.9124 36.9224 18.0971 37.0548C18.1164 37.0688 18.1355 37.0825 18.1551 37.0962C18.1712 37.1075 18.1872 37.1188 18.2033 37.1301C19.5191 38.0438 21.075 38.5422 22.7082 38.5577C22.7341 38.558 22.7603 38.558 22.7862 38.558C24.9134 38.558 26.9773 38.1411 28.9205 37.319C30.797 36.5249 32.4822 35.3883 33.9292 33.9408C35.3766 32.493 36.5128 30.8072 37.3066 28.9301C38.1284 26.9863 38.5451 24.9217 38.5451 22.7937C38.5451 20.6658 38.1284 18.6012 37.3066 16.6574H37.3069ZM22.7865 32.1714C21.8635 32.1714 21.1131 31.4204 21.1131 30.4975C21.1131 29.5745 21.8635 28.8236 22.7865 28.8236C23.7094 28.8236 24.4598 29.5742 24.4598 30.4975C24.4598 31.4207 23.7091 32.1714 22.7865 32.1714ZM1.19836 20.6182C1.18468 20.6182 1.1707 20.6173 1.15672 20.6158C0.961011 20.5932 0.820622 20.4159 0.843227 20.2201C1.13204 17.7285 1.83755 15.3251 2.93984 13.0766C4.01328 10.8868 5.43502 8.89863 7.1652 7.16788C8.89537 5.43713 10.8828 4.01492 13.0719 2.94112C15.3197 1.83846 17.7223 1.13271 20.2131 0.843805C20.4088 0.820895 20.586 0.961331 20.6086 1.15741C20.6312 1.35318 20.4912 1.53051 20.2951 1.55313C10.4069 2.70041 2.69952 10.4107 1.55261 20.3022C1.53149 20.484 1.37712 20.6182 1.19866 20.6182H1.19836ZM25.3179 44.7467C25.1392 44.7467 24.9848 44.6128 24.9637 44.4307C24.9411 44.2349 25.0812 44.0576 25.2772 44.035C35.1657 42.8874 42.8731 35.1771 44.02 25.2856C44.0426 25.0898 44.2199 24.9494 44.4156 24.972C44.6113 24.9946 44.7517 25.1719 44.7291 25.3677C44.4403 27.8593 43.7348 30.2627 42.6325 32.5112C41.559 34.701 40.1373 36.6892 38.4071 38.4199C36.6769 40.1507 34.6895 41.5729 32.5004 42.6467C30.2524 43.7493 27.85 44.4551 25.3593 44.744C25.3453 44.7455 25.3313 44.7464 25.3176 44.7464L25.3179 44.7467ZM44.3743 20.6182C44.1955 20.6182 44.0411 20.4843 44.0203 20.3022C42.8734 10.4104 35.166 2.70041 25.2775 1.55283C25.0818 1.53021 24.9414 1.35289 24.964 1.15711C24.9866 0.961331 25.1639 0.820895 25.3596 0.843508C27.8503 1.13241 30.2527 1.83816 32.5007 2.94082C34.6898 4.01462 36.6772 5.43683 38.4074 7.16758C40.1376 8.89834 41.5593 10.8865 42.6328 13.0763C43.7351 15.3251 44.4406 17.7282 44.7294 20.2198C44.752 20.4156 44.6119 20.5929 44.4159 20.6155C44.4019 20.617 44.3879 20.6179 44.3743 20.6179V20.6182ZM20.2547 44.7467C20.241 44.7467 20.227 44.7458 20.2131 44.7443C17.7223 44.4554 15.3197 43.7496 13.0719 42.647C10.8828 41.5732 8.89537 40.151 7.1652 38.4202C5.43502 36.6895 4.01328 34.7013 2.93984 32.5115C1.83755 30.2627 1.13233 27.8596 0.843227 25.368C0.820622 25.1722 0.960713 24.9949 1.15672 24.9723C1.35273 24.9494 1.52971 25.0898 1.55231 25.2859C2.69922 35.1777 10.4066 42.8877 20.2951 44.0353C20.4909 44.0579 20.6312 44.2352 20.6086 44.431C20.5875 44.6128 20.4332 44.747 20.2544 44.747L20.2547 44.7467ZM23.8382 1.05208C23.8382 1.63316 23.3673 2.10416 22.7865 2.10416C22.2056 2.10416 21.7347 1.63316 21.7347 1.05208C21.7347 0.470996 22.2056 0 22.7865 0C23.3673 0 23.8382 0.470996 23.8382 1.05208ZM23.8382 44.5357C23.8382 45.1168 23.3673 45.5878 22.7865 45.5878C22.2056 45.5878 21.7347 45.1168 21.7347 44.5357C21.7347 43.9546 22.2056 43.4836 22.7865 43.4836C23.3673 43.4836 23.8382 43.9546 23.8382 44.5357ZM45.5729 22.794C45.5729 23.3751 45.1018 23.8461 44.5209 23.8461C43.94 23.8461 43.4692 23.3751 43.4692 22.794C43.4692 22.213 43.9403 21.742 44.5209 21.742C45.1015 21.742 45.5729 22.213 45.5729 22.794ZM2.10346 22.794C2.10346 23.3751 1.63262 23.8461 1.05173 23.8461C0.470839 23.8461 0 23.3748 0 22.794C0 22.2133 0.470839 21.742 1.05173 21.742C1.63262 21.742 2.10346 22.213 2.10346 22.794ZM44.5209 23.861C43.9329 23.861 43.4543 23.3823 43.4543 22.794C43.4543 22.2058 43.9329 21.7271 44.5209 21.7271C45.1089 21.7271 45.5878 22.2058 45.5878 22.794C45.5878 23.3823 45.1092 23.861 44.5209 23.861ZM44.5209 21.7568C43.9492 21.7568 43.484 22.2222 43.484 22.794C43.484 23.3659 43.9492 23.8312 44.5209 23.8312C45.0926 23.8312 45.558 23.3659 45.558 22.794C45.558 22.2222 45.0929 21.7568 44.5209 21.7568Z" fill="#8259F5"/>
</g>
<path d="M111.078 22.5084C112.959 22.9115 114.975 23.113 117.091 23.0458C119.174 23.0458 121.155 22.9115 123.104 22.6763C125.052 22.4748 126.732 22.2061 128.142 21.9373C129.553 21.6686 130.762 21.4335 131.804 21.1647C132.812 20.9632 133.718 20.7616 134.457 20.5937C135.196 20.4593 135.868 20.3586 136.507 20.3586C136.943 20.3586 137.38 20.4257 137.817 20.5601C138.22 20.6945 138.623 20.8624 138.959 21.064C139.261 21.2655 139.53 21.5006 139.731 21.7358C139.899 22.0045 140 22.2732 140 22.4748C140 22.9451 139.798 23.3146 139.395 23.6169C138.992 23.9528 138.253 24.0872 137.178 24.0872C136.842 24.0872 136.473 24.0872 136.003 24.02C135.499 24.02 134.995 23.9864 134.491 23.9864C133.718 23.9864 132.979 24.02 132.24 24.0536C131.468 24.1207 130.695 24.1543 129.956 24.2215C129.923 24.5238 129.889 24.8262 129.855 25.1621C129.788 25.5316 129.755 25.8675 129.721 26.2034C129.654 26.5393 129.62 26.8752 129.553 27.1439C129.452 27.4798 129.352 27.715 129.284 27.9165C129.083 28.3532 128.781 28.6891 128.377 28.9243C127.941 29.193 127.504 29.3945 127.101 29.5625C126.362 29.8648 125.657 30.1335 125.052 30.4023L123.339 31.1749C122.835 31.4436 122.465 31.6451 122.197 31.7795C121.894 31.981 121.76 32.0818 121.76 32.149C121.76 32.4849 121.894 32.8208 122.197 33.0895C122.465 33.3583 122.801 33.5934 123.272 33.795C123.675 33.9965 124.145 34.1309 124.682 34.2652C125.186 34.366 125.657 34.4332 126.127 34.4332C127.135 34.4332 128.042 34.2652 128.848 33.9293C129.587 33.5934 130.259 33.1903 130.863 32.7872C131.401 32.3841 131.905 32.0146 132.308 31.6115C132.711 31.242 133.047 31.0069 133.349 30.9397C133.551 30.8725 133.819 30.9061 134.155 31.0069C134.457 31.1413 134.76 31.3428 135.029 31.5444C135.297 31.7795 135.499 32.0146 135.7 32.2834C135.835 32.5521 135.902 32.8208 135.868 33.056C135.734 33.795 135.331 34.4668 134.659 35.0378C133.954 35.5753 133.147 36.012 132.24 36.4151C131.3 36.751 130.359 37.0197 129.385 37.2212C128.377 37.3892 127.471 37.49 126.732 37.49C125.925 37.49 125.052 37.4228 124.111 37.2884C123.104 37.1541 122.197 36.9189 121.391 36.6502C120.517 36.3479 119.812 35.9784 119.274 35.5081C118.67 35.0042 118.401 34.3996 118.401 33.6942C118.401 33.4926 118.435 33.3247 118.569 33.1903C118.636 33.0224 118.838 32.8544 119.174 32.5857C119.946 32.0146 120.954 31.4772 122.163 30.9397C123.339 30.4694 124.649 29.8312 126.06 29.0586C126.127 29.025 126.228 28.8571 126.328 28.5212C126.396 28.2524 126.429 27.8829 126.496 27.4127C126.496 27.0096 126.53 26.5393 126.53 26.0354C126.53 25.5652 126.496 25.0949 126.496 24.6582L123.238 25.1621C122.163 25.3636 121.155 25.5652 120.215 25.7667C119.073 26.0354 118.166 26.2034 117.494 26.2706C116.789 26.4049 116.117 26.4385 115.512 26.4385C114.773 26.4385 114.202 26.3042 113.732 26.0018C113.228 25.7331 112.825 25.3972 112.523 25.0277C112.187 24.6582 111.884 24.2551 111.683 23.7848C111.414 23.3482 111.212 22.9115 111.078 22.5084ZM117.729 10.2477C117.931 10.1805 118.267 10.1469 118.67 10.1133C119.073 10.1133 119.476 10.1133 119.946 10.1469C120.383 10.2141 120.82 10.3148 121.29 10.4156C121.726 10.55 122.096 10.6843 122.432 10.8859C122.969 10.4156 123.608 10.0125 124.279 9.67661C124.951 9.3407 125.623 9.07198 126.328 8.83684C127 8.63529 127.638 8.46734 128.31 8.33297C128.915 8.26579 129.52 8.19861 130.057 8.19861C130.359 8.19861 130.695 8.26579 131.065 8.40015C131.401 8.53452 131.737 8.73606 132.072 8.9712C132.341 9.23993 132.61 9.54225 132.812 9.87816C132.979 10.2477 133.047 10.6172 133.047 11.0203C133.013 11.3226 132.979 11.6249 132.912 11.8936C132.845 12.1959 132.744 12.5318 132.677 12.8678C132.576 13.2709 132.476 13.7075 132.375 14.1778C132.24 14.7153 132.072 15.3199 131.938 16.0253H131.972C132.61 15.9581 133.08 16.0253 133.349 16.2269C133.584 16.462 133.618 16.8315 133.416 17.3354C133.315 17.6041 133.181 17.8056 132.979 17.9736C132.744 18.1751 132.476 18.3095 132.207 18.4439C131.905 18.5782 131.602 18.7126 131.3 18.7798C130.964 18.8805 130.662 18.9477 130.393 18.9477C129.52 19.1157 128.545 19.1829 127.471 19.1157C126.362 19.1157 125.287 19.0149 124.212 18.847C124.145 19.25 124.044 19.5524 123.91 19.7539C123.742 19.9891 123.54 20.0898 123.305 20.0226C122.701 19.9891 122.23 19.7875 121.962 19.3844C121.626 19.0149 121.424 18.6118 121.29 18.2087C121.122 17.5369 120.987 16.7979 120.887 16.0253C120.752 15.2863 120.551 14.5809 120.349 13.8755C120.081 13.2037 119.778 12.5318 119.375 11.8936C118.972 11.289 118.401 10.7179 117.729 10.2477ZM123.171 11.7593C123.44 12.4311 123.708 13.2709 123.91 14.245C124.078 15.2527 124.179 16.1933 124.246 17.0666C124.85 17.033 125.522 16.9659 126.295 16.8651C127.034 16.7979 127.806 16.6971 128.579 16.5628C128.646 16.2269 128.747 15.8909 128.814 15.6222L129.016 14.8496C129.049 14.6145 129.116 14.3794 129.184 14.1106C129.217 13.9091 129.251 13.6404 129.318 13.3044C129.452 12.4647 129.385 11.8264 129.116 11.4233C128.848 11.0538 128.31 10.8523 127.504 10.8523C126.899 10.8523 126.228 10.9195 125.455 11.0538C124.649 11.2218 123.91 11.4569 123.171 11.7593Z" fill="#030712"/>
<path d="M80.833 24.4567C82.7141 24.8598 84.7296 25.0613 86.8458 24.9941C88.9284 24.9941 90.9103 24.8598 92.8586 24.6246C94.8069 24.4231 96.4864 24.1543 97.8972 23.8856C99.3081 23.6169 100.517 23.3817 101.559 23.113C102.566 22.9115 103.473 22.7099 104.212 22.542C104.951 22.4076 105.623 22.3068 106.261 22.3068C106.698 22.3068 107.135 22.374 107.571 22.5084C107.975 22.6427 108.378 22.8107 108.714 23.0122C109.016 23.2138 109.285 23.4489 109.486 23.6841C109.654 23.9528 109.755 24.2215 109.755 24.4231C109.755 24.8933 109.553 25.2628 109.15 25.5652C108.747 25.9011 108.008 26.0354 106.933 26.0354C106.597 26.0354 106.228 26.0354 105.758 25.9683C105.254 25.9683 104.75 25.9347 104.246 25.9347C103.406 25.9347 102.566 25.9683 101.76 26.0018L99.2745 26.2034V33.2239C99.2745 33.6942 99.2073 34.2316 99.0729 34.8027C98.905 35.3401 98.6698 35.844 98.4011 36.3479C98.0652 36.8182 97.6957 37.2548 97.259 37.6579C96.7887 37.9938 96.2513 38.2626 95.6466 38.3969C95.7138 37.6579 95.781 36.8182 95.8146 35.8776C95.8146 34.8699 95.8482 33.8621 95.8482 32.7872C95.8146 31.7123 95.781 30.6374 95.781 29.5625C95.7138 28.5212 95.6802 27.547 95.6466 26.6737L92.7242 27.1775C91.7501 27.3791 90.8431 27.547 89.9698 27.715C88.8277 27.9837 87.9207 28.1517 87.2489 28.2189C86.5435 28.3532 85.8717 28.3868 85.267 28.3868C84.528 28.3868 83.957 28.2524 83.4867 27.9501C82.9828 27.6814 82.5797 27.3455 82.2774 26.976C81.9415 26.6065 81.6392 26.2034 81.4376 25.7331C81.1689 25.2964 80.9674 24.8598 80.833 24.4567ZM102.365 10.6508C102.029 11.289 101.491 12.0616 100.752 12.9685C99.9799 13.9091 99.1401 14.8832 98.1996 15.891C98.905 15.8574 99.7112 15.8574 100.585 15.891C101.458 15.9581 102.264 16.0925 103.07 16.294C103.809 16.4956 104.481 16.7979 105.019 17.1338C105.522 17.5369 105.791 18.0072 105.791 18.5782C105.791 19.1157 105.69 19.4852 105.489 19.7539C105.22 20.0562 104.918 20.2578 104.582 20.3586C104.179 20.4929 103.776 20.5265 103.373 20.4593C102.902 20.4593 102.499 20.3586 102.13 20.2242C101.861 20.157 101.592 20.1234 101.256 20.0562C100.887 20.0226 100.517 19.9891 100.114 19.9555C99.7112 19.9555 99.2745 19.9891 98.8714 19.9891C98.4011 20.0226 97.998 20.0562 97.6285 20.1234C98.1324 19.9219 98.7034 19.7203 99.3417 19.5188C99.9463 19.3844 100.517 19.2165 101.122 19.0821C100.652 18.679 100.114 18.2759 99.4424 17.8392L97.4606 16.6971C96.6208 17.5705 95.8146 18.3431 95.0084 19.0485C94.2022 19.7875 93.4968 20.3921 92.8922 20.7952C92.3883 21.1312 91.8173 21.4335 91.179 21.635C90.5072 21.8702 89.7682 21.9709 88.8948 21.9709C88.1223 21.9709 87.4504 21.9037 86.8458 21.7358C86.2412 21.6014 85.6365 21.2319 85.0655 20.6273C85.4686 20.7281 85.8381 20.7617 86.2412 20.7281C86.6107 20.7281 86.9802 20.6609 87.3161 20.5937C87.6184 20.5265 87.9207 20.4593 88.1894 20.325C88.4246 20.2578 88.6261 20.157 88.7605 20.0898C89.4659 19.7203 90.2385 19.1829 91.1119 18.5111C91.9516 17.8392 92.7914 17.1338 93.5976 16.3276C94.3702 15.5886 95.0756 14.816 95.7474 14.0099C96.3856 13.2709 96.8559 12.599 97.1918 12.028C96.6544 12.0952 96.1169 12.2631 95.5123 12.5319C94.9076 12.8006 94.303 13.0693 93.732 13.3044C93.1273 13.5732 92.5563 13.7411 92.0188 13.8755C91.4478 14.0099 90.9439 13.9763 90.5408 13.7075C90.0034 13.4724 89.6339 13.1029 89.3651 12.6326C89.0628 12.1624 88.7941 11.5577 88.5589 10.8187C89.2979 11.1546 90.2049 11.289 91.2462 11.2218C92.254 11.1546 93.3289 10.9867 94.4374 10.6843C95.5123 10.4156 96.5536 10.0797 97.6285 9.67662L100.484 8.56812C101.189 8.76966 101.659 9.03839 101.895 9.3743C102.096 9.77739 102.23 10.1805 102.365 10.6508Z" fill="#030712"/>
<path d="M73.0268 22.4076C73.4635 22.2061 73.9002 21.971 74.3369 21.7022C74.74 21.4335 75.143 21.1312 75.479 20.7953C75.8149 20.493 76.0836 20.157 76.3187 19.7875C76.5203 19.4516 76.621 19.1157 76.6882 18.7126C77.0577 18.679 77.4608 18.7126 77.8639 18.8134C78.2334 18.9478 78.6029 19.1157 78.9388 19.3173C79.2411 19.586 79.5099 19.8547 79.7114 20.1906C79.913 20.5601 80.0137 20.9632 80.0137 21.3663C80.0137 22.0381 79.7786 22.5756 79.3083 22.9451C78.8381 23.3482 78.2334 23.6841 77.5616 23.8856C76.8562 24.1544 76.1172 24.3223 75.311 24.4567C74.4712 24.6247 73.6986 24.7926 73.0268 24.9606V29.1258C73.0268 30.3351 72.8924 31.41 72.6909 32.3506C72.4558 33.2911 72.1534 34.1645 71.8175 34.9371C71.448 35.6761 71.0449 36.3143 70.6083 36.8518C70.138 37.3556 69.7013 37.7587 69.2982 38.0946C69.2982 37.2213 69.3318 36.4487 69.399 35.7769C69.399 35.0379 69.4326 34.366 69.4662 33.7614C69.4662 33.1232 69.4662 32.5185 69.4998 31.8803V29.932V15.7902C69.4998 14.4802 69.4662 13.4388 69.4326 12.6998C69.3654 11.9608 69.2646 11.3898 69.1303 10.9195C68.9287 10.2477 68.6264 9.60947 68.2233 8.97124C67.8202 8.3666 67.2492 7.79556 66.5437 7.19092C67.5851 7.19092 68.5256 7.22451 69.3318 7.29169C70.138 7.39247 70.8098 7.59401 71.3809 7.86274C71.9183 8.16506 72.3214 8.60174 72.6237 9.17279C72.8924 9.77743 73.0268 10.55 73.0268 11.5578V22.4076ZM61.5387 22.4748L63.3862 22.9451C63.8901 23.1466 64.3603 23.3146 64.7634 23.4826C65.1329 23.6841 65.4688 23.8856 65.7712 24.0872C66.0399 24.3223 66.275 24.5575 66.5102 24.8262C66.6781 25.0277 66.8125 25.1957 66.8797 25.3972C66.9468 25.6324 66.9804 25.8675 66.9804 26.0691C66.9804 26.5729 66.8461 27.0096 66.6445 27.4127C66.3758 27.8158 66.0063 28.0173 65.536 28.0173C65.1329 28.0173 64.7298 27.9166 64.3939 27.6478C64.0244 27.4127 63.6549 27.1104 63.319 26.7073C62.9159 26.3714 62.5464 25.9347 62.1769 25.4644C61.7738 25.0277 61.3707 24.5911 60.934 24.1544C60.6989 23.9864 60.4974 23.7849 60.2958 23.5833C60.0943 23.4154 59.8591 23.2474 59.624 23.0459C59.1537 23.7513 58.6163 24.3895 58.0788 24.9942C57.4742 25.6324 56.9031 26.1698 56.2985 26.6065C55.6603 27.0768 55.022 27.4463 54.4174 27.715C53.7456 27.9838 53.1409 28.1181 52.5699 28.1181C52.0996 28.1181 51.7301 28.0845 51.3942 27.9838C51.0247 27.9166 50.6888 27.7486 50.3865 27.4799C50.9575 27.2783 51.5622 26.9424 52.234 26.4722C52.8386 26.0019 53.4768 25.4644 54.0815 24.8262C54.6861 24.2216 55.2572 23.5497 55.7946 22.8107C56.3321 22.1053 56.8024 21.3663 57.239 20.5937C57.6421 19.8547 57.9445 19.1157 58.2132 18.3767C58.4147 17.6713 58.5491 16.9995 58.5491 16.3613C58.5491 16.1597 58.5155 15.9582 58.4483 15.6894C58.3475 15.4543 58.2132 15.1856 58.0788 14.9168C57.8773 14.6817 57.6757 14.4466 57.4406 14.2114C57.1719 14.0099 56.8359 13.8083 56.5 13.674C57.1047 13.506 57.7765 13.4388 58.5827 13.4388C59.3553 13.506 60.1279 13.674 60.934 13.9427C61.4379 14.1443 61.8074 14.4802 62.0426 14.8833C62.2441 15.3535 62.3449 15.8238 62.3449 16.3277C62.3449 16.6636 62.2777 17.1003 62.1433 17.6041C61.9754 18.1416 61.8074 18.679 61.6059 19.2165C61.3707 19.7875 61.1356 20.325 60.8669 20.8625C60.5981 21.4335 60.3294 21.9374 60.0943 22.3405C60.3294 22.3405 60.5645 22.3741 60.8333 22.3741C61.0348 22.4076 61.27 22.4412 61.5387 22.4748Z" fill="#030712"/>
</g>
<defs>
<clipPath id="clip0_6_2574">
<rect width="140" height="45.5878" fill="white"/>
</clipPath>
<clipPath id="clip1_6_2574">
<rect width="45.5878" height="45.5878" fill="white"/>
</clipPath>
</defs>
</svg>
