<svg width="117" height="38" viewBox="0 0 117 38" fill="none" xmlns="http://www.w3.org/2000/svg">
<g clip-path="url(#clip0_113_6950)">
<g clip-path="url(#clip1_113_6950)">
<path d="M18.9938 6.45474C18.8294 6.45474 18.6963 6.32155 18.6963 6.15712C18.6963 5.99269 18.8294 5.85951 18.9938 5.85951C17.2206 5.85951 15.5002 6.20697 13.8805 6.89223C12.3163 7.55417 10.9116 8.50157 9.70516 9.70814C8.49899 10.915 7.5519 12.3202 6.89018 13.8849C6.20515 15.5052 5.85781 17.2261 5.85781 18.9999C5.85781 20.7737 6.20515 22.4946 6.89018 24.1149C7.5519 25.6796 8.49899 27.0848 9.70516 28.2916C10.9116 29.4982 12.3163 30.4456 13.8805 31.1075C15.4804 31.7844 17.1785 32.1318 18.9288 32.14C17.5675 32.1271 16.2706 31.7117 15.1737 30.95C10.1209 29.33 6.45283 24.5853 6.45283 18.9999C6.45283 12.0824 12.0786 6.45474 18.9938 6.45474ZM20.6862 12.5786C20.6862 13.5136 19.9285 14.2715 18.9938 14.2715C18.0591 14.2715 17.3014 13.5136 17.3014 12.5786C17.3014 11.6436 18.0591 10.8857 18.9938 10.8857C19.9285 10.8857 20.6862 11.6436 20.6862 12.5786ZM31.0974 13.8849C30.4357 12.3202 29.4886 10.915 28.2822 9.70814C27.076 8.50157 25.6713 7.55417 24.1071 6.89223C22.4874 6.20697 20.767 5.85951 18.9938 5.85951C18.8294 5.85951 18.6963 5.99269 18.6963 6.15712C18.6963 6.32155 18.8294 6.45474 18.9938 6.45474H18.9963C19.0573 6.45474 19.1183 6.45573 19.1788 6.45746C19.2229 6.4587 19.2668 6.46069 19.3107 6.46292C19.5792 6.47656 19.843 6.50781 20.1013 6.55518C20.143 6.56287 20.1846 6.5708 20.226 6.57948C20.2481 6.58395 20.2701 6.58866 20.2922 6.59337C20.3998 6.61669 20.5064 6.64273 20.6118 6.67199C20.6713 6.68811 20.7303 6.70523 20.7891 6.72333C20.8215 6.73325 20.8538 6.74342 20.8857 6.75408C20.9095 6.76177 20.9333 6.76946 20.9569 6.77765C21.1228 6.83394 21.2854 6.89719 21.4443 6.96688C21.4895 6.98672 21.5341 7.00681 21.5785 7.02764C21.579 7.02789 21.5794 7.02814 21.5799 7.02839C21.6243 7.04922 21.6685 7.07055 21.7121 7.09212C21.7349 7.10353 21.7575 7.11494 21.7798 7.12635C21.8239 7.14892 21.8675 7.17223 21.9109 7.19579C21.9543 7.21935 21.9972 7.24341 22.0399 7.26796C22.0822 7.29252 22.1241 7.31732 22.1658 7.34261C22.2774 7.41032 22.3867 7.48175 22.4933 7.55665C22.5275 7.58021 22.5615 7.60451 22.5952 7.62907C22.6775 7.68933 22.7583 7.75159 22.8377 7.81557C22.8729 7.84409 22.9076 7.87286 22.9421 7.90188C22.9423 7.90213 22.9428 7.90262 22.9431 7.90287C22.9753 7.9299 23.007 7.95743 23.0385 7.98546C23.3745 8.28158 23.6777 8.61417 23.9422 8.97676C23.971 9.01619 23.9992 9.05587 24.027 9.09605C24.0468 9.12433 24.0662 9.15285 24.0853 9.18162C24.1195 9.23271 24.1529 9.28429 24.1857 9.33662C24.2918 9.50601 24.3897 9.68111 24.4792 9.86092C24.501 9.90457 24.5224 9.94872 24.5429 9.99286C24.5429 9.99311 24.5429 9.99336 24.5429 9.9936C24.5831 10.0797 24.6213 10.1665 24.6575 10.2545C24.661 10.2629 24.6644 10.2711 24.6676 10.2796C24.6917 10.3383 24.7148 10.3976 24.7368 10.4574C24.7415 10.4698 24.746 10.4824 24.7505 10.4948C24.7653 10.5353 24.7795 10.5759 24.7933 10.6169C24.8685 10.8383 24.9312 11.0655 24.9805 11.2974C24.9937 11.3584 25.0058 11.4199 25.017 11.4819C25.0817 11.8378 25.1154 12.2041 25.1154 12.5784C25.1154 15.955 22.3691 18.7023 18.9936 18.7023C17.1993 18.7023 15.5126 19.4012 14.244 20.6702C12.9753 21.9393 12.2767 23.6265 12.2767 25.4214C12.2767 27.2162 12.9753 28.9032 14.244 30.1723C14.3238 30.2521 14.4051 30.3295 14.4882 30.4049C14.5041 30.4193 14.5199 30.4334 14.5358 30.4476C14.5514 30.4615 14.5668 30.4751 14.5824 30.4885C14.6003 30.5044 14.6179 30.5197 14.636 30.5349C14.7812 30.6594 14.931 30.7769 15.085 30.8873C15.1011 30.899 15.1169 30.9104 15.1333 30.9218C15.1467 30.9312 15.1601 30.9406 15.1735 30.95C16.2703 31.7117 17.5672 32.1271 18.9286 32.14C18.9502 32.1402 18.972 32.1402 18.9936 32.1402C20.7667 32.1402 22.4871 31.7928 24.1068 31.1075C25.671 30.4456 27.0758 29.4982 28.2819 28.2916C29.4884 27.0848 30.4355 25.6796 31.0972 24.1149C31.7822 22.4946 32.1296 20.7737 32.1296 18.9999C32.1296 17.2261 31.7822 15.5052 31.0972 13.8849H31.0974ZM18.9938 26.8167C18.2245 26.8167 17.599 26.1907 17.599 25.4214C17.599 24.652 18.2245 24.0261 18.9938 24.0261C19.7631 24.0261 20.3886 24.6518 20.3886 25.4214C20.3886 26.191 19.7629 26.8167 18.9938 26.8167ZM0.998904 17.1864C0.987499 17.1864 0.975847 17.1857 0.964194 17.1844C0.801057 17.1656 0.684035 17.0178 0.702877 16.8546C0.943616 14.7777 1.5317 12.7743 2.45053 10.9001C3.3453 9.07472 4.5304 7.41751 5.9726 5.97483C7.4148 4.53215 9.07146 3.34666 10.8962 2.45159C12.7698 1.53246 14.7726 0.944178 16.8487 0.703359C17.0119 0.684262 17.1596 0.801324 17.1785 0.964763C17.1973 1.12795 17.0805 1.27577 16.9172 1.29462C8.67477 2.25095 2.2502 8.67791 1.29419 16.923C1.27658 17.0746 1.14791 17.1864 0.999152 17.1864H0.998904ZM21.1039 37.2989C20.9549 37.2989 20.8262 37.1873 20.8086 37.0355C20.7898 36.8723 20.9066 36.7245 21.07 36.7056C29.3126 35.7491 35.7372 29.3221 36.6932 21.077C36.712 20.9138 36.8598 20.7967 37.0229 20.8156C37.1861 20.8344 37.3031 20.9822 37.2842 21.1454C37.0435 23.2223 36.4554 25.2257 35.5366 27.0999C34.6418 28.9253 33.4567 30.5825 32.0145 32.0252C30.5723 33.4678 28.9157 34.6533 27.0909 35.5484C25.2171 36.4675 23.2145 37.0558 21.1384 37.2966C21.1267 37.2979 21.1151 37.2986 21.1037 37.2986L21.1039 37.2989ZM36.9885 17.1864C36.8394 17.1864 36.7108 17.0748 36.6934 16.923C35.7374 8.67766 29.3128 2.25095 21.0702 1.29437C20.9071 1.27552 20.79 1.12771 20.8089 0.964515C20.8277 0.801324 20.9755 0.684262 21.1386 0.703111C23.2148 0.94393 25.2173 1.53221 27.0911 2.45134C28.9159 3.34641 30.5726 4.53191 32.0148 5.97459C33.457 7.41727 34.6421 9.07448 35.5368 10.8998C36.4557 12.7743 37.0437 14.7775 37.2845 16.8543C37.3033 17.0175 37.1866 17.1653 37.0232 17.1842C37.0115 17.1854 36.9999 17.1862 36.9885 17.1862V17.1864ZM16.8834 37.2989C16.872 37.2989 16.8604 37.2981 16.8487 37.2969C14.7726 37.0561 12.7698 36.4678 10.8962 35.5487C9.07146 34.6536 7.4148 33.4681 5.9726 32.0254C4.5304 30.5827 3.3453 28.9255 2.45053 27.1002C1.5317 25.2257 0.943864 23.2225 0.702877 21.1457C0.684035 20.9825 0.800809 20.8347 0.964194 20.8158C1.12758 20.7967 1.2751 20.9138 1.29394 21.0772C2.24995 29.3226 8.67452 35.7493 16.9172 36.7059C17.0803 36.7247 17.1973 36.8725 17.1785 37.0357C17.1609 37.1873 17.0322 37.2991 16.8832 37.2991L16.8834 37.2989ZM19.8705 0.876967C19.8705 1.36133 19.478 1.75393 18.9938 1.75393C18.5096 1.75393 18.1171 1.36133 18.1171 0.876967C18.1171 0.392601 18.5096 0 18.9938 0C19.478 0 19.8705 0.392601 19.8705 0.876967ZM19.8705 37.123C19.8705 37.6074 19.478 38 18.9938 38C18.5096 38 18.1171 37.6074 18.1171 37.123C18.1171 36.6387 18.5096 36.2461 18.9938 36.2461C19.478 36.2461 19.8705 36.6387 19.8705 37.123ZM37.9876 19.0001C37.9876 19.4845 37.5949 19.8771 37.1107 19.8771C36.6265 19.8771 36.234 19.4845 36.234 19.0001C36.234 18.5158 36.6267 18.1232 37.1107 18.1232C37.5946 18.1232 37.9876 18.5158 37.9876 19.0001ZM1.75335 19.0001C1.75335 19.4845 1.36088 19.8771 0.876675 19.8771C0.392471 19.8771 0 19.4842 0 19.0001C0 18.516 0.392471 18.1232 0.876675 18.1232C1.36088 18.1232 1.75335 18.5158 1.75335 19.0001ZM37.1107 19.8895C36.6205 19.8895 36.2216 19.4904 36.2216 19.0001C36.2216 18.5098 36.6205 18.1108 37.1107 18.1108C37.6008 18.1108 38 18.5098 38 19.0001C38 19.4904 37.6011 19.8895 37.1107 19.8895ZM37.1107 18.1356C36.6342 18.1356 36.2464 18.5234 36.2464 19.0001C36.2464 19.4768 36.6342 19.8647 37.1107 19.8647C37.5872 19.8647 37.9752 19.4768 37.9752 19.0001C37.9752 18.5234 37.5874 18.1356 37.1107 18.1356Z" fill="#99A1AF"/>
</g>
<path d="M92.5898 18.762C94.1578 19.098 95.8378 19.266 97.6018 19.21C99.3378 19.21 100.99 19.098 102.614 18.902C104.238 18.734 105.638 18.51 106.814 18.286C107.99 18.062 108.998 17.866 109.866 17.642C110.706 17.474 111.462 17.306 112.078 17.166C112.694 17.054 113.254 16.97 113.786 16.97C114.15 16.97 114.514 17.026 114.878 17.138C115.214 17.25 115.55 17.39 115.83 17.558C116.082 17.726 116.306 17.922 116.474 18.118C116.614 18.342 116.698 18.566 116.698 18.734C116.698 19.126 116.53 19.434 116.194 19.686C115.858 19.966 115.242 20.078 114.346 20.078C114.066 20.078 113.758 20.078 113.366 20.022C112.946 20.022 112.526 19.994 112.106 19.994C111.462 19.994 110.846 20.022 110.23 20.05C109.586 20.106 108.942 20.134 108.326 20.19C108.298 20.442 108.27 20.694 108.242 20.974C108.186 21.282 108.158 21.562 108.13 21.842C108.074 22.122 108.046 22.402 107.99 22.626C107.906 22.906 107.822 23.102 107.766 23.27C107.598 23.634 107.346 23.914 107.01 24.11C106.646 24.334 106.282 24.502 105.946 24.642C105.33 24.894 104.742 25.118 104.238 25.342L102.81 25.986C102.39 26.21 102.082 26.378 101.858 26.49C101.606 26.658 101.494 26.742 101.494 26.798C101.494 27.078 101.606 27.358 101.858 27.582C102.082 27.806 102.362 28.002 102.754 28.17C103.09 28.338 103.482 28.45 103.93 28.562C104.35 28.646 104.742 28.702 105.134 28.702C105.974 28.702 106.73 28.562 107.402 28.282C108.018 28.002 108.578 27.666 109.082 27.33C109.53 26.994 109.95 26.686 110.286 26.35C110.622 26.042 110.902 25.846 111.154 25.79C111.322 25.734 111.546 25.762 111.826 25.846C112.078 25.958 112.33 26.126 112.554 26.294C112.778 26.49 112.946 26.686 113.114 26.91C113.226 27.134 113.282 27.358 113.254 27.554C113.142 28.17 112.806 28.73 112.246 29.206C111.658 29.654 110.986 30.018 110.23 30.354C109.446 30.634 108.662 30.858 107.85 31.026C107.01 31.166 106.254 31.25 105.638 31.25C104.966 31.25 104.238 31.194 103.454 31.082C102.614 30.97 101.858 30.774 101.186 30.55C100.458 30.298 99.8698 29.99 99.4218 29.598C98.9178 29.178 98.6938 28.674 98.6938 28.086C98.6938 27.918 98.7218 27.778 98.8338 27.666C98.8898 27.526 99.0578 27.386 99.3378 27.162C99.9818 26.686 100.822 26.238 101.83 25.79C102.81 25.398 103.902 24.866 105.078 24.222C105.134 24.194 105.218 24.054 105.302 23.774C105.358 23.55 105.386 23.242 105.442 22.85C105.442 22.514 105.47 22.122 105.47 21.702C105.47 21.31 105.442 20.918 105.442 20.554L102.726 20.974C101.83 21.142 100.99 21.31 100.206 21.478C99.2538 21.702 98.4978 21.842 97.9378 21.898C97.3498 22.01 96.7898 22.038 96.2858 22.038C95.6698 22.038 95.1938 21.926 94.8018 21.674C94.3818 21.45 94.0458 21.17 93.7938 20.862C93.5138 20.554 93.2618 20.218 93.0938 19.826C92.8698 19.462 92.7018 19.098 92.5898 18.762ZM98.1338 8.54198C98.3018 8.48598 98.5818 8.45798 98.9178 8.42998C99.2538 8.42998 99.5898 8.42998 99.9818 8.45798C100.346 8.51398 100.71 8.59799 101.102 8.68198C101.466 8.79398 101.774 8.90598 102.054 9.07398C102.502 8.68198 103.034 8.34598 103.594 8.06598C104.154 7.78598 104.714 7.56199 105.302 7.36598C105.862 7.19798 106.394 7.05798 106.954 6.94598C107.458 6.88998 107.962 6.83398 108.41 6.83398C108.662 6.83398 108.942 6.88998 109.25 7.00198C109.53 7.11398 109.81 7.28198 110.09 7.47798C110.314 7.70198 110.538 7.95398 110.706 8.23398C110.846 8.54198 110.902 8.84998 110.902 9.18598C110.874 9.43798 110.846 9.68998 110.79 9.91399C110.734 10.166 110.65 10.446 110.594 10.726C110.51 11.062 110.426 11.426 110.342 11.818C110.23 12.266 110.09 12.77 109.978 13.358H110.006C110.538 13.302 110.93 13.358 111.154 13.526C111.35 13.722 111.378 14.03 111.21 14.45C111.126 14.674 111.014 14.842 110.846 14.982C110.65 15.15 110.426 15.262 110.202 15.374C109.95 15.486 109.698 15.598 109.446 15.654C109.166 15.738 108.914 15.794 108.69 15.794C107.962 15.934 107.15 15.99 106.254 15.934C105.33 15.934 104.434 15.85 103.538 15.71C103.482 16.046 103.398 16.298 103.286 16.466C103.146 16.662 102.978 16.746 102.782 16.69C102.278 16.662 101.886 16.494 101.662 16.158C101.382 15.85 101.214 15.514 101.102 15.178C100.962 14.618 100.85 14.002 100.766 13.358C100.654 12.742 100.486 12.154 100.318 11.566C100.094 11.006 99.8418 10.446 99.5058 9.91399C99.1698 9.40998 98.6938 8.93398 98.1338 8.54198ZM102.67 9.80198C102.894 10.362 103.118 11.062 103.286 11.874C103.426 12.714 103.51 13.498 103.566 14.226C104.07 14.198 104.63 14.142 105.274 14.058C105.89 14.002 106.534 13.918 107.178 13.806C107.234 13.526 107.318 13.246 107.374 13.022L107.542 12.378C107.57 12.182 107.626 11.986 107.682 11.762C107.71 11.594 107.738 11.37 107.794 11.09C107.906 10.39 107.85 9.85798 107.626 9.52198C107.402 9.21398 106.954 9.04598 106.282 9.04598C105.778 9.04598 105.218 9.10198 104.574 9.21398C103.902 9.35398 103.286 9.54998 102.67 9.80198Z" fill="#99A1AF"/>
<path d="M67.3789 20.386C68.9469 20.722 70.6269 20.89 72.3909 20.834C74.1269 20.834 75.7789 20.722 77.4029 20.526C79.0269 20.358 80.4269 20.134 81.6029 19.91C82.7789 19.686 83.7869 19.49 84.6549 19.266C85.4949 19.098 86.2509 18.93 86.8669 18.79C87.4829 18.678 88.0429 18.594 88.5749 18.594C88.9389 18.594 89.3029 18.65 89.6669 18.762C90.0029 18.874 90.3389 19.014 90.6189 19.182C90.8709 19.35 91.0949 19.546 91.2629 19.742C91.4029 19.966 91.4869 20.19 91.4869 20.358C91.4869 20.75 91.3189 21.058 90.9829 21.31C90.6469 21.59 90.0309 21.702 89.1349 21.702C88.8549 21.702 88.5469 21.702 88.1549 21.646C87.7349 21.646 87.3149 21.618 86.8949 21.618C86.1949 21.618 85.4949 21.646 84.8229 21.674L82.7509 21.842V27.694C82.7509 28.086 82.6949 28.534 82.5829 29.01C82.4429 29.458 82.2469 29.878 82.0229 30.298C81.7429 30.69 81.4349 31.054 81.0709 31.39C80.6789 31.67 80.2309 31.894 79.7269 32.006C79.7829 31.39 79.8389 30.69 79.8669 29.906C79.8669 29.066 79.8949 28.226 79.8949 27.33C79.8669 26.434 79.8389 25.538 79.8389 24.642C79.7829 23.774 79.7549 22.962 79.7269 22.234L77.2909 22.654C76.4789 22.822 75.7229 22.962 74.9949 23.102C74.0429 23.326 73.2869 23.466 72.7269 23.522C72.1389 23.634 71.5789 23.662 71.0749 23.662C70.4589 23.662 69.9829 23.55 69.5909 23.298C69.1709 23.074 68.8349 22.794 68.5829 22.486C68.3029 22.178 68.0509 21.842 67.8829 21.45C67.6589 21.086 67.4909 20.722 67.3789 20.386ZM85.3269 8.87797C85.0469 9.40997 84.5989 10.054 83.9829 10.81C83.3389 11.594 82.6389 12.406 81.8549 13.246C82.4429 13.218 83.1149 13.218 83.8429 13.246C84.5709 13.302 85.2429 13.414 85.9149 13.582C86.5309 13.75 87.0909 14.002 87.5389 14.282C87.9589 14.618 88.1829 15.01 88.1829 15.486C88.1829 15.934 88.0989 16.242 87.9309 16.466C87.7069 16.718 87.4549 16.886 87.1749 16.97C86.8389 17.082 86.5029 17.11 86.1669 17.054C85.7749 17.054 85.4389 16.97 85.1309 16.858C84.9069 16.802 84.6829 16.774 84.4029 16.718C84.0949 16.69 83.7869 16.662 83.4509 16.634C83.1149 16.634 82.7509 16.662 82.4149 16.662C82.0229 16.69 81.6869 16.718 81.3789 16.774C81.7989 16.606 82.2749 16.438 82.8069 16.27C83.3109 16.158 83.7869 16.018 84.2909 15.906C83.8989 15.57 83.4509 15.234 82.8909 14.87L81.2389 13.918C80.5389 14.646 79.8669 15.29 79.1949 15.878C78.5229 16.494 77.9349 16.998 77.4309 17.334C77.0109 17.614 76.5349 17.866 76.0029 18.034C75.4429 18.23 74.8269 18.314 74.0989 18.314C73.4549 18.314 72.8949 18.258 72.3909 18.118C71.8869 18.006 71.3829 17.698 70.9069 17.194C71.2429 17.278 71.5509 17.306 71.8869 17.278C72.1949 17.278 72.5029 17.222 72.7829 17.166C73.0349 17.11 73.2869 17.054 73.5109 16.942C73.7069 16.886 73.8749 16.802 73.9869 16.746C74.5749 16.438 75.2189 15.99 75.9469 15.43C76.6469 14.87 77.3469 14.282 78.0189 13.61C78.6629 12.994 79.2509 12.35 79.8109 11.678C80.3429 11.062 80.7349 10.502 81.0149 10.026C80.5669 10.082 80.1189 10.222 79.6149 10.446C79.1109 10.67 78.6069 10.894 78.1309 11.09C77.6269 11.314 77.1509 11.454 76.7029 11.566C76.2269 11.678 75.8069 11.65 75.4709 11.426C75.0229 11.23 74.7149 10.922 74.4909 10.53C74.2389 10.138 74.0149 9.63397 73.8189 9.01797C74.4349 9.29797 75.1909 9.40997 76.0589 9.35397C76.8989 9.29797 77.7949 9.15797 78.7189 8.90597C79.6149 8.68197 80.4829 8.40197 81.3789 8.06597L83.7589 7.14197C84.3469 7.30997 84.7389 7.53397 84.9349 7.81397C85.1029 8.14997 85.2149 8.48597 85.3269 8.87797Z" fill="#99A1AF"/>
<path d="M60.872 18.678C61.236 18.51 61.6 18.314 61.964 18.09C62.3 17.866 62.636 17.614 62.916 17.334C63.196 17.082 63.42 16.802 63.616 16.494C63.784 16.214 63.868 15.934 63.924 15.598C64.232 15.57 64.568 15.598 64.904 15.682C65.212 15.794 65.52 15.934 65.8 16.102C66.052 16.326 66.276 16.55 66.444 16.83C66.612 17.138 66.696 17.474 66.696 17.81C66.696 18.37 66.5 18.818 66.108 19.126C65.716 19.462 65.212 19.742 64.652 19.91C64.064 20.134 63.448 20.274 62.776 20.386C62.076 20.526 61.432 20.666 60.872 20.806V24.278C60.872 25.286 60.76 26.182 60.592 26.966C60.396 27.75 60.144 28.478 59.864 29.122C59.556 29.738 59.22 30.27 58.856 30.718C58.464 31.138 58.1 31.474 57.764 31.754C57.764 31.026 57.792 30.382 57.848 29.822C57.848 29.206 57.876 28.646 57.904 28.142C57.904 27.61 57.904 27.106 57.932 26.574V24.95V13.162C57.932 12.07 57.904 11.202 57.876 10.586C57.82 9.97002 57.736 9.49402 57.624 9.10202C57.456 8.54202 57.204 8.01002 56.868 7.47802C56.532 6.97402 56.056 6.49802 55.468 5.99402C56.336 5.99402 57.12 6.02202 57.792 6.07802C58.464 6.16202 59.024 6.33002 59.5 6.55402C59.948 6.80602 60.284 7.17002 60.536 7.64602C60.76 8.15002 60.872 8.79402 60.872 9.63402V18.678ZM51.296 18.734L52.836 19.126C53.256 19.294 53.648 19.434 53.984 19.574C54.292 19.742 54.572 19.91 54.824 20.078C55.048 20.274 55.244 20.47 55.44 20.694C55.58 20.862 55.692 21.002 55.748 21.17C55.804 21.366 55.832 21.562 55.832 21.73C55.832 22.15 55.72 22.514 55.552 22.85C55.328 23.186 55.02 23.354 54.628 23.354C54.292 23.354 53.956 23.27 53.676 23.046C53.368 22.85 53.06 22.598 52.78 22.262C52.444 21.982 52.136 21.618 51.828 21.226C51.492 20.862 51.156 20.498 50.792 20.134C50.596 19.994 50.428 19.826 50.26 19.658C50.092 19.518 49.896 19.378 49.7 19.21C49.308 19.798 48.86 20.33 48.412 20.834C47.908 21.366 47.432 21.814 46.928 22.178C46.396 22.57 45.864 22.878 45.36 23.102C44.8 23.326 44.296 23.438 43.82 23.438C43.428 23.438 43.12 23.41 42.84 23.326C42.532 23.27 42.252 23.13 42 22.906C42.476 22.738 42.98 22.458 43.54 22.066C44.044 21.674 44.576 21.226 45.08 20.694C45.584 20.19 46.06 19.63 46.508 19.014C46.956 18.426 47.348 17.81 47.712 17.166C48.048 16.55 48.3 15.934 48.524 15.318C48.692 14.73 48.804 14.17 48.804 13.638C48.804 13.47 48.776 13.302 48.72 13.078C48.636 12.882 48.524 12.658 48.412 12.434C48.244 12.238 48.076 12.042 47.88 11.846C47.656 11.678 47.376 11.51 47.096 11.398C47.6 11.258 48.16 11.202 48.832 11.202C49.476 11.258 50.12 11.398 50.792 11.622C51.212 11.79 51.52 12.07 51.716 12.406C51.884 12.798 51.968 13.19 51.968 13.61C51.968 13.89 51.912 14.254 51.8 14.674C51.66 15.122 51.52 15.57 51.352 16.018C51.156 16.494 50.96 16.942 50.736 17.39C50.512 17.866 50.288 18.286 50.092 18.622C50.288 18.622 50.484 18.65 50.708 18.65C50.876 18.678 51.072 18.706 51.296 18.734Z" fill="#99A1AF"/>
</g>
<defs>
<clipPath id="clip0_113_6950">
<rect width="116.698" height="38" fill="white"/>
</clipPath>
<clipPath id="clip1_113_6950">
<rect width="38" height="38" fill="white"/>
</clipPath>
</defs>
</svg>
